<?xml version="1.0" encoding="UTF-8" standalone="no"?>
<svg width="256px" height="256px" viewBox="0 0 256 256" version="1.1" xmlns="http://www.w3.org/2000/svg" xmlns:xlink="http://www.w3.org/1999/xlink">
    <!-- Generator: Sketch 3.6.1 (26313) - http://www.bohemiancoding.com/sketch -->
    <title>Credit Card</title>
    <desc>Created with Sketch.</desc>
    <defs></defs>
    <g id="Page-1" stroke="none" stroke-width="1" fill="none" fill-rule="evenodd">
        <g id="Credit-Card">
            <g id="Group-5" transform="translate(0.000000, 47.000000)">
                <g id="Group-2">
                    <rect id="Rectangle-5" fill="#44536A" x="0" y="0" width="256" height="162" rx="8"></rect>
                    <rect id="Rectangle-13-Copy-4" fill="#6BC16F" x="21.5578947" y="21.6" width="43.1157895" height="21.6" rx="8"></rect>
                </g>
                <path d="M28.8458105,78.74415 L28.8458105,81.02565 L24.9047579,81.02565 L24.5894737,82.5876 C24.9164367,82.5290997 25.2375563,82.49985 25.5528421,82.49985 C26.802308,82.49985 27.7948595,82.8800962 28.5305263,83.6406 C29.2428386,84.3543036 29.5989895,85.2961442 29.5989895,86.46615 C29.5989895,87.6829561 29.2019689,88.689146 28.4079158,89.48475 C27.5788309,90.3037541 26.3994462,90.71325 24.8697263,90.71325 C23.3750381,90.71325 22.0788827,90.2862043 20.9812211,89.4321 L21.5942737,86.92245 C21.9562685,87.331952 22.3299349,87.6536988 22.7152842,87.8877 C23.2407605,88.2270017 23.8304529,88.39665 24.4843789,88.39665 C25.1966913,88.39665 25.7513524,88.2387016 26.1483789,87.9228 C26.6037918,87.5717982 26.8314947,87.0804032 26.8314947,86.4486 C26.8314947,85.8869972 26.6329844,85.4307018 26.2359579,85.0797 C25.7688678,84.670198 25.1207901,84.46545 24.2917053,84.46545 C23.4509432,84.46545 22.656902,84.670198 21.9095579,85.0797 L23.1006316,78.74415 L28.8458105,78.74415 Z M41.1769263,78.74415 L41.1769263,81.02565 L37.2358737,81.02565 L36.9205895,82.5876 C37.2475525,82.5290997 37.5686721,82.49985 37.8839579,82.49985 C39.1334238,82.49985 40.1259753,82.8800962 40.8616421,83.6406 C41.5739544,84.3543036 41.9301053,85.2961442 41.9301053,86.46615 C41.9301053,87.6829561 41.5330847,88.689146 40.7390316,89.48475 C39.9099467,90.3037541 38.730562,90.71325 37.2008421,90.71325 C35.7061539,90.71325 34.4099985,90.2862043 33.3123368,89.4321 L33.9253895,86.92245 C34.2873843,87.331952 34.6610507,87.6536988 35.0464,87.8877 C35.5718763,88.2270017 36.1615687,88.39665 36.8154947,88.39665 C37.5278071,88.39665 38.0824682,88.2387016 38.4794947,87.9228 C38.9349075,87.5717982 39.1626105,87.0804032 39.1626105,86.4486 C39.1626105,85.8869972 38.9641002,85.4307018 38.5670737,85.0797 C38.0999836,84.670198 37.4519059,84.46545 36.6228211,84.46545 C35.782059,84.46545 34.9880178,84.670198 34.2406737,85.0797 L35.4317474,78.74415 L41.1769263,78.74415 Z M53.5080421,78.74415 L53.5080421,81.02565 L49.5669895,81.02565 L49.2517053,82.5876 C49.5786683,82.5290997 49.8997879,82.49985 50.2150737,82.49985 C51.4645396,82.49985 52.4570911,82.8800962 53.1927579,83.6406 C53.9050702,84.3543036 54.2612211,85.2961442 54.2612211,86.46615 C54.2612211,87.6829561 53.8642005,88.689146 53.0701474,89.48475 C52.2410625,90.3037541 51.0616778,90.71325 49.5319579,90.71325 C48.0372697,90.71325 46.7411143,90.2862043 45.6434526,89.4321 L46.2565053,86.92245 C46.6185001,87.331952 46.9921665,87.6536988 47.3775158,87.8877 C47.9029921,88.2270017 48.4926844,88.39665 49.1466105,88.39665 C49.8589229,88.39665 50.413584,88.2387016 50.8106105,87.9228 C51.2660233,87.5717982 51.4937263,87.0804032 51.4937263,86.4486 C51.4937263,85.8869972 51.295216,85.4307018 50.8981895,85.0797 C50.4310994,84.670198 49.7830217,84.46545 48.9539368,84.46545 C48.1131747,84.46545 47.3191336,84.670198 46.5717895,85.0797 L47.7628632,78.74415 L53.5080421,78.74415 Z M65.8391579,78.74415 L65.8391579,81.02565 L61.8981053,81.02565 L61.5828211,82.5876 C61.9097841,82.5290997 62.2309037,82.49985 62.5461895,82.49985 C63.7956554,82.49985 64.7882068,82.8800962 65.5238737,83.6406 C66.236186,84.3543036 66.5923368,85.2961442 66.5923368,86.46615 C66.5923368,87.6829561 66.1953163,88.689146 65.4012632,89.48475 C64.5721783,90.3037541 63.3927936,90.71325 61.8630737,90.71325 C60.3683855,90.71325 59.07223,90.2862043 57.9745684,89.4321 L58.5876211,86.92245 C58.9496158,87.331952 59.3232823,87.6536988 59.7086316,87.8877 C60.2341079,88.2270017 60.8238002,88.39665 61.4777263,88.39665 C62.1900386,88.39665 62.7446998,88.2387016 63.1417263,87.9228 C63.5971391,87.5717982 63.8248421,87.0804032 63.8248421,86.4486 C63.8248421,85.8869972 63.6263318,85.4307018 63.2293053,85.0797 C62.7622152,84.670198 62.1141375,84.46545 61.2850526,84.46545 C60.4442905,84.46545 59.6502494,84.670198 58.9029053,85.0797 L60.0939789,78.74415 L65.8391579,78.74415 Z M84.8087579,78.74415 L84.8087579,81.02565 L80.8677053,81.02565 L80.5524211,82.5876 C80.8793841,82.5290997 81.2005037,82.49985 81.5157895,82.49985 C82.7652554,82.49985 83.7578068,82.8800962 84.4934737,83.6406 C85.205786,84.3543036 85.5619368,85.2961442 85.5619368,86.46615 C85.5619368,87.6829561 85.1649163,88.689146 84.3708632,89.48475 C83.5417783,90.3037541 82.3623936,90.71325 80.8326737,90.71325 C79.3379855,90.71325 78.04183,90.2862043 76.9441684,89.4321 L77.5572211,86.92245 C77.9192158,87.331952 78.2928823,87.6536988 78.6782316,87.8877 C79.2037079,88.2270017 79.7934002,88.39665 80.4473263,88.39665 C81.1596386,88.39665 81.7142998,88.2387016 82.1113263,87.9228 C82.5667391,87.5717982 82.7944421,87.0804032 82.7944421,86.4486 C82.7944421,85.8869972 82.5959318,85.4307018 82.1989053,85.0797 C81.7318152,84.670198 81.0837375,84.46545 80.2546526,84.46545 C79.4138905,84.46545 78.6198494,84.670198 77.8725053,85.0797 L79.0635789,78.74415 L84.8087579,78.74415 Z M97.1398737,78.74415 L97.1398737,81.02565 L93.1988211,81.02565 L92.8835368,82.5876 C93.2104999,82.5290997 93.5316195,82.49985 93.8469053,82.49985 C95.0963712,82.49985 96.0889226,82.8800962 96.8245895,83.6406 C97.5369018,84.3543036 97.8930526,85.2961442 97.8930526,86.46615 C97.8930526,87.6829561 97.496032,88.689146 96.7019789,89.48475 C95.8728941,90.3037541 94.6935094,90.71325 93.1637895,90.71325 C91.6691013,90.71325 90.3729458,90.2862043 89.2752842,89.4321 L89.8883368,86.92245 C90.2503316,87.331952 90.6239981,87.6536988 91.0093474,87.8877 C91.5348237,88.2270017 92.124516,88.39665 92.7784421,88.39665 C93.4907544,88.39665 94.0454156,88.2387016 94.4424421,87.9228 C94.8978549,87.5717982 95.1255579,87.0804032 95.1255579,86.4486 C95.1255579,85.8869972 94.9270476,85.4307018 94.5300211,85.0797 C94.062931,84.670198 93.4148533,84.46545 92.5857684,84.46545 C91.7450063,84.46545 90.9509651,84.670198 90.2036211,85.0797 L91.3946947,78.74415 L97.1398737,78.74415 Z M109.470989,78.74415 L109.470989,81.02565 L105.529937,81.02565 L105.214653,82.5876 C105.541616,82.5290997 105.862735,82.49985 106.178021,82.49985 C107.427487,82.49985 108.420038,82.8800962 109.155705,83.6406 C109.868018,84.3543036 110.224168,85.2961442 110.224168,86.46615 C110.224168,87.6829561 109.827148,88.689146 109.033095,89.48475 C108.20401,90.3037541 107.024625,90.71325 105.494905,90.71325 C104.000217,90.71325 102.704062,90.2862043 101.6064,89.4321 L102.219453,86.92245 C102.581447,87.331952 102.955114,87.6536988 103.340463,87.8877 C103.865939,88.2270017 104.455632,88.39665 105.109558,88.39665 C105.82187,88.39665 106.376531,88.2387016 106.773558,87.9228 C107.228971,87.5717982 107.456674,87.0804032 107.456674,86.4486 C107.456674,85.8869972 107.258163,85.4307018 106.861137,85.0797 C106.394047,84.670198 105.745969,84.46545 104.916884,84.46545 C104.076122,84.46545 103.282081,84.670198 102.534737,85.0797 L103.725811,78.74415 L109.470989,78.74415 Z M121.802105,78.74415 L121.802105,81.02565 L117.861053,81.02565 L117.545768,82.5876 C117.872731,82.5290997 118.193851,82.49985 118.509137,82.49985 C119.758603,82.49985 120.751154,82.8800962 121.486821,83.6406 C122.199133,84.3543036 122.555284,85.2961442 122.555284,86.46615 C122.555284,87.6829561 122.158264,88.689146 121.364211,89.48475 C120.535126,90.3037541 119.355741,90.71325 117.826021,90.71325 C116.331333,90.71325 115.035177,90.2862043 113.937516,89.4321 L114.550568,86.92245 C114.912563,87.331952 115.28623,87.6536988 115.671579,87.8877 C116.197055,88.2270017 116.786748,88.39665 117.440674,88.39665 C118.152986,88.39665 118.707647,88.2387016 119.104674,87.9228 C119.560086,87.5717982 119.787789,87.0804032 119.787789,86.4486 C119.787789,85.8869972 119.589279,85.4307018 119.192253,85.0797 C118.725163,84.670198 118.077085,84.46545 117.248,84.46545 C116.407238,84.46545 115.613197,84.670198 114.865853,85.0797 L116.056926,78.74415 L121.802105,78.74415 Z M140.771705,78.74415 L140.771705,81.02565 L136.830653,81.02565 L136.515368,82.5876 C136.842331,82.5290997 137.163451,82.49985 137.478737,82.49985 C138.728203,82.49985 139.720754,82.8800962 140.456421,83.6406 C141.168733,84.3543036 141.524884,85.2961442 141.524884,86.46615 C141.524884,87.6829561 141.127864,88.689146 140.333811,89.48475 C139.504726,90.3037541 138.325341,90.71325 136.795621,90.71325 C135.300933,90.71325 134.004777,90.2862043 132.907116,89.4321 L133.520168,86.92245 C133.882163,87.331952 134.25583,87.6536988 134.641179,87.8877 C135.166655,88.2270017 135.756348,88.39665 136.410274,88.39665 C137.122586,88.39665 137.677247,88.2387016 138.074274,87.9228 C138.529686,87.5717982 138.757389,87.0804032 138.757389,86.4486 C138.757389,85.8869972 138.558879,85.4307018 138.161853,85.0797 C137.694763,84.670198 137.046685,84.46545 136.2176,84.46545 C135.376838,84.46545 134.582797,84.670198 133.835453,85.0797 L135.026526,78.74415 L140.771705,78.74415 Z M153.102821,78.74415 L153.102821,81.02565 L149.161768,81.02565 L148.846484,82.5876 C149.173447,82.5290997 149.494567,82.49985 149.809853,82.49985 C151.059319,82.49985 152.05187,82.8800962 152.787537,83.6406 C153.499849,84.3543036 153.856,85.2961442 153.856,86.46615 C153.856,87.6829561 153.458979,88.689146 152.664926,89.48475 C151.835841,90.3037541 150.656457,90.71325 149.126737,90.71325 C147.632049,90.71325 146.335893,90.2862043 145.238232,89.4321 L145.851284,86.92245 C146.213279,87.331952 146.586945,87.6536988 146.972295,87.8877 C147.497771,88.2270017 148.087463,88.39665 148.741389,88.39665 C149.453702,88.39665 150.008363,88.2387016 150.405389,87.9228 C150.860802,87.5717982 151.088505,87.0804032 151.088505,86.4486 C151.088505,85.8869972 150.889995,85.4307018 150.492968,85.0797 C150.025878,84.670198 149.377801,84.46545 148.548716,84.46545 C147.707954,84.46545 146.913913,84.670198 146.166568,85.0797 L147.357642,78.74415 L153.102821,78.74415 Z M165.433937,78.74415 L165.433937,81.02565 L161.492884,81.02565 L161.1776,82.5876 C161.504563,82.5290997 161.825683,82.49985 162.140968,82.49985 C163.390434,82.49985 164.382986,82.8800962 165.118653,83.6406 C165.830965,84.3543036 166.187116,85.2961442 166.187116,86.46615 C166.187116,87.6829561 165.790095,88.689146 164.996042,89.48475 C164.166957,90.3037541 162.987573,90.71325 161.457853,90.71325 C159.963164,90.71325 158.667009,90.2862043 157.569347,89.4321 L158.1824,86.92245 C158.544395,87.331952 158.918061,87.6536988 159.303411,87.8877 C159.828887,88.2270017 160.418579,88.39665 161.072505,88.39665 C161.784818,88.39665 162.339479,88.2387016 162.736505,87.9228 C163.191918,87.5717982 163.419621,87.0804032 163.419621,86.4486 C163.419621,85.8869972 163.221111,85.4307018 162.824084,85.0797 C162.356994,84.670198 161.708916,84.46545 160.879832,84.46545 C160.039069,84.46545 159.245028,84.670198 158.497684,85.0797 L159.688758,78.74415 L165.433937,78.74415 Z M177.765053,78.74415 L177.765053,81.02565 L173.824,81.02565 L173.508716,82.5876 C173.835679,82.5290997 174.156798,82.49985 174.472084,82.49985 C175.72155,82.49985 176.714102,82.8800962 177.449768,83.6406 C178.162081,84.3543036 178.518232,85.2961442 178.518232,86.46615 C178.518232,87.6829561 178.121211,88.689146 177.327158,89.48475 C176.498073,90.3037541 175.318688,90.71325 173.788968,90.71325 C172.29428,90.71325 170.998125,90.2862043 169.900463,89.4321 L170.513516,86.92245 C170.875511,87.331952 171.249177,87.6536988 171.634526,87.8877 C172.160003,88.2270017 172.749695,88.39665 173.403621,88.39665 C174.115933,88.39665 174.670595,88.2387016 175.067621,87.9228 C175.523034,87.5717982 175.750737,87.0804032 175.750737,86.4486 C175.750737,85.8869972 175.552227,85.4307018 175.1552,85.0797 C174.68811,84.670198 174.040032,84.46545 173.210947,84.46545 C172.370185,84.46545 171.576144,84.670198 170.8288,85.0797 L172.019874,78.74415 L177.765053,78.74415 Z M196.734653,78.74415 L196.734653,81.02565 L192.7936,81.02565 L192.478316,82.5876 C192.805279,82.5290997 193.126398,82.49985 193.441684,82.49985 C194.69115,82.49985 195.683702,82.8800962 196.419368,83.6406 C197.131681,84.3543036 197.487832,85.2961442 197.487832,86.46615 C197.487832,87.6829561 197.090811,88.689146 196.296758,89.48475 C195.467673,90.3037541 194.288288,90.71325 192.758568,90.71325 C191.26388,90.71325 189.967725,90.2862043 188.870063,89.4321 L189.483116,86.92245 C189.845111,87.331952 190.218777,87.6536988 190.604126,87.8877 C191.129603,88.2270017 191.719295,88.39665 192.373221,88.39665 C193.085533,88.39665 193.640195,88.2387016 194.037221,87.9228 C194.492634,87.5717982 194.720337,87.0804032 194.720337,86.4486 C194.720337,85.8869972 194.521827,85.4307018 194.1248,85.0797 C193.65771,84.670198 193.009632,84.46545 192.180547,84.46545 C191.339785,84.46545 190.545744,84.670198 189.7984,85.0797 L190.989474,78.74415 L196.734653,78.74415 Z M209.065768,78.74415 L209.065768,81.02565 L205.124716,81.02565 L204.809432,82.5876 C205.136395,82.5290997 205.457514,82.49985 205.7728,82.49985 C207.022266,82.49985 208.014817,82.8800962 208.750484,83.6406 C209.462797,84.3543036 209.818947,85.2961442 209.818947,86.46615 C209.818947,87.6829561 209.421927,88.689146 208.627874,89.48475 C207.798789,90.3037541 206.619404,90.71325 205.089684,90.71325 C203.594996,90.71325 202.298841,90.2862043 201.201179,89.4321 L201.814232,86.92245 C202.176226,87.331952 202.549893,87.6536988 202.935242,87.8877 C203.460718,88.2270017 204.050411,88.39665 204.704337,88.39665 C205.416649,88.39665 205.97131,88.2387016 206.368337,87.9228 C206.82375,87.5717982 207.051453,87.0804032 207.051453,86.4486 C207.051453,85.8869972 206.852942,85.4307018 206.455916,85.0797 C205.988826,84.670198 205.340748,84.46545 204.511663,84.46545 C203.670901,84.46545 202.87686,84.670198 202.129516,85.0797 L203.320589,78.74415 L209.065768,78.74415 Z M221.396884,78.74415 L221.396884,81.02565 L217.455832,81.02565 L217.140547,82.5876 C217.46751,82.5290997 217.78863,82.49985 218.103916,82.49985 C219.353382,82.49985 220.345933,82.8800962 221.0816,83.6406 C221.793912,84.3543036 222.150063,85.2961442 222.150063,86.46615 C222.150063,87.6829561 221.753043,88.689146 220.958989,89.48475 C220.129905,90.3037541 218.95052,90.71325 217.4208,90.71325 C215.926112,90.71325 214.629956,90.2862043 213.532295,89.4321 L214.145347,86.92245 C214.507342,87.331952 214.881009,87.6536988 215.266358,87.8877 C215.791834,88.2270017 216.381527,88.39665 217.035453,88.39665 C217.747765,88.39665 218.302426,88.2387016 218.699453,87.9228 C219.154865,87.5717982 219.382568,87.0804032 219.382568,86.4486 C219.382568,85.8869972 219.184058,85.4307018 218.787032,85.0797 C218.319942,84.670198 217.671864,84.46545 216.842779,84.46545 C216.002017,84.46545 215.207976,84.670198 214.460632,85.0797 L215.651705,78.74415 L221.396884,78.74415 Z M230.697768,90.71325 C230.254033,90.71325 229.889124,90.6986251 229.603032,90.669375 C229.316939,90.6401249 228.978304,90.5494508 228.587116,90.39735 C228.195928,90.2452492 227.836858,90.0229515 227.509895,89.73045 C226.762551,89.0518466 226.388884,88.2036051 226.388884,87.1857 C226.388884,86.4017961 226.651618,85.7349027 227.177095,85.185 C227.562444,84.787198 228.047043,84.4947009 228.630905,84.3075 C228.210524,84.1319991 227.854373,83.8921515 227.562442,83.58795 C227.083675,83.0965475 226.844295,82.4764537 226.844295,81.72765 C226.844295,80.8501456 227.130383,80.1247529 227.702568,79.55145 C228.403204,78.8377464 229.413271,78.4809 230.7328,78.4809 C232.028975,78.4809 233.027365,78.8377464 233.728,79.55145 C234.300185,80.1247529 234.586274,80.8501456 234.586274,81.72765 C234.586274,82.4764537 234.346894,83.0965475 233.868126,83.58795 C233.576195,83.8921515 233.220044,84.1319991 232.799663,84.3075 C233.383526,84.4947009 233.868124,84.787198 234.253474,85.185 C234.77895,85.7349027 235.041684,86.4017961 235.041684,87.1857 C235.041684,88.2036051 234.668018,89.0518466 233.920674,89.73045 C233.453584,90.1516521 232.974824,90.4207494 232.484379,90.53775 C231.993934,90.6547506 231.398404,90.71325 230.697768,90.71325 L230.697768,90.71325 Z M230.715284,80.4816 C230.318258,80.4816 229.973784,80.6102987 229.681853,80.8677 C229.389921,81.1485014 229.243958,81.4819481 229.243958,81.86805 C229.243958,82.265852 229.389921,82.5992987 229.681853,82.8684 C229.973784,83.1258013 230.318258,83.2545 230.715284,83.2545 C231.123988,83.2545 231.462623,83.1258013 231.7312,82.8684 C232.023131,82.5875986 232.169095,82.2541519 232.169095,81.86805 C232.169095,81.4819481 232.023131,81.1426515 231.7312,80.85015 C231.450946,80.6044488 231.112311,80.4816 230.715284,80.4816 L230.715284,80.4816 Z M230.680253,85.3956 C230.22484,85.3956 229.857012,85.5359986 229.576758,85.8168 C229.273149,86.1210015 229.121347,86.5070977 229.121347,86.9751 C229.121347,87.4665025 229.273149,87.8584485 229.576758,88.15095 C229.868689,88.4317514 230.248194,88.57215 230.715284,88.57215 C231.182374,88.57215 231.561879,88.4317514 231.853811,88.15095 C232.157419,87.8701486 232.309221,87.4723526 232.309221,86.95755 C232.309221,86.4778476 232.157419,86.0976014 231.853811,85.8168 C231.573556,85.5359986 231.182374,85.3956 230.680253,85.3956 L230.680253,85.3956 Z" id="5555-5555-5555-5558" fill="#FFFFFF" opacity="0.8"></path>
                <path d="M21.0957474,116.09595 L22.9632,116.09595 L22.9632,122.6205 L25.4733474,122.6205 L25.4733474,124.2 L21.0957474,124.2 L21.0957474,116.09595 Z M32.6157474,116.09595 L32.6157474,117.67545 L29.9115789,117.67545 L29.9115789,119.2428 L32.4823579,119.2428 L32.4823579,120.8223 L29.9115789,120.8223 L29.9115789,122.6205 L32.6157474,122.6205 L32.6157474,124.2 L28.0441263,124.2 L28.0441263,116.09595 L32.6157474,116.09595 Z M41.0071579,124.2 L40.4008421,122.6691 L37.3450105,122.6691 L36.7265684,124.2 L34.7863579,124.2 L38.0483368,116.09595 L39.7581474,116.09595 L42.9473684,124.2 L41.0071579,124.2 Z M37.8906947,121.2354 L39.8915368,121.2354 L38.8971789,118.5138 L37.8906947,121.2354 Z M49.0226526,121.284 L49.0226526,119.7774 L53.0364632,119.7774 L53.0364632,119.86245 C53.0364632,120.421353 52.9313695,121.022772 52.7211789,121.666725 C52.5109884,122.310678 52.1997494,122.847298 51.7874526,123.2766 C51.0841228,124.013704 50.1221114,124.38225 48.9013895,124.38225 C48.3274077,124.38225 47.7978972,124.305301 47.3128421,124.1514 C46.827787,123.997499 46.3710337,123.697802 45.9425684,123.2523 C45.1503118,122.434196 44.7541895,121.405506 44.7541895,120.1662 C44.7541895,118.910694 45.1422277,117.886054 45.9183158,117.09225 C46.6782354,116.306546 47.7372564,115.9137 49.0954105,115.9137 C49.9927624,115.9137 50.7486285,116.116198 51.3630316,116.5212 C51.8885079,116.869502 52.3250509,117.351447 52.6726737,117.96705 L50.9871158,118.8783 C50.801178,118.505698 50.5626962,118.214101 50.2716632,118.0035 C49.9159561,117.744299 49.5036655,117.6147 49.0347789,117.6147 C48.3314491,117.6147 47.7736442,117.833398 47.3613474,118.2708 C46.9005451,118.756802 46.6701474,119.396696 46.6701474,120.1905 C46.6701474,120.976204 46.896503,121.595848 47.3492211,122.04945 C47.7615179,122.470652 48.3071966,122.68125 48.9862737,122.68125 C49.5845083,122.68125 50.0533878,122.535451 50.3929263,122.24385 C50.6677908,122.025149 50.86181,121.705202 50.9749895,121.284 L49.0226526,121.284 Z M62.7860211,116.09595 L62.7860211,120.8952 C62.7860211,121.988705 62.4869083,122.843247 61.8886737,123.45885 C61.2904391,124.074453 60.4496896,124.38225 59.3664,124.38225 C58.2831104,124.38225 57.4423609,124.074453 56.8441263,123.45885 C56.2458917,122.843247 55.9467789,121.988705 55.9467789,120.8952 L55.9467789,116.09595 L57.8142316,116.09595 L57.8142316,120.8466 C57.8142316,121.462203 57.9557038,121.915799 58.2386526,122.2074 C58.5054329,122.490901 58.8813449,122.63265 59.3664,122.63265 C59.8514551,122.63265 60.2273671,122.490901 60.4941474,122.2074 C60.7770962,121.915799 60.9185684,121.462203 60.9185684,120.8466 L60.9185684,116.09595 L62.7860211,116.09595 Z M70.6438737,116.09595 L70.6438737,117.67545 L67.9397053,117.67545 L67.9397053,119.2428 L70.5104842,119.2428 L70.5104842,120.8223 L67.9397053,120.8223 L67.9397053,122.6205 L70.6438737,122.6205 L70.6438737,124.2 L66.0722526,124.2 L66.0722526,116.09595 L70.6438737,116.09595 Z M79.8841263,116.09595 L79.8841263,119.18205 L83.1097263,119.18205 L83.1097263,116.09595 L84.9771789,116.09595 L84.9771789,124.2 L83.1097263,124.2 L83.1097263,120.76155 L79.8841263,120.76155 L79.8841263,124.2 L78.0166737,124.2 L78.0166737,116.09595 L79.8841263,116.09595 Z M92.8350316,116.09595 L92.8350316,117.67545 L90.1308632,117.67545 L90.1308632,119.2428 L92.7016421,119.2428 L92.7016421,120.8223 L90.1308632,120.8223 L90.1308632,122.6205 L92.8350316,122.6205 L92.8350316,124.2 L88.2634105,124.2 L88.2634105,116.09595 L92.8350316,116.09595 Z M95.8666105,116.09595 L98.7041684,116.09595 C99.5772675,116.09595 100.264419,116.330848 100.765642,116.80065 C101.234529,117.254252 101.468968,117.857696 101.468968,118.611 C101.468968,119.299503 101.258781,119.850298 100.8384,120.2634 C100.51503,120.571202 100.139118,120.777749 99.7106526,120.88305 L102.196547,124.2 L99.9168,124.2 L97.7340632,121.00455 L97.7340632,124.2 L95.8666105,124.2 L95.8666105,116.09595 Z M97.7340632,117.55395 L97.7340632,119.7774 L98.1584842,119.7774 C98.667792,119.7774 99.039662,119.659951 99.2741053,119.42505 C99.4762115,119.222549 99.5772632,118.959302 99.5772632,118.6353 C99.5772632,118.278898 99.4519591,118.003501 99.2013474,117.8091 C98.9749883,117.638999 98.6314128,117.55395 98.1706105,117.55395 L97.7340632,117.55395 Z M108.781137,115.9137 C110.058448,115.9137 111.101301,116.306546 111.909726,117.09225 C112.750488,117.910354 113.170863,118.930944 113.170863,120.15405 C113.170863,121.360956 112.750488,122.373446 111.909726,123.19155 C111.093217,123.985354 110.050364,124.38225 108.781137,124.38225 C107.503825,124.38225 106.452888,123.985354 105.628295,123.19155 C105.232166,122.818948 104.922948,122.371428 104.700632,121.848975 C104.478315,121.326522 104.367158,120.769653 104.367158,120.17835 C104.367158,119.611347 104.482357,119.050428 104.712758,118.495575 C104.943159,117.940722 105.244293,117.477002 105.616168,117.1044 C106.408425,116.310596 107.463404,115.9137 108.781137,115.9137 L108.781137,115.9137 Z M108.769011,117.639 C108.049512,117.639 107.459371,117.869848 106.998568,118.33155 C106.521598,118.793252 106.283116,119.404796 106.283116,120.1662 C106.283116,120.895204 106.529682,121.502698 107.022821,121.9887 C107.491708,122.434202 108.069723,122.65695 108.756884,122.65695 C109.492551,122.65695 110.090777,122.426102 110.551579,121.9644 C111.020466,121.510798 111.254905,120.907354 111.254905,120.15405 C111.254905,119.408846 111.020466,118.801352 110.551579,118.33155 C110.074608,117.869848 109.480425,117.639 108.769011,117.639 L108.769011,117.639 Z" id="LEAGUE-HERO" fill="#FFFFFF" opacity="0.8"></path>
                <path d="M182.549558,120.15405 C182.549558,121.644457 182.16152,122.774396 181.385432,123.5439 C180.81145,124.102803 180.08792,124.38225 179.214821,124.38225 C178.35789,124.38225 177.642445,124.102803 177.068463,123.5439 C176.292375,122.774396 175.904337,121.644457 175.904337,120.15405 C175.904337,118.639342 176.292375,117.505354 177.068463,116.75205 C177.642445,116.193147 178.35789,115.9137 179.214821,115.9137 C180.08792,115.9137 180.81145,116.193147 181.385432,116.75205 C182.16152,117.505354 182.549558,118.639342 182.549558,120.15405 L182.549558,120.15405 Z M179.226947,117.5175 C178.935914,117.5175 178.685306,117.618749 178.475116,117.82125 C178.022398,118.266752 177.796042,119.040294 177.796042,120.1419 C177.796042,121.251606 178.022398,122.029198 178.475116,122.4747 C178.685306,122.677201 178.935914,122.77845 179.226947,122.77845 C179.51798,122.77845 179.768588,122.677201 179.978779,122.4747 C180.431497,122.029198 180.657853,121.251606 180.657853,120.1419 C180.657853,119.040294 180.431497,118.266752 179.978779,117.82125 C179.768588,117.618749 179.51798,117.5175 179.226947,117.5175 L179.226947,117.5175 Z M188.261053,124.38225 C187.953851,124.38225 187.701222,124.372125 187.503158,124.351875 C187.305094,124.331625 187.070654,124.268851 186.799832,124.16355 C186.529009,124.058249 186.280422,123.904351 186.054063,123.70185 C185.536671,123.232048 185.277979,122.644804 185.277979,121.9401 C185.277979,121.397397 185.459872,120.935702 185.823663,120.555 C186.090443,120.279599 186.425935,120.077101 186.830147,119.9475 C186.539114,119.825999 186.292548,119.659951 186.090442,119.44935 C185.758988,119.109148 185.593263,118.679853 185.593263,118.16145 C185.593263,117.553947 185.791324,117.051752 186.187453,116.65485 C186.672508,116.160748 187.371785,115.9137 188.285305,115.9137 C189.182657,115.9137 189.87385,116.160748 190.358905,116.65485 C190.755034,117.051752 190.953095,117.553947 190.953095,118.16145 C190.953095,118.679853 190.78737,119.109148 190.455916,119.44935 C190.25381,119.659951 190.007244,119.825999 189.716211,119.9475 C190.120423,120.077101 190.455914,120.279599 190.722695,120.555 C191.086486,120.935702 191.268379,121.397397 191.268379,121.9401 C191.268379,122.644804 191.009687,123.232048 190.492295,123.70185 C190.168925,123.993451 189.837475,124.17975 189.497937,124.26075 C189.158398,124.34175 188.746108,124.38225 188.261053,124.38225 L188.261053,124.38225 Z M188.273179,117.2988 C187.998314,117.2988 187.759833,117.387899 187.557726,117.5661 C187.35562,117.760501 187.254568,117.991349 187.254568,118.25865 C187.254568,118.534051 187.35562,118.764899 187.557726,118.9512 C187.759833,119.129401 187.998314,119.2185 188.273179,119.2185 C188.556128,119.2185 188.790567,119.129401 188.976505,118.9512 C189.178612,118.756799 189.279663,118.525951 189.279663,118.25865 C189.279663,117.991349 189.178612,117.756451 188.976505,117.55395 C188.782483,117.383849 188.548043,117.2988 188.273179,117.2988 L188.273179,117.2988 Z M188.248926,120.7008 C187.933641,120.7008 187.67899,120.797999 187.484968,120.9924 C187.274778,121.203001 187.169684,121.470298 187.169684,121.7943 C187.169684,122.134502 187.274778,122.405849 187.484968,122.60835 C187.687075,122.802751 187.949809,122.89995 188.273179,122.89995 C188.596549,122.89995 188.859283,122.802751 189.061389,122.60835 C189.27158,122.413949 189.376674,122.138552 189.376674,121.78215 C189.376674,121.450048 189.27158,121.186801 189.061389,120.9924 C188.867367,120.797999 188.596549,120.7008 188.248926,120.7008 L188.248926,120.7008 Z M193.608758,126.4356 L199.999326,115.09965 L201.3696,115.34265 L194.979032,126.6786 L193.608758,126.4356 Z M209.906526,122.6205 L209.906526,124.2 L203.722105,124.2 L206.147368,121.5513 C206.737519,120.887097 207.178104,120.336302 207.469137,119.8989 C207.792507,119.380497 207.954189,118.922852 207.954189,118.52595 C207.954189,118.185748 207.849096,117.918451 207.638905,117.72405 C207.469136,117.570149 207.22257,117.4932 206.8992,117.4932 C206.583914,117.4932 206.337348,117.590399 206.159495,117.7848 C205.933136,118.035901 205.819958,118.367998 205.819958,118.7811 L203.952505,118.7811 C204.025264,117.938696 204.304166,117.262353 204.789221,116.75205 C205.314697,116.193147 206.058437,115.9137 207.020463,115.9137 C207.885478,115.9137 208.584755,116.168847 209.118316,116.67915 C209.619539,117.181353 209.870147,117.829346 209.870147,118.62315 C209.870147,119.246853 209.668044,119.842197 209.263832,120.4092 C209.021304,120.749402 208.588803,121.215147 207.966316,121.80645 L207.117474,122.6205 L209.906526,122.6205 Z M219.183158,120.15405 C219.183158,121.644457 218.79512,122.774396 218.019032,123.5439 C217.44505,124.102803 216.72152,124.38225 215.848421,124.38225 C214.99149,124.38225 214.276045,124.102803 213.702063,123.5439 C212.925975,122.774396 212.537937,121.644457 212.537937,120.15405 C212.537937,118.639342 212.925975,117.505354 213.702063,116.75205 C214.276045,116.193147 214.99149,115.9137 215.848421,115.9137 C216.72152,115.9137 217.44505,116.193147 218.019032,116.75205 C218.79512,117.505354 219.183158,118.639342 219.183158,120.15405 L219.183158,120.15405 Z M215.860547,117.5175 C215.569514,117.5175 215.318906,117.618749 215.108716,117.82125 C214.655998,118.266752 214.429642,119.040294 214.429642,120.1419 C214.429642,121.251606 214.655998,122.029198 215.108716,122.4747 C215.318906,122.677201 215.569514,122.77845 215.860547,122.77845 C216.15158,122.77845 216.402188,122.677201 216.612379,122.4747 C217.065097,122.029198 217.291453,121.251606 217.291453,120.1419 C217.291453,119.040294 217.065097,118.266752 216.612379,117.82125 C216.402188,117.618749 216.15158,117.5175 215.860547,117.5175 L215.860547,117.5175 Z M223.063579,124.2 L223.063579,117.67545 L221.911579,117.67545 L221.911579,116.09595 L224.931032,116.09595 L224.931032,124.2 L223.063579,124.2 Z M231.430737,124.38225 L229.429895,124.1757 L231.564126,121.527 C231.297346,121.608 231.026528,121.6485 230.751663,121.6485 C229.894733,121.6485 229.215666,121.397403 228.714442,120.8952 C228.245556,120.425398 228.011116,119.773354 228.011116,118.93905 C228.011116,118.080446 228.27385,117.375753 228.799326,116.82495 C229.381392,116.217447 230.226184,115.9137 231.333726,115.9137 C232.360426,115.9137 233.168839,116.185047 233.758989,116.72775 C234.308719,117.246153 234.583579,117.930596 234.583579,118.7811 C234.583579,119.331903 234.462317,119.882697 234.219789,120.4335 C234.025767,120.862802 233.710486,121.364997 233.273937,121.9401 L231.430737,124.38225 Z M231.3216,117.4446 C230.933556,117.4446 230.610191,117.566099 230.351495,117.8091 C230.068546,118.068301 229.927074,118.408498 229.927074,118.8297 C229.927074,119.283302 230.064504,119.631599 230.339368,119.8746 C230.58998,120.101401 230.917387,120.2148 231.3216,120.2148 C231.717728,120.2148 232.045136,120.097351 232.303832,119.86245 C232.578696,119.603249 232.716126,119.246852 232.716126,118.79325 C232.716126,118.404448 232.578696,118.076401 232.303832,117.8091 C232.045136,117.566099 231.717728,117.4446 231.3216,117.4446 L231.3216,117.4446 Z" id="08/2019" fill="#FFFFFF" opacity="0.8"></path>
            </g>
        </g>
    </g>
</svg>