<?xml version="1.0" encoding="utf-8"?>
<!-- Generator: Adobe Illustrator 15.0.0, SVG Export Plug-In . SVG Version: 6.00 Build 0)  -->
<!DOCTYPE svg PUBLIC "-//W3C//DTD SVG 1.1//EN" "http://www.w3.org/Graphics/SVG/1.1/DTD/svg11.dtd">
<svg version="1.1" id="Layer_1" xmlns="http://www.w3.org/2000/svg" xmlns:xlink="http://www.w3.org/1999/xlink" x="0px" y="0px"
	 width="353.33px" height="385.979px" viewBox="0 0 353.33 385.979" enable-background="new 0 0 353.33 385.979"
	 xml:space="preserve">
<path opacity="0.06" enable-background="new    " d="M261.582,5H101.999c-26.95,0-48.873,21.922-48.873,48.871v301.205h1.995H308.46
	h1.994V53.871C310.455,26.922,288.531,5,261.582,5z"/>
<g>
	<g id="XMLID_1_">
		<g id="XMLID_2_">
			<g>
				<path fill="#FFFFFF" d="M194.743,38.898c2.205,0,3.99,1.785,3.99,3.987c0,2.205-1.785,3.99-3.99,3.99h-35.906
					c-2.204,0-3.99-1.785-3.99-3.99c0-2.202,1.786-3.987,3.99-3.987H194.743z"/>
				<circle fill="#FFFFFF" cx="129.413" cy="42.888" r="3.989"/>
				<path fill="#FFFFFF" d="M123.429,42.887c0,3.303,2.683,5.983,5.984,5.983c3.301,0,5.984-2.683,5.984-5.983
					s-2.684-5.984-5.984-5.984C126.112,36.902,123.429,39.586,123.429,42.887z M152.852,42.887c0,3.303,2.683,5.983,5.984,5.983
					h35.906c3.301,0,5.984-2.683,5.984-5.983s-2.683-5.984-5.984-5.984h-35.906C155.535,36.902,152.852,39.586,152.852,42.887z
					 M303.46,48.871v305.205h-16.957V78.793H67.075v275.283H50.12V48.871c0-25.853,21.025-46.877,46.878-46.877h159.583
					C282.436,1.994,303.46,23.02,303.46,48.871z"/>
				<path fill="#CCCCCC" d="M198.732,42.887c0-2.203-1.785-3.988-3.99-3.988h-35.906c-2.204,0-3.99,1.785-3.99,3.988
					c0,2.204,1.786,3.989,3.99,3.989h35.906C196.947,46.877,198.732,45.092,198.732,42.887z M194.743,36.902
					c3.301,0,5.984,2.685,5.984,5.983c0,3.304-2.683,5.984-5.984,5.984h-35.906c-3.301,0-5.984-2.683-5.984-5.984
					c0-3.301,2.683-5.983,5.984-5.983H194.743z"/>
				<path fill="#CCCCCC" d="M133.402,42.887c0-2.203-1.785-3.988-3.989-3.988s-3.99,1.785-3.99,3.988
					c0,2.204,1.786,3.989,3.99,3.989S133.402,45.092,133.402,42.887z M129.413,36.902c3.301,0,5.984,2.685,5.984,5.983
					c0,3.304-2.684,5.984-5.984,5.984c-3.301,0-5.984-2.683-5.984-5.984C123.429,39.586,126.112,36.902,129.413,36.902z"/>
				<path fill="#CCCCCC" d="M284.509,354.076V80.789H69.07v273.287H284.509z M303.46,354.076V48.871
					c0-25.853-21.024-46.877-46.879-46.877H96.998c-25.853,0-46.878,21.024-46.878,46.877v305.205h16.956V78.793h219.429v275.283
					H303.46z M305.455,354.076h47.875v1.993H0v-1.993h48.125V48.871C48.125,21.922,70.048,0,96.998,0h159.583
					c26.949,0,48.873,21.922,48.873,48.871V354.076z"/>
			</g>
		</g>
	</g>
	<rect x="69" y="80.816" fill="#FFFFFF" width="215" height="40"/>
	<rect x="69" y="120.816" fill="#6BC16F" width="215" height="4"/>
	<g>
		<rect x="248" y="90.816" fill="#44536A" width="24" height="4"/>
		<rect x="248" y="98.816" fill="#44536A" width="24" height="4"/>
		<rect x="248" y="106.816" fill="#44536A" width="24" height="4"/>
	</g>
</g>
<g>
	<path fill="#44536A" d="M81.397,108.561V94.289h3.889v10.938h4.835v3.334H81.397z"/>
	<path fill="#44536A" d="M92.012,108.561V94.289h8.745v3.129h-4.855v2.476h4.572v3.062h-4.572v2.407h4.855v3.198H92.012z"/>
	<path fill="#44536A" d="M101.634,108.561l4.666-14.271h4.875l4.932,14.271h-3.87l-0.721-2.554h-5.257l-0.758,2.554H101.634z
		 M107.083,103.229h3.87L109.5,98.52c-0.026-0.091-0.088-0.325-0.186-0.702l-0.302-1.219c-0.04,0.188-0.084,0.369-0.137,0.541
		c-0.052,0.172-0.09,0.327-0.117,0.463l-0.243,0.917L107.083,103.229z"/>
	<path fill="#44536A" d="M124.151,103.306v-2.992h7.642c0,0.026,0.003,0.077,0.01,0.151c0.006,0.075,0.01,0.131,0.01,0.17v0.517
		c0,2.437-0.65,4.341-1.95,5.712c-1.307,1.358-3.129,2.038-5.469,2.038c-1.131,0-2.157-0.172-3.08-0.517
		c-0.905-0.344-1.711-0.877-2.422-1.599c-0.678-0.676-1.202-1.481-1.574-2.417c-0.371-0.917-0.56-1.895-0.566-2.935
		c0-1.06,0.182-2.038,0.547-2.934c0.345-0.865,0.888-1.67,1.632-2.417c0.709-0.688,1.53-1.215,2.46-1.58
		c0.916-0.357,1.917-0.536,3.002-0.536c1.397,0,2.632,0.279,3.704,0.838c1.092,0.559,1.999,1.377,2.72,2.457l-3.373,1.618
		c-0.37-0.533-0.822-0.946-1.355-1.238c-0.481-0.267-1.046-0.4-1.696-0.4c-1.144,0-2.057,0.387-2.739,1.161
		c-0.675,0.786-1.013,1.849-1.013,3.187c0,1.372,0.338,2.444,1.013,3.217c0.676,0.773,1.589,1.161,2.739,1.161
		c0.988,0,1.81-0.241,2.466-0.722c0.65-0.468,1.037-1.114,1.16-1.94H124.151z"/>
	<path fill="#44536A" d="M134.075,94.289h3.889v6.941c0,1.079,0.026,1.813,0.078,2.203c0.065,0.481,0.153,0.851,0.263,1.111
		c0.143,0.357,0.399,0.637,0.768,0.838c0.357,0.188,0.811,0.283,1.362,0.283c0.571,0,1.021-0.095,1.353-0.283
		c0.357-0.202,0.616-0.481,0.779-0.838c0.103-0.267,0.188-0.637,0.252-1.111c0.052-0.384,0.081-1.118,0.087-2.203v-0.975v-5.966
		h3.89v7.545c0,1.547-0.094,2.703-0.283,3.47c-0.176,0.721-0.495,1.355-0.958,1.901c-0.482,0.585-1.156,1.017-2.022,1.296
		c-0.906,0.293-1.938,0.439-3.098,0.439c-1.183,0-2.218-0.146-3.102-0.439c-0.839-0.279-1.512-0.711-2.02-1.296
		c-0.441-0.52-0.761-1.154-0.956-1.901c-0.189-0.689-0.283-1.846-0.283-3.47v-1.482V94.289z"/>
	<path fill="#44536A" d="M149.71,108.561V94.289h8.744v3.129H153.6v2.476h4.571v3.062H153.6v2.407h4.854v3.198H149.71z"/>
	<path fill="#6BC16F" d="M161.262,108.561V94.289h1.199v5.781h7.779v-5.781h1.199v14.271h-1.199v-7.37h-7.779v7.37H161.262z"/>
	<path fill="#6BC16F" d="M175.153,108.561V94.289h7.067v1.121h-5.868v4.66h5.868v1.121h-5.868v6.249h5.868v1.121H175.153z"/>
	<path fill="#6BC16F" d="M194.054,108.561h-1.464l-5.125-6.804h-0.877v6.804h-1.199V94.289h2.59c1.521,0,2.665,0.315,3.428,0.947
		c0.765,0.63,1.146,1.601,1.146,2.908c0,1.115-0.318,1.997-0.956,2.642c-0.637,0.647-1.526,0.97-2.668,0.97L194.054,108.561z
		 M186.587,95.41v5.225h1.309c1.199,0,2.045-0.19,2.54-0.569c0.481-0.374,0.72-1.028,0.714-1.961c0-0.979-0.247-1.673-0.738-2.082
		c-0.491-0.409-1.331-0.613-2.516-0.613H186.587z"/>
	<path fill="#6BC16F" d="M210.499,101.454c0,1.001-0.191,1.959-0.575,2.875c-0.383,0.903-0.936,1.708-1.657,2.413
		c-0.721,0.705-1.553,1.253-2.495,1.643c-0.904,0.371-1.875,0.556-2.915,0.556c-1.04,0-2.011-0.185-2.915-0.556
		c-0.956-0.396-1.781-0.942-2.476-1.638c-0.734-0.734-1.286-1.547-1.657-2.437c-0.384-0.917-0.575-1.868-0.575-2.856
		c0-1.014,0.191-1.979,0.575-2.896c0.371-0.89,0.923-1.702,1.657-2.437c0.76-0.734,1.58-1.274,2.457-1.619
		c0.917-0.357,1.895-0.536,2.934-0.536c1.014,0,1.999,0.185,2.954,0.556c0.903,0.357,1.722,0.89,2.457,1.599
		c0.722,0.734,1.274,1.546,1.657,2.437C210.307,99.475,210.499,100.441,210.499,101.454z M202.856,107.82
		c0.865,0,1.664-0.153,2.398-0.461c0.76-0.32,1.439-0.781,2.037-1.383c0.584-0.588,1.037-1.279,1.354-2.069
		c0.319-0.779,0.479-1.597,0.479-2.453c0-0.896-0.153-1.713-0.458-2.453c-0.318-0.751-0.777-1.441-1.375-2.069
		c-0.585-0.588-1.257-1.043-2.018-1.363s-1.566-0.48-2.418-0.48c-0.864,0-1.664,0.16-2.398,0.48
		c-0.773,0.333-1.446,0.788-2.018,1.363c-0.598,0.628-1.056,1.318-1.375,2.069c-0.306,0.739-0.458,1.557-0.458,2.453
		s0.153,1.713,0.458,2.453c0.318,0.751,0.777,1.441,1.375,2.069c0.637,0.641,1.303,1.101,1.999,1.383
		C201.199,107.666,202.005,107.82,202.856,107.82z"/>
</g>
<rect x="79.325" y="138.99" fill="#FFFFFF" width="194.932" height="215.087"/>
<rect x="128.96" y="138.99" fill="#FAFAFA" width="57.857" height="26.186"/>
<rect x="79.325" y="164.195" fill="#DDDDDD" width="194.932" height="0.98"/>
<rect x="79.325" y="138.99" fill="#FFFFFF" width="50.243" height="29"/>
<text transform="matrix(1 0 0 1 94.5679 190.4895)" font-family="'FuturaBT-Bold'" font-size="12">Chicago Youth Soccer</text>
<text transform="matrix(1 0 0 1 89.9092 155.9758)" font-family="'FuturaBT-Book'" font-size="8">LEAGUE</text>
<text transform="matrix(1 0 0 1 137.9385 155.9758)" font-family="'FuturaBT-Book'" font-size="8">SCHEDULE</text>
<rect x="95.384" y="203.49" fill="#999999" width="41.554" height="5"/>
<rect x="104.446" y="234.49" fill="#999999" width="41.554" height="5"/>
<rect x="157.909" y="234.49" fill="#999999" width="41.554" height="5"/>
<rect x="229.568" y="234.49" fill="#999999" width="18.432" height="5"/>
<rect x="104.446" y="258.49" fill="#999999" width="41.554" height="5"/>
<rect x="157.909" y="258.49" fill="#999999" width="41.554" height="5"/>
<rect x="229.568" y="258.49" fill="#999999" width="18.432" height="5"/>
<rect x="104.446" y="282.49" fill="#999999" width="41.554" height="5"/>
<rect x="157.909" y="282.49" fill="#999999" width="41.554" height="5"/>
<rect x="229.568" y="282.49" fill="#999999" width="18.432" height="5"/>
<rect x="104.446" y="306.49" fill="#999999" width="41.554" height="5"/>
<rect x="157.909" y="306.49" fill="#999999" width="41.554" height="5"/>
<rect x="229.568" y="306.49" fill="#999999" width="18.432" height="5"/>
<rect x="149.71" y="203.49" fill="#999999" width="60.788" height="5"/>
<rect x="94.568" y="224.99" fill="none" stroke="#666666" stroke-miterlimit="10" width="162.5" height="24"/>
<rect x="94.568" y="248.99" fill="none" stroke="#666666" stroke-miterlimit="10" width="162.5" height="24"/>
<rect x="94.568" y="272.99" fill="none" stroke="#666666" stroke-miterlimit="10" width="162.5" height="24"/>
<rect x="94.568" y="296.99" fill="none" stroke="#666666" stroke-miterlimit="10" width="162.5" height="24"/>
</svg>
