<?xml version="1.0" encoding="UTF-8" standalone="no"?>
<svg width="256px" height="256px" viewBox="0 0 256 256" version="1.1" xmlns="http://www.w3.org/2000/svg" xmlns:xlink="http://www.w3.org/1999/xlink">
    <!-- Generator: Sketch 3.6.1 (26313) - http://www.bohemiancoding.com/sketch -->
    <title>Messaging</title>
    <desc>Created with Sketch.</desc>
    <defs></defs>
    <g id="Page-1" stroke="none" stroke-width="1" fill="none" fill-rule="evenodd">
        <g id="Messaging">
            <path d="M113.091923,146.972931 C105.73747,149.017915 97.8905433,150.122878 89.743168,150.122878 C47.9113714,150.122878 14,120.99388 14,85.0614392 C14,49.1289985 47.9113714,20 89.743168,20 C131.574965,20 165.486336,49.1289985 165.486336,85.0614392 C165.486336,101.024026 158.793989,115.643967 147.687913,126.963984 L166.239292,157 L113.091923,146.972931 Z" id="Combined-Shape-Copy" stroke="#44536A" stroke-width="10" transform="translate(90.119646, 88.500000) scale(-1, 1) translate(-90.119646, -88.500000) "></path>
            <path d="M198.04445,221.756198 C190.470865,223.862113 182.390133,225 174,225 C130.92179,225 96,195.003078 96,158 C96,120.996922 130.92179,91 174,91 C217.07821,91 252,120.996922 252,158 C252,174.438206 245.108248,189.49376 233.671258,201.151067 L252.775391,232.082031 L198.04445,221.756198 Z M133.5,175 C140.955844,175 147,168.955844 147,161.5 C147,154.044156 140.955844,148 133.5,148 C126.044156,148 120,154.044156 120,161.5 C120,168.955844 126.044156,175 133.5,175 Z M174.5,175 C181.955844,175 188,168.955844 188,161.5 C188,154.044156 181.955844,148 174.5,148 C167.044156,148 161,154.044156 161,161.5 C161,168.955844 167.044156,175 174.5,175 Z M214.5,175 C221.955844,175 228,168.955844 228,161.5 C228,154.044156 221.955844,148 214.5,148 C207.044156,148 201,154.044156 201,161.5 C201,168.955844 207.044156,175 214.5,175 Z" id="Combined-Shape" fill="#6BC16F"></path>
        </g>
    </g>
</svg>