<?xml version="1.0" encoding="UTF-8" standalone="no"?>
<svg width="620px" height="620px" viewBox="0 0 620 620" version="1.1" xmlns="http://www.w3.org/2000/svg" xmlns:xlink="http://www.w3.org/1999/xlink">
    <!-- Generator: Sketch 3.6.1 (26313) - http://www.bohemiancoding.com/sketch -->
    <title>League Pay</title>
    <desc>Created with Sketch.</desc>
    <defs></defs>
    <g id="Page-1" stroke="none" stroke-width="1" fill="none" fill-rule="evenodd">
        <g id="League-Pay">
            <g id="Group" transform="translate(-52.000000, -126.000000)">
                <path d="M480.729372,138.20563 L480.729372,162.229874 L504.78453,162.229874 L504.78453,186.265273 L528.802881,186.265273 L528.802881,210.232171 L552.788044,210.232171 L552.788044,234.447859 L576.959976,234.447859 L576.959976,258.323587 L601.02126,258.323587 L601.02126,282.450837 L624.975112,282.450837 L624.975112,306.412864 L648.986739,306.412864 L648.986739,330.411906 L673.02371,330.411906 L673.02371,354.459226 L697.104946,354.459226 L697.104946,378.485011 L721.182812,378.485011 L721.182812,402.502944 L737.491773,402.502944 C740.088694,402.502944 407.2346,732.507145 407.2346,732.507145 L137.204142,462.666461 L461.606224,138.513235 C467.982088,138.20563 480.729372,138.20563 480.729372,138.20563 Z" id="Path-975" fill-opacity="0.05" fill="#000000" transform="translate(437.355516, 435.356388) rotate(-225.000000) translate(-437.355516, -435.356388) "></path>
                <path d="M470.497274,125.937807 L470.497274,149.962051 L494.552432,149.962051 L494.552432,173.99745 L518.570782,173.99745 L518.570782,197.964348 L542.555946,197.964348 L542.555946,222.180036 L566.727878,222.180036 L566.727878,246.055764 L590.789162,246.055764 L590.789162,270.183014 L614.743014,270.183014 L614.743014,294.145041 L638.754641,294.145041 L638.754641,318.144083 L662.791612,318.144083 L662.791612,342.191404 L686.872848,342.191404 L686.872848,366.217188 L710.950714,366.217188 L710.950714,390.235121 L727.259675,390.235121 C729.856596,390.235121 393.466968,723.774856 393.466968,723.774856 L123.43651,453.934172 L451.374126,126.245412 C457.749989,125.937807 470.497274,125.937807 470.497274,125.937807 Z" id="Path-975" stroke="#DDDDDD" stroke-width="3" fill="#FFFFFF" transform="translate(425.355572, 424.856332) rotate(-225.000000) translate(-425.355572, -424.856332) "></path>
                <rect id="Rectangle-30-Copy-2" fill="#999999" x="280" y="535" width="290" height="9.0262302"></rect>
                <rect id="Rectangle-30-Copy" fill="#999999" x="280" y="508" width="290" height="9.0262302"></rect>
                <rect id="Rectangle-30-Copy-3" fill="#999999" x="280" y="562" width="203.77145" height="9.0262302"></rect>
                <path d="M281.824,246.992 L286.48,246.992 C287.472005,246.992 288.283997,247.075999 288.916,247.244 C289.548003,247.412001 290.143997,247.735998 290.704,248.216 C291.792005,249.176005 292.336,250.463992 292.336,252.08 C292.336,253.584008 291.896004,254.775996 291.016,255.656 C290.071995,256.600005 288.720009,257.072 286.96,257.072 L284.944,257.072 L284.944,263 L281.824,263 L281.824,246.992 Z M284.944,249.68 L284.944,254.384 L286.216,254.384 C287.128005,254.384 287.807998,254.216002 288.256,253.88 C288.832003,253.431998 289.12,252.808004 289.12,252.008 C289.12,251.223996 288.824003,250.616002 288.232,250.184 C287.751998,249.847998 287.016005,249.68 286.024,249.68 L284.944,249.68 Z M302.176,253.952 L302.176,252.608 L305.104,252.608 L305.104,263 L302.176,263 L302.176,261.656 C301.391996,262.776006 300.328007,263.336 298.984,263.336 C297.415992,263.336 296.140005,262.800005 295.156,261.728 C294.171995,260.655995 293.68,259.344008 293.68,257.792 C293.68,256.223992 294.159995,254.912005 295.12,253.856 C296.080005,252.799995 297.319992,252.272 298.84,252.272 C300.344008,252.272 301.455996,252.831994 302.176,253.952 L302.176,253.952 Z M299.584,254.864 C298.751996,254.864 298.064003,255.143997 297.52,255.704 C296.975997,256.264003 296.704,256.959996 296.704,257.792 C296.704,258.624004 296.975997,259.323997 297.52,259.892 C298.064003,260.460003 298.751996,260.744 299.584,260.744 C300.416004,260.744 301.103997,260.460003 301.648,259.892 C302.192003,259.323997 302.464,258.624004 302.464,257.792 C302.464,256.959996 302.192003,256.264003 301.648,255.704 C301.103997,255.143997 300.416004,254.864 299.584,254.864 L299.584,254.864 Z M307.672,268.496 L311.488,261.44 L306.544,252.608 L309.952,252.608 L313.168,258.512 L316.048,252.608 L319.36,252.608 L310.984,268.496 L307.672,268.496 Z M326.824,246.992 L329.944,246.992 L329.944,260.312 L334.888,260.312 L334.888,263 L326.824,263 L326.824,246.992 Z M344.128,259.664 L346.816,260.096 C346.703999,260.384001 346.556001,260.667999 346.372,260.948 C346.187999,261.228001 345.904002,261.571998 345.52,261.98 C345.135998,262.388002 344.616003,262.715999 343.96,262.964 C343.303997,263.212001 342.552004,263.336 341.704,263.336 C340.071992,263.336 338.744005,262.848005 337.72,261.872 C336.631995,260.847995 336.088,259.496008 336.088,257.816 C336.088,256.151992 336.615995,254.792005 337.672,253.736 C338.664005,252.759995 339.967992,252.272 341.584,252.272 C343.344009,252.272 344.695995,252.839994 345.64,253.976 C346.472004,254.968005 346.888,256.327991 346.888,258.056 L346.888,258.296 L339.112,258.296 C339.112,259.000004 339.279998,259.583998 339.616,260.048 C340.096002,260.704003 340.791995,261.032 341.704,261.032 C342.792005,261.032 343.599997,260.576005 344.128,259.664 L344.128,259.664 Z M339.208,256.424 L344.128,256.424 C344.015999,255.751997 343.724002,255.236002 343.252,254.876 C342.779998,254.515998 342.248003,254.336 341.656,254.336 C341.079997,254.336 340.556002,254.519998 340.084,254.888 C339.611998,255.256002 339.320001,255.767997 339.208,256.424 L339.208,256.424 Z M357.112,253.952 L357.112,252.608 L360.04,252.608 L360.04,263 L357.112,263 L357.112,261.656 C356.327996,262.776006 355.264007,263.336 353.92,263.336 C352.351992,263.336 351.076005,262.800005 350.092,261.728 C349.107995,260.655995 348.616,259.344008 348.616,257.792 C348.616,256.223992 349.095995,254.912005 350.056,253.856 C351.016005,252.799995 352.255992,252.272 353.776,252.272 C355.280008,252.272 356.391996,252.831994 357.112,253.952 L357.112,253.952 Z M354.52,254.864 C353.687996,254.864 353.000003,255.143997 352.456,255.704 C351.911997,256.264003 351.64,256.959996 351.64,257.792 C351.64,258.624004 351.911997,259.323997 352.456,259.892 C353.000003,260.460003 353.687996,260.744 354.52,260.744 C355.352004,260.744 356.039997,260.460003 356.584,259.892 C357.128003,259.323997 357.4,258.624004 357.4,257.792 C357.4,256.959996 357.128003,256.264003 356.584,255.704 C356.039997,255.143997 355.352004,254.864 354.52,254.864 L354.52,254.864 Z M370.744,253.952 L370.744,252.608 L373.672,252.608 L373.672,262.52 C373.672,263.496005 373.580001,264.347996 373.396,265.076 C373.211999,265.804004 372.824003,266.463997 372.232,267.056 C371.255995,268.032005 369.888009,268.52 368.128,268.52 C366.431992,268.52 365.136004,268.120004 364.24,267.32 C363.391996,266.599996 362.832001,265.568007 362.56,264.224 L365.728,264.224 C365.856001,264.752003 366.095998,265.167998 366.448,265.472 C366.848002,265.840002 367.439996,266.024 368.224,266.024 C368.944004,266.024 369.535998,265.808002 370,265.376 C370.496002,264.895998 370.744,264.128005 370.744,263.072 L370.744,261.608 C369.991996,262.760006 368.928007,263.336 367.552,263.336 C366.111993,263.336 364.912005,262.864005 363.952,261.92 C362.847994,260.815994 362.296,259.440008 362.296,257.792 C362.296,256.079991 362.831995,254.704005 363.904,253.664 C364.864005,252.735995 366.055993,252.272 367.48,252.272 C368.920007,252.272 370.007996,252.831994 370.744,253.952 L370.744,253.952 Z M368.2,254.864 C367.415996,254.864 366.768003,255.103998 366.256,255.584 C365.631997,256.144003 365.32,256.879995 365.32,257.792 C365.32,258.608004 365.575997,259.287997 366.088,259.832 C366.648003,260.440003 367.351996,260.744 368.2,260.744 C368.968004,260.744 369.615997,260.504002 370.144,260.024 C370.768003,259.447997 371.08,258.704005 371.08,257.792 C371.08,256.991996 370.800003,256.296003 370.24,255.704 C369.695997,255.143997 369.016004,254.864 368.2,254.864 L368.2,254.864 Z M376.456,252.608 L379.384,252.608 L379.384,258.488 C379.384,259.320004 379.591998,259.927998 380.008,260.312 C380.408002,260.664002 380.903997,260.84 381.496,260.84 C382.088003,260.84 382.583998,260.664002 382.984,260.312 C383.400002,259.927998 383.608,259.320004 383.608,258.488 L383.608,252.608 L386.536,252.608 L386.536,258.968 C386.536,260.360007 386.112004,261.423996 385.264,262.16 C384.367996,262.944004 383.112008,263.336 381.496,263.336 C379.879992,263.336 378.624004,262.944004 377.728,262.16 C376.879996,261.423996 376.456,260.360007 376.456,258.968 L376.456,252.608 Z M396.832,259.664 L399.52,260.096 C399.407999,260.384001 399.260001,260.667999 399.076,260.948 C398.891999,261.228001 398.608002,261.571998 398.224,261.98 C397.839998,262.388002 397.320003,262.715999 396.664,262.964 C396.007997,263.212001 395.256004,263.336 394.408,263.336 C392.775992,263.336 391.448005,262.848005 390.424,261.872 C389.335995,260.847995 388.792,259.496008 388.792,257.816 C388.792,256.151992 389.319995,254.792005 390.376,253.736 C391.368005,252.759995 392.671992,252.272 394.288,252.272 C396.048009,252.272 397.399995,252.839994 398.344,253.976 C399.176004,254.968005 399.592,256.327991 399.592,258.056 L399.592,258.296 L391.816,258.296 C391.816,259.000004 391.983998,259.583998 392.32,260.048 C392.800002,260.704003 393.495995,261.032 394.408,261.032 C395.496005,261.032 396.303997,260.576005 396.832,259.664 L396.832,259.664 Z M391.912,256.424 L396.832,256.424 C396.719999,255.751997 396.428002,255.236002 395.956,254.876 C395.483998,254.515998 394.952003,254.336 394.36,254.336 C393.783997,254.336 393.260002,254.519998 392.788,254.888 C392.315998,255.256002 392.024001,255.767997 391.912,256.424 L391.912,256.424 Z M416.368,246.992 L416.368,249.68 L410.992,249.68 L410.992,253.256 L416.032,253.256 L416.032,255.944 L410.992,255.944 L410.992,263 L407.872,263 L407.872,246.992 L416.368,246.992 Z M426.136,259.664 L428.824,260.096 C428.711999,260.384001 428.564001,260.667999 428.38,260.948 C428.195999,261.228001 427.912002,261.571998 427.528,261.98 C427.143998,262.388002 426.624003,262.715999 425.968,262.964 C425.311997,263.212001 424.560004,263.336 423.712,263.336 C422.079992,263.336 420.752005,262.848005 419.728,261.872 C418.639995,260.847995 418.096,259.496008 418.096,257.816 C418.096,256.151992 418.623995,254.792005 419.68,253.736 C420.672005,252.759995 421.975992,252.272 423.592,252.272 C425.352009,252.272 426.703995,252.839994 427.648,253.976 C428.480004,254.968005 428.896,256.327991 428.896,258.056 L428.896,258.296 L421.12,258.296 C421.12,259.000004 421.287998,259.583998 421.624,260.048 C422.104002,260.704003 422.799995,261.032 423.712,261.032 C424.800005,261.032 425.607997,260.576005 426.136,259.664 L426.136,259.664 Z M421.216,256.424 L426.136,256.424 C426.023999,255.751997 425.732002,255.236002 425.26,254.876 C424.787998,254.515998 424.256003,254.336 423.664,254.336 C423.087997,254.336 422.564002,254.519998 422.092,254.888 C421.619998,255.256002 421.328001,255.767997 421.216,256.424 L421.216,256.424 Z M438.664,259.664 L441.352,260.096 C441.239999,260.384001 441.092001,260.667999 440.908,260.948 C440.723999,261.228001 440.440002,261.571998 440.056,261.98 C439.671998,262.388002 439.152003,262.715999 438.496,262.964 C437.839997,263.212001 437.088004,263.336 436.24,263.336 C434.607992,263.336 433.280005,262.848005 432.256,261.872 C431.167995,260.847995 430.624,259.496008 430.624,257.816 C430.624,256.151992 431.151995,254.792005 432.208,253.736 C433.200005,252.759995 434.503992,252.272 436.12,252.272 C437.880009,252.272 439.231995,252.839994 440.176,253.976 C441.008004,254.968005 441.424,256.327991 441.424,258.056 L441.424,258.296 L433.648,258.296 C433.648,259.000004 433.815998,259.583998 434.152,260.048 C434.632002,260.704003 435.327995,261.032 436.24,261.032 C437.328005,261.032 438.135997,260.576005 438.664,259.664 L438.664,259.664 Z M433.744,256.424 L438.664,256.424 C438.551999,255.751997 438.260002,255.236002 437.788,254.876 C437.315998,254.515998 436.784003,254.336 436.192,254.336 C435.615997,254.336 435.092002,254.519998 434.62,254.888 C434.147998,255.256002 433.856001,255.767997 433.744,256.424 L433.744,256.424 Z" id="Pay-League-Fee" fill="#68C26B"></path>
                <path d="M407.88,328.28 L407.88,395.32 L420.68,395.32 L420.68,414.84 L407.88,414.84 L407.88,435 L384.2,435 L384.2,414.84 L332.04,414.84 L332.04,400.76 L379.08,328.28 L407.88,328.28 Z M357.96,395.32 L384.2,395.32 L384.2,353.88 L357.96,395.32 Z M503.88,328.28 L503.88,349.08 L467.88,349.08 L465,363.32 C467.986682,362.786664 470.919986,362.52 473.8,362.52 C485.21339,362.52 494.279966,365.986632 501,372.92 C507.506699,379.426699 510.76,388.01328 510.76,398.68 C510.76,409.773389 507.13337,418.94663 499.88,426.2 C492.306629,433.666704 481.533403,437.4 467.56,437.4 C453.906598,437.4 442.066717,433.506706 432.04,425.72 L437.64,402.84 C440.946683,406.573352 444.359982,409.506656 447.88,411.64 C452.680024,414.733349 458.066637,416.28 464.04,416.28 C470.546699,416.28 475.613315,414.840014 479.24,411.96 C483.400021,408.759984 485.48,404.280029 485.48,398.52 C485.48,393.399974 483.666685,389.240016 480.04,386.04 C475.773312,382.306648 469.853371,380.44 462.28,380.44 C454.599962,380.44 447.346701,382.306648 440.52,386.04 L451.4,328.28 L503.88,328.28 Z" id="45" fill="#44536A"></path>
                <path d="M332.624,328.8 L336.944,328.8 L336.944,333.648 C339.568013,333.840001 341.999989,334.863991 344.24,336.72 L341.024,341.856 C339.359992,340.351992 337.616009,339.6 335.792,339.6 C334.447993,339.6 333.440003,339.903997 332.768,340.512 C332.127997,341.088003 331.808,341.759996 331.808,342.528 C331.808,343.264004 332.111997,343.887997 332.72,344.4 C332.944001,344.624001 334.01599,345.151996 335.936,345.984 L338.624,347.136 C340.736011,348.064005 342.239996,348.975996 343.136,349.872 C344.640008,351.408008 345.392,353.375988 345.392,355.776 C345.392,358.688015 344.512009,361.071991 342.752,362.928 C341.247992,364.528008 339.312012,365.519998 336.944,365.904 L336.944,371.376 L332.624,371.376 L332.624,366.096 C330.60799,366 328.688009,365.472005 326.864,364.512 C325.167992,363.615996 323.728006,362.528006 322.544,361.248 L326.096,355.968 C327.120005,356.992005 328.159995,357.823997 329.216,358.464 C330.624007,359.328004 332.111992,359.76 333.68,359.76 C335.024007,359.76 336.095996,359.424003 336.896,358.752 C337.664004,358.111997 338.048,357.296005 338.048,356.304 C338.048,355.247995 337.568005,354.384003 336.608,353.712 C336.255998,353.487999 335.152009,353.008004 333.296,352.272 L331.616,351.6 C329.471989,350.735996 327.856005,349.760005 326.768,348.672 C325.327993,347.199993 324.608,345.44001 324.608,343.392 C324.608,340.479985 325.519991,338.112009 327.344,336.288 C328.752007,334.879993 330.511989,334.000002 332.624,333.648 L332.624,328.8 Z" id="Type-something" fill="#44536A"></path>
            </g>
            <g id="Group-5" transform="translate(20.000000, 344.000000)">
                <g id="Group-2">
                    <rect id="Rectangle-5" fill-opacity="0.05" fill="#000000" x="16" y="16" width="380" height="240" rx="20"></rect>
                    <rect id="Rectangle-5" fill="#44536A" x="0" y="0" width="380" height="240" rx="8"></rect>
                    <rect id="Rectangle-13-Copy-4" fill="#68C26B" x="32" y="32" width="64" height="32" rx="8"></rect>
                </g>
                <path d="M42.818,116.658 L42.818,120.038 L36.968,120.038 L36.5,122.352 C36.9853358,122.265333 37.4619977,122.222 37.93,122.222 C39.7846759,122.222 41.2579945,122.785328 42.35,123.912 C43.4073386,124.969339 43.936,126.364658 43.936,128.098 C43.936,129.900676 43.3466726,131.391327 42.168,132.57 C40.9373272,133.783339 39.186678,134.39 36.916,134.39 C34.6973222,134.39 32.7733415,133.75734 31.144,132.492 L32.054,128.774 C32.591336,129.38067 33.1459971,129.857332 33.718,130.204 C34.4980039,130.706669 35.3733285,130.958 36.344,130.958 C37.4013386,130.958 38.2246637,130.724002 38.814,130.256 C39.4900034,129.735997 39.828,129.008005 39.828,128.072 C39.828,127.239996 39.5333363,126.564003 38.944,126.044 C38.2506632,125.43733 37.2886728,125.134 36.058,125.134 C34.8099938,125.134 33.6313389,125.43733 32.522,126.044 L34.29,116.658 L42.818,116.658 Z M61.122,116.658 L61.122,120.038 L55.272,120.038 L54.804,122.352 C55.2893358,122.265333 55.7659977,122.222 56.234,122.222 C58.0886759,122.222 59.5619945,122.785328 60.654,123.912 C61.7113386,124.969339 62.24,126.364658 62.24,128.098 C62.24,129.900676 61.6506726,131.391327 60.472,132.57 C59.2413272,133.783339 57.490678,134.39 55.22,134.39 C53.0013222,134.39 51.0773415,133.75734 49.448,132.492 L50.358,128.774 C50.895336,129.38067 51.4499971,129.857332 52.022,130.204 C52.8020039,130.706669 53.6773285,130.958 54.648,130.958 C55.7053386,130.958 56.5286637,130.724002 57.118,130.256 C57.7940034,129.735997 58.132,129.008005 58.132,128.072 C58.132,127.239996 57.8373363,126.564003 57.248,126.044 C56.5546632,125.43733 55.5926728,125.134 54.362,125.134 C53.1139938,125.134 51.9353389,125.43733 50.826,126.044 L52.594,116.658 L61.122,116.658 Z M79.426,116.658 L79.426,120.038 L73.576,120.038 L73.108,122.352 C73.5933358,122.265333 74.0699977,122.222 74.538,122.222 C76.3926759,122.222 77.8659945,122.785328 78.958,123.912 C80.0153386,124.969339 80.544,126.364658 80.544,128.098 C80.544,129.900676 79.9546726,131.391327 78.776,132.57 C77.5453272,133.783339 75.794678,134.39 73.524,134.39 C71.3053222,134.39 69.3813415,133.75734 67.752,132.492 L68.662,128.774 C69.199336,129.38067 69.7539971,129.857332 70.326,130.204 C71.1060039,130.706669 71.9813285,130.958 72.952,130.958 C74.0093386,130.958 74.8326637,130.724002 75.422,130.256 C76.0980034,129.735997 76.436,129.008005 76.436,128.072 C76.436,127.239996 76.1413363,126.564003 75.552,126.044 C74.8586632,125.43733 73.8966728,125.134 72.666,125.134 C71.4179938,125.134 70.2393389,125.43733 69.13,126.044 L70.898,116.658 L79.426,116.658 Z M97.73,116.658 L97.73,120.038 L91.88,120.038 L91.412,122.352 C91.8973358,122.265333 92.3739977,122.222 92.842,122.222 C94.6966759,122.222 96.1699945,122.785328 97.262,123.912 C98.3193386,124.969339 98.848,126.364658 98.848,128.098 C98.848,129.900676 98.2586726,131.391327 97.08,132.57 C95.8493272,133.783339 94.098678,134.39 91.828,134.39 C89.6093222,134.39 87.6853415,133.75734 86.056,132.492 L86.966,128.774 C87.503336,129.38067 88.0579971,129.857332 88.63,130.204 C89.4100039,130.706669 90.2853285,130.958 91.256,130.958 C92.3133386,130.958 93.1366637,130.724002 93.726,130.256 C94.4020034,129.735997 94.74,129.008005 94.74,128.072 C94.74,127.239996 94.4453363,126.564003 93.856,126.044 C93.1626632,125.43733 92.2006728,125.134 90.97,125.134 C89.7219938,125.134 88.5433389,125.43733 87.434,126.044 L89.202,116.658 L97.73,116.658 Z M125.888,116.658 L125.888,120.038 L120.038,120.038 L119.57,122.352 C120.055336,122.265333 120.531998,122.222 121,122.222 C122.854676,122.222 124.327995,122.785328 125.42,123.912 C126.477339,124.969339 127.006,126.364658 127.006,128.098 C127.006,129.900676 126.416673,131.391327 125.238,132.57 C124.007327,133.783339 122.256678,134.39 119.986,134.39 C117.767322,134.39 115.843341,133.75734 114.214,132.492 L115.124,128.774 C115.661336,129.38067 116.215997,129.857332 116.788,130.204 C117.568004,130.706669 118.443328,130.958 119.414,130.958 C120.471339,130.958 121.294664,130.724002 121.884,130.256 C122.560003,129.735997 122.898,129.008005 122.898,128.072 C122.898,127.239996 122.603336,126.564003 122.014,126.044 C121.320663,125.43733 120.358673,125.134 119.128,125.134 C117.879994,125.134 116.701339,125.43733 115.592,126.044 L117.36,116.658 L125.888,116.658 Z M144.192,116.658 L144.192,120.038 L138.342,120.038 L137.874,122.352 C138.359336,122.265333 138.835998,122.222 139.304,122.222 C141.158676,122.222 142.631995,122.785328 143.724,123.912 C144.781339,124.969339 145.31,126.364658 145.31,128.098 C145.31,129.900676 144.720673,131.391327 143.542,132.57 C142.311327,133.783339 140.560678,134.39 138.29,134.39 C136.071322,134.39 134.147341,133.75734 132.518,132.492 L133.428,128.774 C133.965336,129.38067 134.519997,129.857332 135.092,130.204 C135.872004,130.706669 136.747328,130.958 137.718,130.958 C138.775339,130.958 139.598664,130.724002 140.188,130.256 C140.864003,129.735997 141.202,129.008005 141.202,128.072 C141.202,127.239996 140.907336,126.564003 140.318,126.044 C139.624663,125.43733 138.662673,125.134 137.432,125.134 C136.183994,125.134 135.005339,125.43733 133.896,126.044 L135.664,116.658 L144.192,116.658 Z M162.496,116.658 L162.496,120.038 L156.646,120.038 L156.178,122.352 C156.663336,122.265333 157.139998,122.222 157.608,122.222 C159.462676,122.222 160.935995,122.785328 162.028,123.912 C163.085339,124.969339 163.614,126.364658 163.614,128.098 C163.614,129.900676 163.024673,131.391327 161.846,132.57 C160.615327,133.783339 158.864678,134.39 156.594,134.39 C154.375322,134.39 152.451341,133.75734 150.822,132.492 L151.732,128.774 C152.269336,129.38067 152.823997,129.857332 153.396,130.204 C154.176004,130.706669 155.051328,130.958 156.022,130.958 C157.079339,130.958 157.902664,130.724002 158.492,130.256 C159.168003,129.735997 159.506,129.008005 159.506,128.072 C159.506,127.239996 159.211336,126.564003 158.622,126.044 C157.928663,125.43733 156.966673,125.134 155.736,125.134 C154.487994,125.134 153.309339,125.43733 152.2,126.044 L153.968,116.658 L162.496,116.658 Z M180.8,116.658 L180.8,120.038 L174.95,120.038 L174.482,122.352 C174.967336,122.265333 175.443998,122.222 175.912,122.222 C177.766676,122.222 179.239995,122.785328 180.332,123.912 C181.389339,124.969339 181.918,126.364658 181.918,128.098 C181.918,129.900676 181.328673,131.391327 180.15,132.57 C178.919327,133.783339 177.168678,134.39 174.898,134.39 C172.679322,134.39 170.755341,133.75734 169.126,132.492 L170.036,128.774 C170.573336,129.38067 171.127997,129.857332 171.7,130.204 C172.480004,130.706669 173.355328,130.958 174.326,130.958 C175.383339,130.958 176.206664,130.724002 176.796,130.256 C177.472003,129.735997 177.81,129.008005 177.81,128.072 C177.81,127.239996 177.515336,126.564003 176.926,126.044 C176.232663,125.43733 175.270673,125.134 174.04,125.134 C172.791994,125.134 171.613339,125.43733 170.504,126.044 L172.272,116.658 L180.8,116.658 Z M208.958,116.658 L208.958,120.038 L203.108,120.038 L202.64,122.352 C203.125336,122.265333 203.601998,122.222 204.07,122.222 C205.924676,122.222 207.397995,122.785328 208.49,123.912 C209.547339,124.969339 210.076,126.364658 210.076,128.098 C210.076,129.900676 209.486673,131.391327 208.308,132.57 C207.077327,133.783339 205.326678,134.39 203.056,134.39 C200.837322,134.39 198.913341,133.75734 197.284,132.492 L198.194,128.774 C198.731336,129.38067 199.285997,129.857332 199.858,130.204 C200.638004,130.706669 201.513328,130.958 202.484,130.958 C203.541339,130.958 204.364664,130.724002 204.954,130.256 C205.630003,129.735997 205.968,129.008005 205.968,128.072 C205.968,127.239996 205.673336,126.564003 205.084,126.044 C204.390663,125.43733 203.428673,125.134 202.198,125.134 C200.949994,125.134 199.771339,125.43733 198.662,126.044 L200.43,116.658 L208.958,116.658 Z M227.262,116.658 L227.262,120.038 L221.412,120.038 L220.944,122.352 C221.429336,122.265333 221.905998,122.222 222.374,122.222 C224.228676,122.222 225.701995,122.785328 226.794,123.912 C227.851339,124.969339 228.38,126.364658 228.38,128.098 C228.38,129.900676 227.790673,131.391327 226.612,132.57 C225.381327,133.783339 223.630678,134.39 221.36,134.39 C219.141322,134.39 217.217341,133.75734 215.588,132.492 L216.498,128.774 C217.035336,129.38067 217.589997,129.857332 218.162,130.204 C218.942004,130.706669 219.817328,130.958 220.788,130.958 C221.845339,130.958 222.668664,130.724002 223.258,130.256 C223.934003,129.735997 224.272,129.008005 224.272,128.072 C224.272,127.239996 223.977336,126.564003 223.388,126.044 C222.694663,125.43733 221.732673,125.134 220.502,125.134 C219.253994,125.134 218.075339,125.43733 216.966,126.044 L218.734,116.658 L227.262,116.658 Z M245.566,116.658 L245.566,120.038 L239.716,120.038 L239.248,122.352 C239.733336,122.265333 240.209998,122.222 240.678,122.222 C242.532676,122.222 244.005995,122.785328 245.098,123.912 C246.155339,124.969339 246.684,126.364658 246.684,128.098 C246.684,129.900676 246.094673,131.391327 244.916,132.57 C243.685327,133.783339 241.934678,134.39 239.664,134.39 C237.445322,134.39 235.521341,133.75734 233.892,132.492 L234.802,128.774 C235.339336,129.38067 235.893997,129.857332 236.466,130.204 C237.246004,130.706669 238.121328,130.958 239.092,130.958 C240.149339,130.958 240.972664,130.724002 241.562,130.256 C242.238003,129.735997 242.576,129.008005 242.576,128.072 C242.576,127.239996 242.281336,126.564003 241.692,126.044 C240.998663,125.43733 240.036673,125.134 238.806,125.134 C237.557994,125.134 236.379339,125.43733 235.27,126.044 L237.038,116.658 L245.566,116.658 Z M263.87,116.658 L263.87,120.038 L258.02,120.038 L257.552,122.352 C258.037336,122.265333 258.513998,122.222 258.982,122.222 C260.836676,122.222 262.309995,122.785328 263.402,123.912 C264.459339,124.969339 264.988,126.364658 264.988,128.098 C264.988,129.900676 264.398673,131.391327 263.22,132.57 C261.989327,133.783339 260.238678,134.39 257.968,134.39 C255.749322,134.39 253.825341,133.75734 252.196,132.492 L253.106,128.774 C253.643336,129.38067 254.197997,129.857332 254.77,130.204 C255.550004,130.706669 256.425328,130.958 257.396,130.958 C258.453339,130.958 259.276664,130.724002 259.866,130.256 C260.542003,129.735997 260.88,129.008005 260.88,128.072 C260.88,127.239996 260.585336,126.564003 259.996,126.044 C259.302663,125.43733 258.340673,125.134 257.11,125.134 C255.861994,125.134 254.683339,125.43733 253.574,126.044 L255.342,116.658 L263.87,116.658 Z M292.028,116.658 L292.028,120.038 L286.178,120.038 L285.71,122.352 C286.195336,122.265333 286.671998,122.222 287.14,122.222 C288.994676,122.222 290.467995,122.785328 291.56,123.912 C292.617339,124.969339 293.146,126.364658 293.146,128.098 C293.146,129.900676 292.556673,131.391327 291.378,132.57 C290.147327,133.783339 288.396678,134.39 286.126,134.39 C283.907322,134.39 281.983341,133.75734 280.354,132.492 L281.264,128.774 C281.801336,129.38067 282.355997,129.857332 282.928,130.204 C283.708004,130.706669 284.583328,130.958 285.554,130.958 C286.611339,130.958 287.434664,130.724002 288.024,130.256 C288.700003,129.735997 289.038,129.008005 289.038,128.072 C289.038,127.239996 288.743336,126.564003 288.154,126.044 C287.460663,125.43733 286.498673,125.134 285.268,125.134 C284.019994,125.134 282.841339,125.43733 281.732,126.044 L283.5,116.658 L292.028,116.658 Z M310.332,116.658 L310.332,120.038 L304.482,120.038 L304.014,122.352 C304.499336,122.265333 304.975998,122.222 305.444,122.222 C307.298676,122.222 308.771995,122.785328 309.864,123.912 C310.921339,124.969339 311.45,126.364658 311.45,128.098 C311.45,129.900676 310.860673,131.391327 309.682,132.57 C308.451327,133.783339 306.700678,134.39 304.43,134.39 C302.211322,134.39 300.287341,133.75734 298.658,132.492 L299.568,128.774 C300.105336,129.38067 300.659997,129.857332 301.232,130.204 C302.012004,130.706669 302.887328,130.958 303.858,130.958 C304.915339,130.958 305.738664,130.724002 306.328,130.256 C307.004003,129.735997 307.342,129.008005 307.342,128.072 C307.342,127.239996 307.047336,126.564003 306.458,126.044 C305.764663,125.43733 304.802673,125.134 303.572,125.134 C302.323994,125.134 301.145339,125.43733 300.036,126.044 L301.804,116.658 L310.332,116.658 Z M328.636,116.658 L328.636,120.038 L322.786,120.038 L322.318,122.352 C322.803336,122.265333 323.279998,122.222 323.748,122.222 C325.602676,122.222 327.075995,122.785328 328.168,123.912 C329.225339,124.969339 329.754,126.364658 329.754,128.098 C329.754,129.900676 329.164673,131.391327 327.986,132.57 C326.755327,133.783339 325.004678,134.39 322.734,134.39 C320.515322,134.39 318.591341,133.75734 316.962,132.492 L317.872,128.774 C318.409336,129.38067 318.963997,129.857332 319.536,130.204 C320.316004,130.706669 321.191328,130.958 322.162,130.958 C323.219339,130.958 324.042664,130.724002 324.632,130.256 C325.308003,129.735997 325.646,129.008005 325.646,128.072 C325.646,127.239996 325.351336,126.564003 324.762,126.044 C324.068663,125.43733 323.106673,125.134 321.876,125.134 C320.627994,125.134 319.449339,125.43733 318.34,126.044 L320.108,116.658 L328.636,116.658 Z M342.442,134.39 C341.78333,134.39 341.241669,134.368334 340.817,134.325 C340.392331,134.281666 339.88967,134.147334 339.309,133.922 C338.72833,133.696666 338.195336,133.367336 337.71,132.934 C336.600661,131.928662 336.046,130.672008 336.046,129.164 C336.046,128.002661 336.435996,127.014671 337.216,126.2 C337.788003,125.610664 338.507329,125.177335 339.374,124.9 C338.749997,124.639999 338.221335,124.284669 337.788,123.834 C337.07733,123.105996 336.722,122.187339 336.722,121.078 C336.722,119.777994 337.146662,118.703338 337.996,117.854 C339.036005,116.796661 340.535324,116.268 342.494,116.268 C344.41801,116.268 345.899995,116.796661 346.94,117.854 C347.789338,118.703338 348.214,119.777994 348.214,121.078 C348.214,122.187339 347.85867,123.105996 347.148,123.834 C346.714664,124.284669 346.186003,124.639999 345.562,124.9 C346.428671,125.177335 347.147997,125.610664 347.72,126.2 C348.500004,127.014671 348.89,128.002661 348.89,129.164 C348.89,130.672008 348.335339,131.928662 347.226,132.934 C346.532663,133.558003 345.822004,133.956666 345.094,134.13 C344.365996,134.303334 343.482005,134.39 342.442,134.39 L342.442,134.39 Z M342.468,119.232 C341.878664,119.232 341.367335,119.422665 340.934,119.804 C340.500664,120.220002 340.284,120.713997 340.284,121.286 C340.284,121.875336 340.500664,122.369331 340.934,122.768 C341.367335,123.149335 341.878664,123.34 342.468,123.34 C343.07467,123.34 343.577331,123.149335 343.976,122.768 C344.409335,122.351998 344.626,121.858003 344.626,121.286 C344.626,120.713997 344.409335,120.211336 343.976,119.778 C343.559998,119.413998 343.057336,119.232 342.468,119.232 L342.468,119.232 Z M342.416,126.512 C341.739997,126.512 341.194002,126.719998 340.778,127.136 C340.327331,127.586669 340.102,128.158663 340.102,128.852 C340.102,129.580004 340.327331,130.160665 340.778,130.594 C341.211335,131.010002 341.774663,131.218 342.468,131.218 C343.161337,131.218 343.724664,131.010002 344.158,130.594 C344.608669,130.177998 344.834,129.58867 344.834,128.826 C344.834,128.11533 344.608669,127.552002 344.158,127.136 C343.741998,126.719998 343.161337,126.512 342.416,126.512 L342.416,126.512 Z" id="5555-5555-5555-5558" fill="#FFFFFF" opacity="0.8"></path>
                <path d="M31.314,171.994 L34.086,171.994 L34.086,181.66 L37.812,181.66 L37.812,184 L31.314,184 L31.314,171.994 Z M48.414,171.994 L48.414,174.334 L44.4,174.334 L44.4,176.656 L48.216,176.656 L48.216,178.996 L44.4,178.996 L44.4,181.66 L48.414,181.66 L48.414,184 L41.628,184 L41.628,171.994 L48.414,171.994 Z M60.87,184 L59.97,181.732 L55.434,181.732 L54.516,184 L51.636,184 L56.478,171.994 L59.016,171.994 L63.75,184 L60.87,184 Z M56.244,179.608 L59.214,179.608 L57.738,175.576 L56.244,179.608 Z M72.768,179.68 L72.768,177.448 L78.726,177.448 L78.726,177.574 C78.726,178.402004 78.5700016,179.292995 78.258,180.247 C77.9459984,181.201005 77.4840031,181.995997 76.872,182.632 C75.8279948,183.724005 74.4000091,184.27 72.588,184.27 C71.7359957,184.27 70.9500036,184.156001 70.23,183.928 C69.5099964,183.699999 68.8320032,183.256003 68.196,182.596 C67.0199941,181.383994 66.432,179.860009 66.432,178.024 C66.432,176.163991 67.0079942,174.646006 68.16,173.47 C69.2880056,172.305994 70.8599899,171.724 72.876,171.724 C74.2080067,171.724 75.3299954,172.023997 76.242,172.624 C77.0220039,173.140003 77.6699974,173.853995 78.186,174.766 L75.684,176.116 C75.4079986,175.563997 75.0540022,175.132002 74.622,174.82 C74.0939974,174.435998 73.4820035,174.244 72.786,174.244 C71.7419948,174.244 70.9140031,174.567997 70.302,175.216 C69.6179966,175.936004 69.276,176.883994 69.276,178.06 C69.276,179.224006 69.6119966,180.141997 70.284,180.814 C70.8960031,181.438003 71.705995,181.75 72.714,181.75 C73.6020044,181.75 74.2979975,181.534002 74.802,181.102 C75.210002,180.777998 75.4979992,180.304003 75.666,179.68 L72.768,179.68 Z M93.198,171.994 L93.198,179.104 C93.198,180.724008 92.7540044,181.989995 91.866,182.902 C90.9779956,183.814005 89.730008,184.27 88.122,184.27 C86.513992,184.27 85.2660044,183.814005 84.378,182.902 C83.4899956,181.989995 83.046,180.724008 83.046,179.104 L83.046,171.994 L85.818,171.994 L85.818,179.032 C85.818,179.944005 86.0279979,180.615998 86.448,181.048 C86.844002,181.468002 87.4019964,181.678 88.122,181.678 C88.8420036,181.678 89.399998,181.468002 89.796,181.048 C90.2160021,180.615998 90.426,179.944005 90.426,179.032 L90.426,171.994 L93.198,171.994 Z M104.862,171.994 L104.862,174.334 L100.848,174.334 L100.848,176.656 L104.664,176.656 L104.664,178.996 L100.848,178.996 L100.848,181.66 L104.862,181.66 L104.862,184 L98.076,184 L98.076,171.994 L104.862,171.994 Z M118.578,171.994 L118.578,176.566 L123.366,176.566 L123.366,171.994 L126.138,171.994 L126.138,184 L123.366,184 L123.366,178.906 L118.578,178.906 L118.578,184 L115.806,184 L115.806,171.994 L118.578,171.994 Z M137.802,171.994 L137.802,174.334 L133.788,174.334 L133.788,176.656 L137.604,176.656 L137.604,178.996 L133.788,178.996 L133.788,181.66 L137.802,181.66 L137.802,184 L131.016,184 L131.016,171.994 L137.802,171.994 Z M142.302,171.994 L146.514,171.994 C147.810006,171.994 148.829996,172.341997 149.574,173.038 C150.270003,173.710003 150.618,174.603994 150.618,175.72 C150.618,176.740005 150.306003,177.555997 149.682,178.168 C149.201998,178.624002 148.644003,178.929999 148.008,179.086 L151.698,184 L148.314,184 L145.074,179.266 L145.074,184 L142.302,184 L142.302,171.994 Z M145.074,174.154 L145.074,177.448 L145.704,177.448 C146.460004,177.448 147.011998,177.274002 147.36,176.926 C147.660002,176.625998 147.81,176.236002 147.81,175.756 C147.81,175.227997 147.624002,174.820001 147.252,174.532 C146.915998,174.279999 146.406003,174.154 145.722,174.154 L145.074,174.154 Z M161.472,171.724 C163.368009,171.724 164.915994,172.305994 166.116,173.47 C167.364006,174.682006 167.988,176.193991 167.988,178.006 C167.988,179.794009 167.364006,181.293994 166.116,182.506 C164.903994,183.682006 163.356009,184.27 161.472,184.27 C159.575991,184.27 158.016006,183.682006 156.792,182.506 C156.203997,181.953997 155.745002,181.291004 155.415,180.517 C155.084998,179.742996 154.92,178.918004 154.92,178.042 C154.92,177.201996 155.090998,176.371004 155.433,175.549 C155.775002,174.726996 156.221997,174.040003 156.774,173.488 C157.950006,172.311994 159.51599,171.724 161.472,171.724 L161.472,171.724 Z M161.454,174.28 C160.385995,174.28 159.510003,174.621997 158.826,175.306 C158.117996,175.990003 157.764,176.895994 157.764,178.024 C157.764,179.104005 158.129996,180.003996 158.862,180.724 C159.558003,181.384003 160.415995,181.714 161.436,181.714 C162.528005,181.714 163.415997,181.372003 164.1,180.688 C164.796003,180.015997 165.144,179.122006 165.144,178.006 C165.144,176.901994 164.796003,176.002003 164.1,175.306 C163.391996,174.621997 162.510005,174.28 161.454,174.28 L161.454,174.28 Z" id="LEAGUE-HERO" fill="#FFFFFF" opacity="0.8"></path>
                <path d="M270.972,178.006 C270.972,180.214011 270.396006,181.887994 269.244,183.028 C268.391996,183.856004 267.318006,184.27 266.022,184.27 C264.749994,184.27 263.688004,183.856004 262.836,183.028 C261.683994,181.887994 261.108,180.214011 261.108,178.006 C261.108,175.761989 261.683994,174.082006 262.836,172.966 C263.688004,172.137996 264.749994,171.724 266.022,171.724 C267.318006,171.724 268.391996,172.137996 269.244,172.966 C270.396006,174.082006 270.972,175.761989 270.972,178.006 L270.972,178.006 Z M266.04,174.1 C265.607998,174.1 265.236002,174.249999 264.924,174.55 C264.251997,175.210003 263.916,176.355992 263.916,177.988 C263.916,179.632008 264.251997,180.783997 264.924,181.444 C265.236002,181.744002 265.607998,181.894 266.04,181.894 C266.472002,181.894 266.843998,181.744002 267.156,181.444 C267.828003,180.783997 268.164,179.632008 268.164,177.988 C268.164,176.355992 267.828003,175.210003 267.156,174.55 C266.843998,174.249999 266.472002,174.1 266.04,174.1 L266.04,174.1 Z M279.45,184.27 C278.993998,184.27 278.619001,184.255 278.325,184.225 C278.030999,184.195 277.683002,184.102001 277.281,183.946 C276.878998,183.789999 276.510002,183.562002 276.174,183.262 C275.405996,182.565997 275.022,181.696005 275.022,180.652 C275.022,179.847996 275.291997,179.164003 275.832,178.6 C276.228002,178.191998 276.725997,177.892001 277.326,177.7 C276.893998,177.519999 276.528001,177.274002 276.228,176.962 C275.735998,176.457997 275.49,175.822004 275.49,175.054 C275.49,174.153996 275.783997,173.410003 276.372,172.822 C277.092004,172.089996 278.129993,171.724 279.486,171.724 C280.818007,171.724 281.843996,172.089996 282.564,172.822 C283.152003,173.410003 283.446,174.153996 283.446,175.054 C283.446,175.822004 283.200002,176.457997 282.708,176.962 C282.407998,177.274002 282.042002,177.519999 281.61,177.7 C282.210003,177.892001 282.707998,178.191998 283.104,178.6 C283.644003,179.164003 283.914,179.847996 283.914,180.652 C283.914,181.696005 283.530004,182.565997 282.762,183.262 C282.281998,183.694002 281.790003,183.969999 281.286,184.09 C280.781997,184.210001 280.170004,184.27 279.45,184.27 L279.45,184.27 Z M279.468,173.776 C279.059998,173.776 278.706001,173.907999 278.406,174.172 C278.105998,174.460001 277.956,174.801998 277.956,175.198 C277.956,175.606002 278.105998,175.947999 278.406,176.224 C278.706001,176.488001 279.059998,176.62 279.468,176.62 C279.888002,176.62 280.235999,176.488001 280.512,176.224 C280.812001,175.935999 280.962,175.594002 280.962,175.198 C280.962,174.801998 280.812001,174.454002 280.512,174.154 C280.223999,173.901999 279.876002,173.776 279.468,173.776 L279.468,173.776 Z M279.432,178.816 C278.963998,178.816 278.586001,178.959999 278.298,179.248 C277.985998,179.560002 277.83,179.955998 277.83,180.436 C277.83,180.940003 277.985998,181.341999 278.298,181.642 C278.598001,181.930001 278.987998,182.074 279.468,182.074 C279.948002,182.074 280.337998,181.930001 280.638,181.642 C280.950002,181.353999 281.106,180.946003 281.106,180.418 C281.106,179.925998 280.950002,179.536001 280.638,179.248 C280.349999,178.959999 279.948003,178.816 279.432,178.816 L279.432,178.816 Z M287.388,187.312 L296.874,170.518 L298.908,170.878 L289.422,187.672 L287.388,187.312 Z M311.58,181.66 L311.58,184 L302.4,184 L306,180.076 C306.876004,179.091995 307.529998,178.276003 307.962,177.628 C308.442002,176.859996 308.682,176.182003 308.682,175.594 C308.682,175.089997 308.526002,174.694001 308.214,174.406 C307.961999,174.177999 307.596002,174.064 307.116,174.064 C306.647998,174.064 306.282001,174.207999 306.018,174.496 C305.681998,174.868002 305.514,175.359997 305.514,175.972 L302.742,175.972 C302.850001,174.723994 303.263996,173.722004 303.984,172.966 C304.764004,172.137996 305.867993,171.724 307.296,171.724 C308.580006,171.724 309.617996,172.101996 310.41,172.858 C311.154004,173.602004 311.526,174.561994 311.526,175.738 C311.526,176.662005 311.226003,177.543996 310.626,178.384 C310.265998,178.888003 309.624005,179.577996 308.7,180.454 L307.44,181.66 L311.58,181.66 Z M325.35,178.006 C325.35,180.214011 324.774006,181.887994 323.622,183.028 C322.769996,183.856004 321.696006,184.27 320.4,184.27 C319.127994,184.27 318.066004,183.856004 317.214,183.028 C316.061994,181.887994 315.486,180.214011 315.486,178.006 C315.486,175.761989 316.061994,174.082006 317.214,172.966 C318.066004,172.137996 319.127994,171.724 320.4,171.724 C321.696006,171.724 322.769996,172.137996 323.622,172.966 C324.774006,174.082006 325.35,175.761989 325.35,178.006 L325.35,178.006 Z M320.418,174.1 C319.985998,174.1 319.614002,174.249999 319.302,174.55 C318.629997,175.210003 318.294,176.355992 318.294,177.988 C318.294,179.632008 318.629997,180.783997 319.302,181.444 C319.614002,181.744002 319.985998,181.894 320.418,181.894 C320.850002,181.894 321.221998,181.744002 321.534,181.444 C322.206003,180.783997 322.542,179.632008 322.542,177.988 C322.542,176.355992 322.206003,175.210003 321.534,174.55 C321.221998,174.249999 320.850002,174.1 320.418,174.1 L320.418,174.1 Z M331.11,184 L331.11,174.334 L329.4,174.334 L329.4,171.994 L333.882,171.994 L333.882,184 L331.11,184 Z M343.53,184.27 L340.56,183.964 L343.728,180.04 C343.331998,180.160001 342.930002,180.22 342.522,180.22 C341.249994,180.22 340.242004,179.848004 339.498,179.104 C338.801997,178.407997 338.454,177.442006 338.454,176.206 C338.454,174.933994 338.843996,173.890004 339.624,173.074 C340.488004,172.173996 341.741992,171.724 343.386,171.724 C344.910008,171.724 346.109996,172.125996 346.986,172.93 C347.802004,173.698004 348.21,174.711994 348.21,175.972 C348.21,176.788004 348.030002,177.603996 347.67,178.42 C347.381999,179.056003 346.914003,179.799996 346.266,180.652 L343.53,184.27 Z M343.368,173.992 C342.791997,173.992 342.312002,174.171998 341.928,174.532 C341.507998,174.916002 341.298,175.419997 341.298,176.044 C341.298,176.716003 341.501998,177.231998 341.91,177.592 C342.282002,177.928002 342.767997,178.096 343.368,178.096 C343.956003,178.096 344.441998,177.922002 344.826,177.574 C345.234002,177.189998 345.438,176.662003 345.438,175.99 C345.438,175.413997 345.234002,174.928002 344.826,174.532 C344.441998,174.171998 343.956003,173.992 343.368,173.992 L343.368,173.992 Z" id="08/2019" fill="#FFFFFF" opacity="0.8"></path>
            </g>
        </g>
    </g>
</svg>