<?xml version="1.0" encoding="UTF-8" standalone="no"?>
<svg width="256px" height="256px" viewBox="0 0 256 256" version="1.1" xmlns="http://www.w3.org/2000/svg" xmlns:xlink="http://www.w3.org/1999/xlink">
    <!-- Generator: Sketch 3.6.1 (26313) - http://www.bohemiancoding.com/sketch -->
    <title>Artboard 1</title>
    <desc>Created with Sketch.</desc>
    <defs></defs>
    <g id="Page-1" stroke="none" stroke-width="1" fill="none" fill-rule="evenodd">
        <g id="Artboard-1">
            <path d="M147.945564,44.4569611 C132.678144,31.0964262 112.687385,23 90.8056036,23 C42.8641925,23 4,61.8641925 4,109.805604 C4,150.97994 32.6669334,185.458755 71.1307189,194.371968 C70.3889825,190.641286 70,186.783523 70,182.834909 C70,155.85764 88.1566892,133.121093 112.916576,126.17876 C111.662602,120.731925 111,115.059104 111,109.231523 C111,81.6627913 125.82892,57.5575392 147.945564,44.4569611 Z" id="Combined-Shape" fill="#44536A"></path>
            <path d="M119.863419,125.334427 C118.645223,120.260308 118,114.963239 118,109.515469 C118,72.2277053 148.227705,42 185.515469,42 C222.803234,42 253.030939,72.2277053 253.030939,109.515469 C253.030939,145.905912 224.240574,175.572005 188.194845,176.978746 C184.667477,147.484221 159.563413,124.618855 129.118855,124.618855 C125.970617,124.618855 122.879487,124.863364 119.863419,125.334427 Z" id="Combined-Shape" fill="#44536A"></path>
            <ellipse id="Oval-1-Copy-3" fill="#6BC16F" cx="129.5" cy="184.5" rx="52.5" ry="52.5"></ellipse>
        </g>
    </g>
</svg>