<?xml version="1.0" encoding="UTF-8" standalone="no"?>
<svg width="620px" height="620px" viewBox="0 0 620 620" version="1.1" xmlns="http://www.w3.org/2000/svg" xmlns:xlink="http://www.w3.org/1999/xlink">
    <!-- Generator: Sketch 3.6.1 (26313) - http://www.bohemiancoding.com/sketch -->
    <title>Multi League</title>
    <desc>Created with Sketch.</desc>
    <defs></defs>
    <g id="Page-1" stroke="none" stroke-width="1" fill="none" fill-rule="evenodd">
        <g id="Multi-League">
            <circle id="Oval-6" fill="#E4E4E4" cx="311" cy="208" r="12"></circle>
            <circle id="Oval-6-Copy" fill="#E4E4E4" cx="376" cy="322" r="12"></circle>
            <circle id="Oval-6-Copy-3" fill="#E4E4E4" cx="568" cy="40" r="12"></circle>
            <circle id="Oval-6-Copy-4" fill="#E4E4E4" cx="171" cy="605" r="12"></circle>
            <circle id="Oval-6-Copy-2" fill="#E4E4E4" cx="245" cy="412" r="12"></circle>
            <g id="Group" transform="translate(245.000000, 40.000000)">
                <path d="M65.2281456,132.804074 C101.252656,132.804074 130.456291,103.074869 130.456291,66.402037 C130.456291,29.7292046 101.252656,0 65.2281456,0 C29.2036355,0 0,29.7292046 0,66.402037 C0,103.074869 29.2036355,132.804074 65.2281456,132.804074 L65.2281456,132.804074 Z M65.2281456,126.743096 C32.4918442,126.743096 5.95382856,99.7274837 5.95382856,66.402037 C5.95382856,33.0765902 32.4918442,6.06097783 65.2281456,6.06097783 C97.9644469,6.06097783 124.502463,33.0765902 124.502463,66.402037 C124.502463,99.7274837 97.9644469,126.743096 65.2281456,126.743096 L65.2281456,126.743096 Z" id="Shape" fill="#44536A"></path>
                <path d="M106.854179,27.4158416 C104.653907,29.057132 102.231852,30.6899476 99.6109099,32.2544586 L97.5266569,28.8155036 C96.7868507,27.5948454 95.2150738,27.2158311 94.0159951,27.9689515 C92.8169164,28.7220718 92.4446025,30.3221354 93.1844088,31.5427936 L95.1302655,34.753399 C92.5138081,36.1123987 89.8533276,37.3201117 87.1556775,38.3590218 L85.8021392,34.5051324 C85.327802,33.154566 83.8677806,32.4511621 82.5410903,32.9340359 C81.2143999,33.4169096 80.5234312,34.9032065 80.9977685,36.2537729 L82.3220994,40.0245012 C79.635273,40.8412458 76.9165939,41.4856051 74.1725282,41.9410488 L73.6148134,37.0887944 C73.4510737,35.6642199 72.1839068,34.6445002 70.7845168,34.8111866 C69.3851267,34.977873 68.3834342,36.2678448 68.5471738,37.6924192 L69.1067912,42.5612267 C67.6214258,42.6780082 66.1299104,42.7376685 64.6332394,42.7376685 C63.2338052,42.7376685 61.8506615,42.6811357 60.4841155,42.5703302 L61.0804199,37.8488633 C61.2600871,36.4262797 60.2728918,35.1247776 58.8754575,34.941877 C57.4780231,34.7589763 56.1995297,35.7639379 56.0198624,37.1865214 L55.4242756,41.9023064 C52.5258785,41.3698527 49.7088107,40.5910552 46.9762912,39.5895994 L48.7345217,35.2311359 C49.2697496,33.9043639 48.6470906,32.3871062 47.3437739,31.842246 C46.0404573,31.2973858 44.5500225,31.9312506 44.0147947,33.2580226 L42.2612424,37.6048893 C39.5519859,36.3140166 36.9342885,34.8019837 34.4116598,33.0946131 L36.8601996,29.3037757 C37.6342783,28.1053444 37.3074477,26.4950159 36.1302029,25.7070063 C34.9529582,24.9189967 33.3710979,25.2517092 32.5970192,26.4501404 L30.2735103,30.0474046 C28.3819904,28.5341687 26.6580259,26.9781728 25.108628,25.423801 C24.903241,25.2177548 24.7047138,25.0154795 24.5130925,24.817283 L27.4154789,21.7923496 C28.3999645,20.7662962 28.3809719,19.1220694 27.3730576,18.1198663 C26.3651433,17.1176632 24.7499841,17.1369976 23.7654985,18.163051 L15.1134,27.1804656 C14.1289144,28.206519 14.147907,29.8507458 15.1558213,30.8529489 C16.1637356,31.855152 17.7788948,31.8358176 18.7633804,30.8097642 L21.7397069,27.7077687 C21.9283488,27.9023512 22.1228418,28.1002364 22.3231576,28.3011952 C24.0474789,30.0310519 25.9703728,31.7591379 28.0858894,33.4342866 L25.7940702,36.9824887 C25.0199914,38.1809199 25.3468221,39.7912484 26.5240668,40.579258 C27.7013116,41.3672677 29.2831718,41.0345552 30.0572506,39.8361239 L32.2313613,36.4701584 C34.9644517,38.3189399 37.8058832,39.9544751 40.7515783,41.3471836 L39.3109738,44.9182867 C38.7757459,46.2450587 39.3984049,47.7623164 40.7017216,48.3071766 C42.0050382,48.8520368 43.495473,48.218172 44.0307008,46.8913999 L45.466619,43.3319139 C48.5163867,44.4605689 51.6680092,45.3315881 54.9174218,45.9155136 L54.4408667,49.6888199 C54.2611995,51.1114035 55.2483948,52.4129056 56.6458292,52.5958063 C58.0432635,52.7787069 59.321757,51.7737453 59.5014242,50.3511618 L59.9774479,46.5820629 C61.5094709,46.711396 63.0615312,46.7774733 64.6332394,46.7774733 C66.2862727,46.7774733 67.9316658,46.7096808 69.5683789,46.5771516 L69.9861906,50.2122143 C70.1499302,51.6367887 71.4170972,52.6565084 72.8164872,52.489822 C74.2158772,52.3231356 75.2175698,51.0331639 75.0538302,49.6085894 L74.6343345,45.9588756 C77.6800013,45.4625727 80.6910716,44.7480108 83.6606047,43.8355876 L85.1664556,48.1231524 C85.6407929,49.4737188 87.1008142,50.1771227 88.4275046,49.694249 C89.7541949,49.2113752 90.4451636,47.7250783 89.9708264,46.3745119 L88.4924225,42.1650964 C91.4506852,41.0285183 94.3624858,39.7005727 97.2206224,38.2024252 L99.6861561,42.2704818 C100.425962,43.49114 101.997739,43.8701543 103.196818,43.117034 C104.395897,42.3639136 104.768211,40.76385 104.028404,39.5431918 L101.695146,35.6933851 C104.483629,34.0251788 107.056613,32.2830387 109.392021,30.5306074 L111.966335,33.6901361 C112.865821,34.7941008 114.474117,34.9467408 115.558566,34.031067 C116.643014,33.1153932 116.792955,31.4781526 115.893469,30.3741879 L113.396978,27.3101733 C113.758133,26.9954737 114.016514,26.7612809 114.168279,26.6183455 L111.473311,23.6529784 C111.442862,23.6816562 111.372794,23.7462791 111.263998,23.8444485 C111.145113,23.951722 111.011405,24.0705329 110.8631,24.2002724 L107.988385,20.6720538 C107.088899,19.5680891 105.480603,19.4154491 104.396154,20.3311229 C103.311706,21.2467968 103.161765,22.8840373 104.061251,23.988002 L106.854179,27.4158416 Z" id="Shape" stroke="#44536A" stroke-width="2" fill="#44536A"></path>
                <path d="M24.0141798,106.059406 C26.2144511,104.418116 28.6365067,102.7853 31.2574485,101.220789 L33.3417015,104.659744 C34.0815078,105.880402 35.6532846,106.259417 36.8523634,105.506296 C38.0514421,104.753176 38.423756,103.153112 37.6839497,101.932454 L35.7380929,98.7218487 C38.3545504,97.362849 41.0150309,96.155136 43.712681,95.1162259 L45.0662192,98.9701153 C45.5405565,100.320682 47.0005778,101.024086 48.3272682,100.541212 C49.6539585,100.058338 50.3449272,98.5720411 49.87059,97.2214747 L48.546259,93.4507465 C51.2330854,92.6340019 53.9517645,91.9896425 56.6958302,91.5341989 L57.2535451,96.3864533 C57.4172847,97.8110277 58.6844517,98.8307475 60.0838417,98.6640611 C61.4832317,98.4973747 62.4849243,97.2074029 62.3211847,95.7828285 L61.761567,90.914019 C63.2469326,90.7972395 64.738448,90.7375791 66.235119,90.7375791 C67.6345532,90.7375791 69.0176969,90.7941119 70.384243,90.9049175 L69.7879385,95.6263844 C69.6082713,97.048968 70.5954666,98.3504701 71.992901,98.5333707 C73.3903353,98.7162714 74.6688288,97.7113098 74.848496,96.2887262 L75.4440828,91.5729413 C78.34248,92.105395 81.1595478,92.8841925 83.8920672,93.8856483 L82.1338367,98.2441118 C81.5986089,99.5708838 82.2212679,101.088142 83.5245845,101.633002 C84.8279012,102.177862 86.318336,101.543997 86.8535638,100.217225 L88.607116,95.8703584 C91.3163725,97.161231 93.93407,98.673264 96.4566987,100.380635 L94.0081589,104.171472 C93.2340801,105.369903 93.5609108,106.980232 94.7381555,107.768241 C95.9154003,108.556251 97.4972605,108.223539 98.2713393,107.025107 L100.594848,103.427843 C102.486368,104.941079 104.210333,106.497075 105.759731,108.051447 C105.965117,108.257493 106.163645,108.459768 106.355266,108.657965 L103.45288,111.682898 C102.468394,112.708951 102.487387,114.353178 103.495301,115.355381 C104.503215,116.357585 106.118374,116.33825 107.10286,115.312197 L115.754958,106.294782 C116.739444,105.268729 116.720451,103.624502 115.712537,102.622299 C114.704623,101.620096 113.089464,101.63943 112.104978,102.665484 L109.128652,105.767479 C108.94001,105.572897 108.745517,105.375011 108.545201,105.174052 C106.82088,103.444196 104.897986,101.71611 102.782469,100.040961 L105.074288,96.492759 C105.848367,95.2943277 105.521536,93.6839992 104.344292,92.8959896 C103.167047,92.10798 101.585187,92.4406925 100.811108,93.6391238 L98.6369941,97.005094 C95.9039068,95.1563078 93.0624753,93.5207726 90.1167802,92.128064 L91.5573847,88.556961 C92.0926125,87.230189 91.4699535,85.7129313 90.1666369,85.1680711 C88.8633203,84.6232109 87.3728855,85.2570757 86.8376576,86.5838477 L85.4017395,90.1433337 C82.3519717,89.0146788 79.2003493,88.1436596 75.9509366,87.5597341 L76.4274917,83.7864277 C76.607159,82.3638442 75.6199637,81.0623421 74.2225293,80.8794414 C72.8250949,80.6965408 71.5466015,81.7015023 71.3669343,83.1240859 L70.8909105,86.8931848 C69.3588875,86.7638517 67.8068272,86.6977743 66.235119,86.6977743 C64.5820858,86.6977743 62.9366927,86.7655668 61.2999795,86.898096 L60.8821679,83.2630334 C60.7184283,81.838459 59.4512613,80.8187393 58.0518713,80.9854257 C56.6524812,81.1521121 55.6507887,82.4420838 55.8145283,83.8666583 L56.2340239,87.5163721 C53.1883571,88.012675 50.1772869,88.7272369 47.2077538,89.6396601 L45.7019028,85.3520952 C45.2275656,84.0015288 43.7675442,83.298125 42.4408539,83.7809987 C41.1141635,84.2638725 40.4231948,85.7501694 40.8975321,87.1007358 L42.3759359,91.3101513 C39.4176732,92.4467294 36.5058727,93.774675 33.6477361,95.2728225 L31.1822024,91.2047659 C30.4423961,89.9841077 28.8706193,89.6050934 27.6715406,90.3582137 C26.4724618,91.1113341 26.1001479,92.7113977 26.8399542,93.9320559 L29.1732128,97.7818626 C26.3847297,99.4500689 23.811745,101.192209 21.4763376,102.94464 L18.9020235,99.7851116 C18.0025375,98.6811468 16.394241,98.5285069 15.3097927,99.4441807 C14.2253445,100.359855 14.075403,101.997095 14.974889,103.10106 L17.4713803,106.165074 C17.1102253,106.479774 16.8518446,106.713967 16.7000794,106.856902 L19.3950477,109.822269 C19.4254969,109.793592 19.4955649,109.728969 19.6043603,109.630799 C19.7232452,109.523526 19.8569537,109.404715 20.0052588,109.274975 L22.8799732,112.803194 C23.7794593,113.907159 25.3877558,114.059799 26.472204,113.144125 C27.5566523,112.228451 27.7065937,110.59121 26.8071077,109.487246 L24.0141798,106.059406 Z" id="Shape-Copy-2" stroke="#44536A" stroke-width="2" fill="#44536A"></path>
                <path d="M17.549982,44.1801441 C16.8258461,45.3177556 15.797433,47.3535312 14.7849858,50.1849514 C13.1155701,54.8536565 12.1156069,60.1013106 12.1156069,65.8166351 C12.1156069,71.5139424 13.0477015,76.7362742 14.6043876,81.3759393 C15.5492071,84.1919506 16.5094489,86.2145752 17.185757,87.3435481 C17.8705623,88.4867055 19.336036,88.8482825 20.458984,88.151153 C21.5819321,87.4540234 21.9371169,85.962176 21.2523116,84.8190186 C21.1439974,84.6382078 20.9228709,84.2276587 20.6254802,83.6012438 C20.1128965,82.5215528 19.5962853,81.2527494 19.111785,79.8087083 C17.7172862,75.6524386 16.8786698,70.953845 16.8786698,65.8166351 C16.8786698,60.6974423 17.7730009,56.0041292 19.2607423,51.8434964 C19.778011,50.3968974 20.3297036,49.1244941 20.8771882,48.0407314 C21.1949692,47.411674 21.4313454,46.9989422 21.5471975,46.8169395 C22.2624562,45.6932742 21.9474807,44.1920967 20.8436801,43.4639657 C19.7398796,42.7358348 18.2652407,43.0564788 17.549982,44.1801441 L17.549982,44.1801441 Z" id="Shape" fill="#AFC4DB"></path>
                <path d="M112.663658,88.1554257 C113.387794,87.0178141 114.416207,84.9820385 115.428654,82.1506184 C117.09807,77.4819133 118.098033,72.2342592 118.098033,66.5189347 C118.098033,60.8216274 117.165939,55.5992956 115.609253,50.9596305 C114.664433,48.1436192 113.704191,46.1209946 113.027883,44.9920217 C112.343078,43.8488643 110.877604,43.4872873 109.754656,44.1844168 C108.631708,44.8815464 108.276523,46.3733937 108.961329,47.5165511 C109.069643,47.697362 109.290769,48.1079111 109.58816,48.734326 C110.100744,49.814017 110.617355,51.0828204 111.101855,52.5268615 C112.496354,56.6831312 113.33497,61.3817248 113.33497,66.5189347 C113.33497,71.6381275 112.440639,76.3314406 110.952898,80.4920734 C110.435629,81.9386724 109.883937,83.2110757 109.336452,84.2948384 C109.018671,84.9238958 108.782295,85.3366275 108.666443,85.5186303 C107.951184,86.6422956 108.266159,88.1434731 109.36996,88.8716041 C110.473761,89.599735 111.948399,89.279091 112.663658,88.1554257 L112.663658,88.1554257 Z" id="Shape-Copy" fill="#AFC4DB"></path>
            </g>
            <g id="Group-4" transform="translate(40.000000, 400.000000)">
                <path d="M78.7975804,33.8304093 L55.4016242,50.8227568 L62.3268272,79.6524701 L92.8351541,80.0343206 L104.626716,51.0136821 L78.7975804,33.8304093 Z" id="Path-63" fill="#AFC4DB"></path>
                <path d="M27.5136445,28.2935769 L28.4494827,50.4409063 L14.2247414,75.4521145 L3.93052064,77.1704418 L11.0428913,51.2046074 L27.5136445,28.2935769 Z" id="Path-64" fill="#AFC4DB"></path>
                <path d="M46.97908,109.627735 L23.5831238,110.773286 L26.0163033,134.066167 L51.0967683,150.485739 L62.8883302,135.020794 L46.97908,109.627735 Z" id="Path-65" fill="#AFC4DB"></path>
                <path d="M112.674925,110.200511 L98.2630159,136.35727 L115.295272,151.631291 L139.627066,135.97542 L138.878396,110.773286 L112.674925,110.200511 Z" id="Path-66" fill="#AFC4DB"></path>
                <path d="M154.413311,39.1763164 L141.124408,35.7396618 L136.819552,49.8681306 L151.980131,77.5522923 L169.012387,76.2158156 L160.777011,49.6772053 L154.413311,39.1763164 Z" id="Path-67" fill="#AFC4DB"></path>
                <path d="M82.9152687,12.4467809 L69.4391979,5.00069602 L100.696195,4.80977077 L82.9152687,12.4467809 Z" id="Path-70" fill="#AFC4DB"></path>
                <path d="M86.2199475,169.80543 L86.2199475,169.80543 C130.310653,169.80543 166.053232,133.345278 166.053232,88.3694012 C166.053232,43.3935243 130.310653,6.93337226 86.2199475,6.93337226 C42.1292418,6.93337226 6.38666278,43.3935243 6.38666278,88.3694012 C6.38666278,133.345278 42.1292418,169.80543 86.2199475,169.80543 L86.2199475,169.80543 Z M86.2199475,176.320313 L86.2199475,176.320313 C38.6019854,176.320313 0,136.943348 0,88.3694012 C0,39.7954542 38.6019854,0.418489938 86.2199475,0.418489938 C133.83791,0.418489938 172.439895,39.7954542 172.439895,88.3694012 C172.439895,136.943348 133.83791,176.320313 86.2199475,176.320313 L86.2199475,176.320313 Z" id="Shape" stroke="#44536A" stroke-width="2" fill="#44536A"></path>
                <path d="M77.7791136,30.7499165 L53.8291282,47.0371223 C52.7062385,47.8007442 52.1751704,49.2019867 52.5024832,50.5375227 L59.6874788,79.8544931 C60.0428703,81.3045984 61.3201489,82.3218887 62.7854653,82.3218887 L93.1221135,82.3218887 C94.4161276,82.3218887 95.5822215,81.5252862 96.0749171,80.3047177 L107.251577,52.6164678 C107.817847,51.213631 107.359767,49.5977531 106.146904,48.7197312 L81.3985861,30.8038048 C80.3195524,30.0226654 78.8800362,30.0012332 77.7791136,30.7499165 L77.7791136,30.7499165 Z M81.3217967,36.1706262 L77.7023241,36.1167379 L102.450642,54.0326643 L101.34597,50.1359277 L90.1693099,77.8241775 L93.1221135,75.8070064 L62.7854653,75.8070064 L65.8834518,78.2744021 L58.6984562,48.9574316 L57.3718112,52.457832 L81.3217967,36.1706262 L81.3217967,36.1706262 Z" id="Shape" stroke="#44536A" stroke-width="2" fill="#44536A"></path>
                <path d="M68.0144093,10.9993488 L81.5860677,15.8855105 C82.1399185,16.0849117 82.7369517,16.1246362 83.3115023,16.0003151 L109.656486,10.2997931 C111.381728,9.9264857 112.483643,8.19719771 112.117682,6.4373202 C111.751722,4.6774427 110.056468,3.5534055 108.331227,3.92671285 L81.9862429,9.62723488 L83.7116776,9.74203945 L70.1400192,4.85587772 C68.4769348,4.25712265 66.6529046,5.1469986 66.0659336,6.84347129 C65.4789627,8.53994398 66.3513249,10.4005937 68.0144093,10.9993488 L68.0144093,10.9993488 Z" id="Shape" stroke="#44536A" stroke-width="2" fill="#44536A"></path>
                <path d="M152.87183,35.0984385 L140.896838,31.8409974 C139.20521,31.3808403 137.465779,32.3958799 136.997204,34.1166167 L133.005539,48.7751019 C132.773745,49.6263132 132.890823,50.5370562 133.32993,51.2985243 L149.296587,78.9867741 C149.899296,80.0319508 151.021249,80.649117 152.208496,80.5885629 L168.175153,79.7742026 C169.93658,79.6843631 171.293104,78.1549473 171.205032,76.3581568 C171.116961,74.5613663 169.617646,73.1776091 167.856218,73.2674486 L151.889561,74.0818089 L154.80147,75.6835977 L138.834813,47.9953478 L139.159203,50.5187702 L143.150868,35.860285 L139.251233,38.1359043 L151.226226,41.3933455 C152.930305,41.8568896 154.680116,40.8235035 155.134537,39.0852129 C155.588958,37.3469224 154.57591,35.5619827 152.87183,35.0984385 L152.87183,35.0984385 Z" id="Shape" stroke="#44536A" stroke-width="2" fill="#44536A"></path>
                <path d="M25.3482409,30.7873171 L25.3482409,49.5176037 L25.7583428,47.9206066 L11.3883516,73.9801359 L13.8538327,72.3358579 L5.87050427,73.1502182 C4.11562859,73.3292289 2.83528156,74.925514 3.01076912,76.7156208 C3.18625669,78.5057276 4.75112529,79.8117791 6.50600097,79.6327684 L14.4893294,78.8184081 C15.5246908,78.7127934 16.4446814,78.0992335 16.9548106,77.1741302 L31.3248019,51.1146009 C31.5936673,50.6270217 31.7349037,50.0770264 31.7349037,49.5176037 L31.7349037,30.7873171 C31.7349037,28.988282 30.3052006,27.5298759 28.5415723,27.5298759 C26.7779441,27.5298759 25.3482409,28.988282 25.3482409,30.7873171 L25.3482409,30.7873171 Z" id="Shape" stroke="#44536A" stroke-width="2" fill="#44536A"></path>
                <path d="M23.8960702,113.136405 L46.2493899,112.322045 L43.4044849,110.755016 L59.3711419,137.628906 L59.6370429,133.86979 L48.460383,147.713915 L52.7163861,147.087797 L27.9680678,129.986231 L29.3522525,132.336102 L26.9572539,109.534014 L23.8960702,113.136405 L23.8960702,113.136405 Z M23.6681204,106.625674 C21.816419,106.693134 20.4095434,108.34874 20.6069367,110.228065 L23.0019352,133.030153 C23.1020172,133.983004 23.6083362,134.84256 24.3861198,135.380024 L49.1344381,152.48159 C50.4989362,153.424485 52.342728,153.153237 53.3904411,151.855473 L64.567101,138.011348 C65.4294987,136.943127 65.5361279,135.43568 64.833002,134.252231 L48.8663451,107.378342 C48.2664882,106.368707 47.1780534,105.769176 46.0214401,105.811313 L23.6681204,106.625674 L23.6681204,106.625674 Z" id="Shape" stroke="#44536A" stroke-width="2" fill="#44536A"></path>
                <path d="M100.739114,138.196028 L114.310772,111.322139 L111.471982,113.087813 L138.615299,113.087813 L135.423525,109.932117 L136.221858,135.991647 L137.744918,133.112603 L112.996599,148.585448 L116.743506,148.889513 L99.9785158,134.231028 L100.739114,138.196028 L100.739114,138.196028 Z M95.061533,135.212495 C94.3839064,136.554296 94.6986784,138.195204 95.8221308,139.177495 L112.587121,153.83598 C113.639149,154.755823 115.15266,154.878645 116.334027,154.140045 L141.082345,138.6672 C142.059901,138.056024 142.641217,136.957161 142.605405,135.788156 L141.807072,109.728627 C141.753198,107.970063 140.340093,106.572931 138.615299,106.572931 L111.471982,106.572931 C110.276284,106.572931 109.180769,107.254321 108.633191,108.338605 L95.061533,135.212495 L95.061533,135.212495 Z" id="Shape" stroke="#44536A" stroke-width="2" fill="#44536A"></path>
                <path d="M49.7865947,151.770036 L72.1399144,172.129043 L74.2667235,169.699195 L51.9134038,149.340188 L49.7865947,151.770036 L49.7865947,151.770036 Z" id="Shape" stroke="#44536A" stroke-width="4" fill="#132A4F"></path>
                <path d="M112.770513,151.24944 L99.1988542,169.165367 L101.725689,171.157121 L115.297348,153.241194 L112.770513,151.24944 L112.770513,151.24944 Z" id="Shape" stroke="#44536A" stroke-width="4" fill="#132A4F"></path>
                <path d="M62.1396596,137.705459 L97.2663049,137.705459 L97.2663049,134.448018 L62.1396596,134.448018 L62.1396596,137.705459 L62.1396596,137.705459 Z" id="Shape" stroke="#44536A" stroke-width="4" fill="#132A4F"></path>
                <path d="M12.7274002,76.8886219 L21.5090615,109.463034 L24.5880888,108.599302 L15.8064275,76.0248903 L12.7274002,76.8886219 L12.7274002,76.8886219 Z" id="Shape" stroke="#44536A" stroke-width="4" fill="#44536A"></path>
                <path d="M48.0470127,108.419532 L64.0136697,80.7312826 L61.2612281,79.0796944 L45.2945711,106.767944 L48.0470127,108.419532 L48.0470127,108.419532 Z" id="Shape" stroke="#44536A" stroke-width="4" fill="#44536A"></path>
                <path d="M92.4608188,80.3964366 L110.024141,109.713407 L112.748953,108.014814 L95.1856304,78.6978438 L92.4608188,80.3964366 L92.4608188,80.3964366 Z" id="Shape" stroke="#44536A" stroke-width="4" fill="#44536A"></path>
                <path d="M139.945641,110.637121 L153.517299,78.0627089 L150.578378,76.7885913 L137.006719,109.363003 L139.945641,110.637121 L139.945641,110.637121 Z" id="Shape" stroke="#44536A" stroke-width="4" fill="#44536A"></path>
                <path d="M105.347686,52.6500503 L137.281,51.0213298 L137.121533,47.7679528 L105.188219,49.3966734 L105.347686,52.6500503 L105.347686,52.6500503 Z" id="Shape" stroke="#44536A" stroke-width="4" fill="#44536A"></path>
                <path d="M81.0054113,13.4014072 L78.6104127,31.3173335 L81.7744618,31.7574569 L84.1694604,13.8415305 L81.0054113,13.4014072 L81.0054113,13.4014072 Z" id="Shape" stroke="#44536A" stroke-width="4" fill="#44536A"></path>
                <path d="M29.1981533,51.025394 L56.3414701,51.025394 L56.3414701,47.7679528 L29.1981533,47.7679528 L29.1981533,51.025394 L29.1981533,51.025394 Z" id="Shape" stroke="#44536A" stroke-width="4" fill="#44536A"></path>
                <path d="M139.814234,135.402644 L149.921287,142.657804" id="Path-68" stroke="#44536A" stroke-width="10"></path>
                <path d="M26.3906386,133.302466 L17.4065914,136.930046" id="Path-69" stroke="#44536A" stroke-width="12"></path>
            </g>
            <g id="Group-2" transform="translate(401.000000, 310.000000)">
                <path d="M18.3606529,153.74294 L18.3606529,153.74294 L18.2223852,153.598465 C29.3972397,164.997668 47.8563949,169.070722 69.2892772,165.075307 C90.9226462,161.042518 113.020148,149.205321 129.391454,132.505342 C144.740357,116.848292 154.775207,93.2944637 157.741957,68.5167555 C160.422191,46.1319762 156.700696,26.2861737 149.022976,18.0328753 C141.602126,10.0557049 123.138298,6.41742927 101.488461,9.48482595 C77.6861758,12.8571864 54.2324798,23.5207294 37.8608539,39.4265529 C21.8478156,54.9839912 11.7157963,78.3480256 8.95823601,103.198923 C6.4956735,125.391325 10.5291502,145.360657 18.3606529,153.74294 L18.3606529,153.74294 Z M12.3990946,159.538665 C-7.30805378,138.445537 -5.48504994,69.9379377 32.1811395,33.3434196 C69.8473289,-3.25109859 135.374682,-8.84282797 154.996789,12.250296 C174.618897,33.3434201 171.088154,101.851932 135.214744,138.445542 C99.3413346,175.039151 40.1733707,187.870542 12.3990946,159.538665 L12.3990946,159.538665 Z" id="Shape" fill="#44536A"></path>
                <path d="M4.04787812,111.679061 C4.00243851,111.674449 3.98952276,111.672903 4.00836368,111.675508 C4.09040782,111.686849 4.20268606,111.704506 4.34443868,111.729564 C4.81301351,111.812393 5.3904011,111.937828 6.07062101,112.114564 C8.13676328,112.651392 10.5422824,113.497998 13.2408522,114.725051 C21.2086079,118.348028 29.7782827,124.350915 38.581966,133.331343 C47.3856493,142.31177 53.2703938,151.053491 56.8220668,159.181208 C58.0249698,161.933955 58.8549144,164.387768 59.381177,166.49539 C59.5544343,167.189266 59.6774011,167.778245 59.7585998,168.256227 C59.7831639,168.400826 59.8004739,168.515358 59.8115919,168.599049 C59.8141451,168.618269 59.8126301,168.605094 59.8081085,168.558742 L73.2179517,167.197565 C73.1886475,166.897162 73.1312982,166.465463 73.0367805,165.909076 C72.8963842,165.082623 72.7005863,164.144802 72.4402921,163.102353 C71.7278359,160.249046 70.6485111,157.057916 69.1306582,153.584432 C64.9087429,143.922919 58.0827251,133.782948 48.110987,123.611016 C38.139249,113.439083 28.1988424,106.476026 18.7274777,102.169351 C15.3223554,100.621025 12.1940304,99.5200315 9.39687947,98.793272 C8.37494675,98.5277521 7.45558288,98.3280233 6.64539526,98.1848084 C6.09995938,98.0883931 5.67675605,98.0298925 5.38226523,98 L4.04787812,111.679061 L4.04787812,111.679061 Z" id="Shape" fill="#44536A"></path>
                <path d="M163.63225,61.362948 C163.678524,61.3676451 163.693089,61.3693879 163.676694,61.3671215 C163.598725,61.3563437 163.491279,61.339446 163.355095,61.3153731 C162.902431,61.2353568 162.343667,61.1139671 161.684626,60.9427342 C159.678994,60.4216283 157.342329,59.5992543 154.719704,58.4067338 C146.968932,54.8824205 138.629566,49.04086 130.059493,40.2987331 C121.48942,31.5566062 115.762827,23.0498181 112.307876,15.1434405 C111.138826,12.4681628 110.332637,10.0845865 109.821787,8.0386897 C109.653924,7.36641757 109.534923,6.79643526 109.456482,6.33468349 C109.432883,6.19576561 109.416318,6.08616224 109.405752,6.00662839 C109.40353,5.98990366 109.405239,6.00476165 109.409843,6.05196496 L96,7.41314141 C96.028972,7.71013866 96.0854375,8.13518641 96.178301,8.6818344 C96.3159401,9.49205722 96.5077718,10.4108814 96.7626716,11.4317266 C97.4597152,14.2233079 98.5152843,17.3442012 99.9992845,20.7402163 C104.124478,30.1803895 110.792344,40.0854284 120.530472,50.0190601 C130.268599,59.9526918 139.978697,66.7544227 149.233078,70.9624343 C152.562256,72.4762276 155.621727,73.5529884 158.358367,74.2640259 C159.359121,74.5240431 160.259862,74.7197261 161.054139,74.8601284 C161.590028,74.9548563 162.00671,75.0124554 162.297862,75.042009 L163.63225,61.362948 L163.63225,61.362948 Z" id="Shape" fill="#44536A"></path>
                <path d="M133.837521,98.2262293 C133.800221,98.297649 133.708824,98.4671664 133.56338,98.7281983 C133.309931,99.1830706 133.002483,99.7164126 132.641102,100.32164 C131.595451,102.072861 130.334459,104.033513 128.85887,106.150948 C124.628315,112.221696 119.544685,118.298501 113.618868,123.963207 C105.762434,131.473461 97.0249084,137.669993 87.4179721,142.114408 C85.3468757,143.07255 84.4293613,145.56194 85.3686463,147.674616 C86.3079314,149.787292 88.7483277,150.723227 90.8194241,149.765084 C101.296686,144.918034 110.769231,138.200237 119.250175,130.092992 C125.602132,124.020923 131.038378,117.522613 135.571111,111.018245 C137.162674,108.73439 138.530177,106.608129 139.674529,104.691608 C140.07965,104.013126 140.429142,103.406848 140.723091,102.87929 C140.906086,102.550863 141.033628,102.314309 141.105787,102.176143 C142.175059,100.128773 141.414818,97.5848329 139.407742,96.4940942 C137.400666,95.4033556 134.906793,96.1788589 133.837521,98.2262293 L133.837521,98.2262293 Z" id="Shape" fill="#AFC4DB"></path>
                <path d="M36.6084622,70.6167313 C36.6467886,70.5542776 36.7413562,70.4044827 36.8917179,70.1732015 C37.1542458,69.7693897 37.47173,69.2956975 37.8437114,68.7579796 C38.9206994,67.2011388 40.2105695,65.4576923 41.7094646,63.5744471 C46.0088675,58.1725815 51.1019066,52.7642174 56.9537095,47.7211938 C65.7107074,40.1745029 75.3822129,34.1337169 85.9161672,30.1385341 C88.0477397,29.3300987 89.1332525,26.9120601 88.3407279,24.7376939 C87.5482033,22.5633276 85.1777543,21.4560219 83.0461817,22.2644573 C71.5611956,26.6203353 61.0842158,33.1642176 51.6389911,41.3040152 C45.370109,46.7064734 39.9240659,52.489697 35.3159639,58.279419 C33.6972322,60.3132296 32.2961103,62.207049 31.1149879,63.9144214 C30.6966307,64.519178 30.3343393,65.0597234 30.0284354,65.5302545 C29.8377379,65.8235788 29.7041519,66.035179 29.6280111,66.1592518 C28.4213375,68.1255488 29.0057624,70.7173883 30.9333608,71.9482873 C32.8609591,73.1791863 35.4017885,72.5830284 36.6084622,70.6167313 L36.6084622,70.6167313 Z" id="Shape" fill="#AFC4DB"></path>
                <path d="M53.400487,97.2843677 C59.2534757,89.4007199 65.9079708,81.698737 73.4151632,74.242353 C81.1562885,66.5536193 88.9855264,59.667203 96.8507878,53.5384957 C98.657989,52.1303026 99.0039161,49.4942986 97.6234377,47.6508158 C96.2429593,45.807333 93.6588345,45.454461 91.8516333,46.8626541 C83.7264228,53.1939168 75.6479716,60.2995355 67.6700271,68.2234855 C59.8644978,75.9761872 52.9362673,83.9949944 46.8353449,92.2125951 C45.4623775,94.0619053 45.8190246,96.6964225 47.6319385,98.0969538 C49.4448524,99.4974852 52.0275196,99.133678 53.400487,97.2843677 L53.400487,97.2843677 Z" id="Shape" fill="#44536A"></path>
                <path d="M89.7845325,63.715148 C90.9408078,65.219668 93.0702151,65.5144503 94.5406969,64.3735627 C96.0111786,63.232675 96.2658932,61.0881485 95.109618,59.5836285 L84.9477553,46.3612363 C83.7914801,44.8567164 81.6620728,44.5619341 80.191591,45.7028217 C78.7211093,46.8437093 78.4663946,48.9882359 79.6226699,50.4927559 L89.7845325,63.715148 Z" id="Shape" fill="#44536A"></path>
                <path d="M79.0764395,74.0018267 C80.3594424,75.3998455 82.5064386,75.5079159 83.8718898,74.2432088 C85.237341,72.9785017 85.3041786,70.8199358 84.0211757,69.421917 L72.7455747,57.1355047 C71.4625718,55.7374859 69.3155756,55.6294155 67.9501244,56.8941226 C66.5846732,58.1588298 66.5178356,60.3173956 67.8008385,61.7154144 L79.0764395,74.0018267 Z" id="Shape-Copy" fill="#44536A"></path>
                <path d="M67.8204556,84.5203161 C69.1748668,85.8492718 71.3245766,85.844829 72.6219669,84.510393 C73.9193571,83.1759569 73.8731325,81.0168512 72.5187213,79.6878956 L60.6155519,68.0084408 C59.2611407,66.6794851 57.1114309,66.6839278 55.8140406,68.0183639 C54.5166504,69.3528 54.562875,71.5119056 55.9172862,72.8408613 L67.8204556,84.5203161 Z" id="Shape-Copy-2" fill="#44536A"></path>
                <path d="M59.0020643,95.632843 C60.4671477,96.8386969 62.60829,96.6469115 63.7844395,95.2044784 C64.960589,93.7620452 64.7263618,91.6151844 63.2612784,90.4093305 L50.3854726,79.8117491 C48.9203893,78.6058952 46.7792469,78.7976806 45.6030974,80.2401138 C44.4269479,81.6825469 44.6611751,83.8294078 46.1262585,85.0352617 L59.0020643,95.632843 Z" id="Shape-Copy-3" fill="#44536A"></path>
            </g>
            <circle id="Oval-16" fill="#D8D8D8" cx="217" cy="294" r="16"></circle>
            <circle id="Oval-16-Copy-3" fill="#EDEDED" cx="88" cy="97" r="10"></circle>
            <circle id="Oval-16-Copy" fill="#EDEDED" cx="417" cy="561" r="16"></circle>
            <circle id="Oval-16-Copy-2" fill="#F0F0F0" cx="497" cy="180" r="32"></circle>
        </g>
    </g>
</svg>