<?xml version="1.0" encoding="UTF-8" standalone="no"?>
<svg width="256px" height="256px" viewBox="0 0 256 256" version="1.1" xmlns="http://www.w3.org/2000/svg" xmlns:xlink="http://www.w3.org/1999/xlink">
    <!-- Generator: Sketch 3.6.1 (26313) - http://www.bohemiancoding.com/sketch -->
    <title>Scheduling</title>
    <desc>Created with Sketch.</desc>
    <defs></defs>
    <g id="Page-1" stroke="none" stroke-width="1" fill="none" fill-rule="evenodd">
        <g id="Scheduling">
            <path d="M36.4942286,39.2797009 L36.4942286,39.2797009 L36.4942286,230.0991 C36.4942286,237.700363 42.6661343,243.884572 50.2795658,243.884572 L206.616549,243.884572 C214.230362,243.884572 220.401886,237.712606 220.401886,230.0991 L220.401886,39.2797009 C220.401886,31.6784382 214.229981,25.4942286 206.616549,25.4942286 L50.2795658,25.4942286 C42.6657531,25.4942286 36.4942286,31.6661948 36.4942286,39.2797009 L36.4942286,39.2797009 Z M25,39.2797009 C25,25.3180503 36.3177232,14 50.2795658,14 L118.444487,14 C121.707358,14 125.185186,25.5711187 128.448057,25.5711187 C132.010632,25.5711187 135.358251,14 138.920826,14 L206.616549,14 C220.575446,14 231.896115,25.3277252 231.896115,39.2797009 L231.896115,230.0991 C231.896115,244.06075 220.578392,255.378801 206.616549,255.378801 L50.2795658,255.378801 C36.3206692,255.378801 25,244.051076 25,230.0991 L25,39.2797009 Z" id="Rectangle-1" fill="#44536A"></path>
            <g id="Group" transform="translate(56.156310, 59.942392)">
                <rect id="Rectangle-2" fill="#44536A" x="49.0973451" y="23.2566372" width="93.0265487" height="10.3362832" rx="8"></rect>
                <rect id="Rectangle-2-Copy" fill="#44536A" x="49.0973451" y="59.4336283" width="93.0265487" height="10.3362832" rx="8"></rect>
                <rect id="Rectangle-2-Copy-2" fill="#44536A" x="49.0973451" y="95.6106195" width="93.0265487" height="10.3362832" rx="8"></rect>
                <rect id="Rectangle-2-Copy-3" fill="#44536A" x="49.0973451" y="131.787611" width="93.0265487" height="10.3362832" rx="8"></rect>
                <path d="M20.8562106,26.0243522 L11.8120763,26.0243522 C9.66283129,26.0243522 7.93585665,27.7597441 7.93585665,29.9004584 C7.93585665,32.0368168 9.67129931,33.7765646 11.8120763,33.7765646 L24.7322033,33.7765646 C25.7998105,33.7765646 26.7682788,33.3428121 27.4701525,32.6414225 C28.1766946,31.939808 28.608423,30.9707967 28.608423,29.9004584 C28.608423,29.8997707 28.6084228,29.899083 28.6084225,29.8983954 C28.6084228,29.897708 28.608423,29.8970203 28.608423,29.8963326 L28.608423,6.64794707 C28.608423,4.50133021 26.8730312,2.76771505 24.7323168,2.76771505 C22.5959584,2.76771505 20.8562106,4.5049541 20.8562106,6.64794707 L20.8562106,26.0243522 Z" id="Combined-Shape" fill="#6BC16F" transform="translate(18.272140, 18.272140) rotate(-315.000000) translate(-18.272140, -18.272140) "></path>
                <path d="M20.8562106,62.2013434 L11.8120763,62.2013434 C9.66283129,62.2013434 7.93585665,63.9367352 7.93585665,66.0774496 C7.93585665,68.213808 9.67129931,69.9535558 11.8120763,69.9535558 L24.7322033,69.9535558 C25.7998105,69.9535558 26.7682788,69.5198033 27.4701525,68.8184137 C28.1766946,68.1167992 28.608423,67.1477879 28.608423,66.0774496 C28.608423,66.0767618 28.6084228,66.0760742 28.6084225,66.0753865 C28.6084228,66.0746991 28.608423,66.0740115 28.608423,66.0733237 L28.608423,42.8249382 C28.608423,40.6783214 26.8730312,38.9447062 24.7323168,38.9447062 C22.5959584,38.9447062 20.8562106,40.6819453 20.8562106,42.8249382 L20.8562106,62.2013434 Z" id="Combined-Shape-Copy" fill="#6BC16F" transform="translate(18.272140, 54.449131) rotate(-315.000000) translate(-18.272140, -54.449131) "></path>
                <ellipse id="Oval-4" fill="#44536A" cx="14.8584071" cy="100.132743" rx="8.39823009" ry="8.39823009"></ellipse>
                <ellipse id="Oval-4-Copy" fill="#44536A" cx="14.8584071" cy="137.60177" rx="8.39823009" ry="8.39823009"></ellipse>
            </g>
            <path d="M86,20.0099192 C86,16.6907325 88.6905441,14 92.0051866,14 L117.962711,14 C121.208932,14 125.282424,25.4942286 128.528646,25.4942286 C132.259406,25.4942286 135.162896,14 138.893656,14 L166.203447,14 C169.51896,14 172.206715,16.6820591 172.206715,20.0099192 L172.206715,30.978538 C172.206715,34.2977247 169.520262,36.9884572 166.213269,36.9884572 L91.9934455,36.9884572 C88.683357,36.9884572 86,34.3063981 86,30.978538 L86,20.0099192 Z" id="Rectangle-10" fill="#44536A"></path>
            <path d="M127.793074,27.5861486 C135.410779,27.5861486 141.586149,21.4107789 141.586149,13.7930743 C141.586149,6.17536972 135.410779,0 127.793074,0 C120.17537,0 114,6.17536972 114,13.7930743 C114,21.4107789 120.17537,27.5861486 127.793074,27.5861486 Z M127.793074,19.5401886 C130.967118,19.5401886 133.540189,16.9671179 133.540189,13.7930743 C133.540189,10.6190307 130.967118,8.04596002 127.793074,8.04596002 C124.619031,8.04596002 122.04596,10.6190307 122.04596,13.7930743 C122.04596,16.9671179 124.619031,19.5401886 127.793074,19.5401886 Z" id="Combined-Shape" fill="#44536A"></path>
        </g>
    </g>
</svg>