<?xml version="1.0" encoding="UTF-8" standalone="no"?>
<svg width="620px" height="620px" viewBox="0 0 620 620" version="1.1" xmlns="http://www.w3.org/2000/svg" xmlns:xlink="http://www.w3.org/1999/xlink">
    <!-- Generator: Sketch 3.6.1 (26313) - http://www.bohemiancoding.com/sketch -->
    <title>Registration</title>
    <desc>Created with Sketch.</desc>
    <defs></defs>
    <g id="Page-1" stroke="none" stroke-width="1" fill="none" fill-rule="evenodd">
        <g id="Registration">
            <g id="Group-2" opacity="0.8" transform="translate(207.000000, 133.000000)">
                <rect id="Rectangle-5" fill-opacity="0.05" fill="#000000" x="16" y="16" width="380" height="400" rx="20"></rect>
                <rect id="Rectangle-5" stroke="#DDDDDD" stroke-width="2" fill="#FFFFFF" x="0" y="0" width="380" height="400" rx="8"></rect>
                <text id="League-Name" font-family="FuturaPT-Book, Futura PT" font-size="18" font-weight="300" fill="#666666">
                    <tspan x="32" y="108">League Name</tspan>
                </text>
                <path d="M42.728,183.984 L42.728,185.64 C42.2479976,185.159998 41.7260028,184.788001 41.162,184.524 C40.4779966,184.211998 39.7880035,184.056 39.092,184.056 C37.7119931,184.056 36.5630046,184.538995 35.645,185.505 C34.7269954,186.471005 34.268,187.655993 34.268,189.06 C34.268,190.572008 34.768995,191.765996 35.771,192.642 C36.773005,193.518004 37.8859939,193.956 39.11,193.956 C39.8780038,193.956 40.6219964,193.770002 41.342,193.398 C41.8460025,193.145999 42.3079979,192.810002 42.728,192.39 L42.728,194.046 C41.6359945,194.826004 40.4300066,195.216 39.11,195.216 C37.3339911,195.216 35.8550059,194.622006 34.673,193.434 C33.4909941,192.245994 32.9,190.782009 32.9,189.042 C32.9,187.253991 33.496994,185.766006 34.691,184.578 C35.885006,183.389994 37.381991,182.796 39.182,182.796 C40.5020066,182.796 41.6839948,183.191996 42.728,183.984 L42.728,183.984 Z M50.576,188.592 L50.576,187.53 L51.872,187.53 L51.872,195 L50.576,195 L50.576,193.956 C49.9279968,194.796004 49.0760053,195.216 48.02,195.216 C47.011995,195.216 46.1540035,194.868003 45.446,194.172 C44.7379965,193.475997 44.384,192.504006 44.384,191.256 C44.384,190.031994 44.7349965,189.075003 45.437,188.385 C46.1390035,187.694997 46.9999949,187.35 48.02,187.35 C49.1000054,187.35 49.9519969,187.763996 50.576,188.592 L50.576,188.592 Z M48.164,188.502 C47.4799966,188.502 46.9010024,188.744998 46.427,189.231 C45.9529976,189.717002 45.716,190.391996 45.716,191.256 C45.716,192.084004 45.9349978,192.758997 46.373,193.281 C46.8110022,193.803003 47.4079962,194.064 48.164,194.064 C48.9200038,194.064 49.5229977,193.794003 49.973,193.254 C50.4230022,192.713997 50.648,192.054004 50.648,191.274 C50.648,190.385996 50.3960025,189.702002 49.892,189.222 C49.3879975,188.741998 48.8120032,188.502 48.164,188.502 L48.164,188.502 Z M54.32,195 L54.32,187.53 L55.616,187.53 L55.616,188.34 C56.0360021,187.679997 56.5999965,187.35 57.308,187.35 C57.6680018,187.35 58.051998,187.451999 58.46,187.656 L57.848,188.826 C57.6079988,188.657999 57.3560013,188.574 57.092,188.574 C56.6359977,188.574 56.2880012,188.729998 56.048,189.042 C55.7599986,189.426002 55.616,190.097995 55.616,191.058 L55.616,195 L54.32,195 Z M64.94,188.592 L64.94,181.878 L66.236,181.878 L66.236,195 L64.94,195 L64.94,193.956 C64.2919968,194.796004 63.4400053,195.216 62.384,195.216 C61.375995,195.216 60.5180035,194.868003 59.81,194.172 C59.1019965,193.475997 58.748,192.504006 58.748,191.256 C58.748,190.031994 59.0989965,189.075003 59.801,188.385 C60.5030035,187.694997 61.3639949,187.35 62.384,187.35 C63.4640054,187.35 64.3159969,187.763996 64.94,188.592 L64.94,188.592 Z M62.528,188.502 C61.8439966,188.502 61.2650024,188.744998 60.791,189.231 C60.3169976,189.717002 60.08,190.391996 60.08,191.256 C60.08,192.084004 60.2989978,192.758997 60.737,193.281 C61.1750022,193.803003 61.7719962,194.064 62.528,194.064 C63.2840038,194.064 63.8869977,193.794003 64.337,193.254 C64.7870022,192.713997 65.012,192.054004 65.012,191.274 C65.012,190.385996 64.7600025,189.702002 64.256,189.222 C63.7519975,188.741998 63.1760032,188.502 62.528,188.502 L62.528,188.502 Z M74.534,195 L73.202,195 L73.202,182.49 L82.562,192.3 L82.562,182.994 L83.894,182.994 L83.894,195.54 L74.534,185.73 L74.534,195 Z M87.962,187.53 L87.962,191.886 C87.962,192.642004 88.0819988,193.175998 88.322,193.488 C88.6220015,193.872002 89.0599971,194.064 89.636,194.064 C90.2120029,194.064 90.6499985,193.872002 90.95,193.488 C91.1900012,193.175998 91.31,192.642004 91.31,191.886 L91.31,187.53 L92.606,187.53 L92.606,192.03 C92.606,193.038005 92.3780023,193.787998 91.922,194.28 C91.3339971,194.904003 90.5720047,195.216 89.636,195.216 C88.6999953,195.216 87.9380029,194.904003 87.35,194.28 C86.8939977,193.787998 86.666,193.038005 86.666,192.03 L86.666,187.53 L87.962,187.53 Z M95.054,195 L95.054,187.53 L96.35,187.53 L96.35,188.322 C96.7940022,187.673997 97.411996,187.35 98.204,187.35 C99.1040045,187.35 99.7819977,187.751996 100.238,188.556 C100.754003,187.751996 101.503995,187.35 102.488,187.35 C104.108008,187.35 104.918,188.32199 104.918,190.266 L104.918,195 L103.622,195 L103.622,190.464 C103.622,190.103998 103.601,189.801001 103.559,189.555 C103.517,189.308999 103.391001,189.072001 103.181,188.844 C102.970999,188.615999 102.674002,188.502 102.29,188.502 C101.185994,188.502 100.634,189.281992 100.634,190.842 L100.634,195 L99.338,195 L99.338,190.572 C99.338,189.191993 98.8880045,188.502 97.988,188.502 C96.8959945,188.502 96.35,189.311992 96.35,190.932 L96.35,195 L95.054,195 Z M108.68,193.956 L108.68,195 L107.384,195 L107.384,181.878 L108.68,181.878 L108.68,188.574 C109.340003,187.757996 110.191995,187.35 111.236,187.35 C112.352006,187.35 113.236997,187.742996 113.891,188.529 C114.545003,189.315004 114.872,190.241995 114.872,191.31 C114.872,192.390005 114.548003,193.310996 113.9,194.073 C113.251997,194.835004 112.382005,195.216 111.29,195.216 C110.197995,195.216 109.328003,194.796004 108.68,193.956 L108.68,193.956 Z M111.11,194.064 C111.842004,194.064 112.429998,193.797003 112.874,193.263 C113.318002,192.728997 113.54,192.078004 113.54,191.31 C113.54,190.445996 113.294002,189.762003 112.802,189.258 C112.309998,188.753997 111.740003,188.502 111.092,188.502 C110.443997,188.502 109.868003,188.753997 109.364,189.258 C108.859997,189.762003 108.608,190.439996 108.608,191.292 C108.608,192.072004 108.838998,192.728997 109.301,193.263 C109.763002,193.797003 110.365996,194.064 111.11,194.064 L111.11,194.064 Z M122.396,192.498 L123.476,193.092 C123.223999,193.572002 122.918002,193.973998 122.558,194.298 C121.873997,194.910003 121.046005,195.216 120.074,195.216 C119.065995,195.216 118.199004,194.889003 117.473,194.235 C116.746996,193.580997 116.384,192.606006 116.384,191.31 C116.384,190.169994 116.710997,189.225004 117.365,188.475 C118.019003,187.724996 118.897994,187.35 120.002,187.35 C121.250006,187.35 122.191997,187.805995 122.828,188.718 C123.332003,189.438004 123.566,190.373994 123.53,191.526 L117.716,191.526 C117.728,192.282004 117.961998,192.893998 118.418,193.362 C118.874002,193.830002 119.431997,194.064 120.092,194.064 C120.680003,194.064 121.189998,193.884002 121.622,193.524 C121.958002,193.235999 122.215999,192.894002 122.396,192.498 L122.396,192.498 Z M117.806,190.446 L122.198,190.446 C122.089999,189.857997 121.835002,189.387002 121.433,189.033 C121.030998,188.678998 120.554003,188.502 120.002,188.502 C119.461997,188.502 118.985002,188.684998 118.571,189.051 C118.156998,189.417002 117.902,189.881997 117.806,190.446 L117.806,190.446 Z M125.51,195 L125.51,187.53 L126.806,187.53 L126.806,188.34 C127.226002,187.679997 127.789996,187.35 128.498,187.35 C128.858002,187.35 129.241998,187.451999 129.65,187.656 L129.038,188.826 C128.797999,188.657999 128.546001,188.574 128.282,188.574 C127.825998,188.574 127.478001,188.729998 127.238,189.042 C126.949999,189.426002 126.806,190.097995 126.806,191.058 L126.806,195 L125.51,195 Z" id="Card-Number" fill="#666666"></path>
                <path d="M39.974,281.668 L38.912,282.37 C38.719999,281.997998 38.4860014,281.698001 38.21,281.47 C37.8499982,281.193999 37.4000027,281.056 36.86,281.056 C36.259997,281.056 35.7740019,281.226998 35.402,281.569 C35.0299981,281.911002 34.844,282.357997 34.844,282.91 C34.844,283.318002 34.9939985,283.665999 35.294,283.954 C35.5340012,284.194001 35.953997,284.445999 36.554,284.71 L37.706,285.214 C38.5580043,285.586002 39.1759981,285.963998 39.56,286.348 C40.1360029,286.924003 40.424,287.649996 40.424,288.526 C40.424,289.618005 40.0640036,290.505997 39.344,291.19 C38.6239964,291.874003 37.7180055,292.216 36.626,292.216 C35.5459946,292.216 34.6760033,291.892003 34.016,291.244 C33.4759973,290.715997 33.104001,290.008004 32.9,289.12 L34.196,288.76 C34.2800004,289.360003 34.519998,289.869998 34.916,290.29 C35.3600022,290.734002 35.9359965,290.956 36.644,290.956 C37.4120038,290.956 38.0059979,290.725002 38.426,290.263 C38.8460021,289.800998 39.056,289.240003 39.056,288.58 C39.056,288.003997 38.858002,287.536002 38.462,287.176 C38.2339989,286.959999 37.7540037,286.684002 37.022,286.348 L35.942,285.844 C35.2099963,285.507998 34.6760017,285.178002 34.34,284.854 C33.7879972,284.325997 33.512,283.672004 33.512,282.892 C33.512,281.967995 33.8269968,281.221003 34.457,280.651 C35.0870031,280.080997 35.8939951,279.796 36.878,279.796 C37.6220037,279.796 38.2639973,279.975998 38.804,280.336 C39.2960025,280.660002 39.6859986,281.103997 39.974,281.668 L39.974,281.668 Z M48.092,289.498 L49.172,290.092 C48.9199987,290.572002 48.6140018,290.973998 48.254,291.298 C47.5699966,291.910003 46.7420049,292.216 45.77,292.216 C44.761995,292.216 43.8950036,291.889003 43.169,291.235 C42.4429964,290.580997 42.08,289.606006 42.08,288.31 C42.08,287.169994 42.4069967,286.225004 43.061,285.475 C43.7150033,284.724996 44.5939945,284.35 45.698,284.35 C46.9460062,284.35 47.8879968,284.805995 48.524,285.718 C49.0280025,286.438004 49.2620002,287.373994 49.226,288.526 L43.412,288.526 C43.4240001,289.282004 43.6579977,289.893998 44.114,290.362 C44.5700023,290.830002 45.1279967,291.064 45.788,291.064 C46.3760029,291.064 46.8859978,290.884002 47.318,290.524 C47.6540017,290.235999 47.9119991,289.894002 48.092,289.498 L48.092,289.498 Z M43.502,287.446 L47.894,287.446 C47.7859995,286.857997 47.531002,286.387002 47.129,286.033 C46.726998,285.678998 46.2500028,285.502 45.698,285.502 C45.1579973,285.502 44.6810021,285.684998 44.267,286.051 C43.8529979,286.417002 43.5980005,286.881997 43.502,287.446 L43.502,287.446 Z M57.056,285.07 L57.056,286.618 C56.4679971,285.873996 55.6880049,285.502 54.716,285.502 C53.9839963,285.502 53.3600026,285.750998 52.844,286.249 C52.3279974,286.747002 52.07,287.427996 52.07,288.292 C52.07,289.156004 52.3279974,289.833998 52.844,290.326 C53.3600026,290.818002 53.9779964,291.064 54.698,291.064 C55.6580048,291.064 56.4619968,290.674004 57.11,289.894 L57.11,291.442 C56.4019965,291.958003 55.6100044,292.216 54.734,292.216 C53.5699942,292.216 52.6130037,291.847004 51.863,291.109 C51.1129962,290.370996 50.738,289.438006 50.738,288.31 C50.738,287.169994 51.1159962,286.225004 51.872,285.475 C52.6280038,284.724996 53.5819942,284.35 54.734,284.35 C55.5980043,284.35 56.3719966,284.589998 57.056,285.07 L57.056,285.07 Z M60.386,284.53 L60.386,288.886 C60.386,289.642004 60.5059988,290.175998 60.746,290.488 C61.0460015,290.872002 61.4839971,291.064 62.06,291.064 C62.6360029,291.064 63.0739985,290.872002 63.374,290.488 C63.6140012,290.175998 63.734,289.642004 63.734,288.886 L63.734,284.53 L65.03,284.53 L65.03,289.03 C65.03,290.038005 64.8020023,290.787998 64.346,291.28 C63.7579971,291.904003 62.9960047,292.216 62.06,292.216 C61.1239953,292.216 60.3620029,291.904003 59.774,291.28 C59.3179977,290.787998 59.09,290.038005 59.09,289.03 L59.09,284.53 L60.386,284.53 Z M67.478,292 L67.478,284.53 L68.774,284.53 L68.774,285.34 C69.1940021,284.679997 69.7579965,284.35 70.466,284.35 C70.8260018,284.35 71.209998,284.451999 71.618,284.656 L71.006,285.826 C70.7659988,285.657999 70.5140013,285.574 70.25,285.574 C69.7939977,285.574 69.4460012,285.729998 69.206,286.042 C68.9179986,286.426002 68.774,287.097995 68.774,288.058 L68.774,292 L67.478,292 Z M72.806,284.53 L74.102,284.53 L74.102,292 L72.806,292 L72.806,284.53 Z M72.536,281.704 C72.536,281.451999 72.6259991,281.236001 72.806,281.056 C72.9860009,280.875999 73.2019987,280.786 73.454,280.786 C73.7060013,280.786 73.9219991,280.875999 74.102,281.056 C74.2820009,281.236001 74.372,281.451999 74.372,281.704 C74.372,281.956001 74.2820009,282.171999 74.102,282.352 C73.9219991,282.532001 73.7060013,282.622 73.454,282.622 C73.2019987,282.622 72.9860009,282.532001 72.806,282.352 C72.6259991,282.171999 72.536,281.956001 72.536,281.704 L72.536,281.704 Z M79.178,285.718 L77.882,285.718 L77.882,292 L76.586,292 L76.586,285.718 L75.794,285.718 L75.794,284.53 L76.586,284.53 L76.586,281.83 L77.882,281.83 L77.882,284.53 L79.178,284.53 L79.178,285.718 Z M80.924,296.14 L83.3,291.298 L79.862,284.53 L81.338,284.53 L83.984,289.876 L86.414,284.53 L87.854,284.53 L82.364,296.14 L80.924,296.14 Z M102.92,280.984 L102.92,282.64 C102.439998,282.159998 101.918003,281.788001 101.354,281.524 C100.669997,281.211998 99.9800035,281.056 99.284,281.056 C97.9039931,281.056 96.7550046,281.538995 95.837,282.505 C94.9189954,283.471005 94.46,284.655993 94.46,286.06 C94.46,287.572008 94.960995,288.765996 95.963,289.642 C96.965005,290.518004 98.0779939,290.956 99.302,290.956 C100.070004,290.956 100.813996,290.770002 101.534,290.398 C102.038003,290.145999 102.499998,289.810002 102.92,289.39 L102.92,291.046 C101.827995,291.826004 100.622007,292.216 99.302,292.216 C97.5259911,292.216 96.0470059,291.622006 94.865,290.434 C93.6829941,289.245994 93.092,287.782009 93.092,286.042 C93.092,284.253991 93.688994,282.766006 94.883,281.578 C96.077006,280.389994 97.573991,279.796 99.374,279.796 C100.694007,279.796 101.875995,280.191996 102.92,280.984 L102.92,280.984 Z M108.536,292.216 C107.395994,292.216 106.451004,291.844004 105.701,291.1 C104.950996,290.355996 104.576,289.420006 104.576,288.292 C104.576,287.151994 104.950996,286.210004 105.701,285.466 C106.451004,284.721996 107.395994,284.35 108.536,284.35 C109.676006,284.35 110.620996,284.721996 111.371,285.466 C112.121004,286.210004 112.496,287.151994 112.496,288.292 C112.496,289.420006 112.121004,290.355996 111.371,291.1 C110.620996,291.844004 109.676006,292.216 108.536,292.216 L108.536,292.216 Z M108.536,285.502 C107.803996,285.502 107.183003,285.750998 106.673,286.249 C106.162997,286.747002 105.908,287.427996 105.908,288.292 C105.908,289.156004 106.165997,289.833998 106.682,290.326 C107.198003,290.818002 107.815996,291.064 108.536,291.064 C109.256004,291.064 109.873997,290.818002 110.39,290.326 C110.906003,289.833998 111.164,289.156004 111.164,288.292 C111.164,287.415996 110.909003,286.732002 110.399,286.24 C109.888997,285.747998 109.268004,285.502 108.536,285.502 L108.536,285.502 Z M120.2,285.592 L120.2,278.878 L121.496,278.878 L121.496,292 L120.2,292 L120.2,290.956 C119.551997,291.796004 118.700005,292.216 117.644,292.216 C116.635995,292.216 115.778004,291.868003 115.07,291.172 C114.361996,290.475997 114.008,289.504006 114.008,288.256 C114.008,287.031994 114.358996,286.075003 115.061,285.385 C115.763004,284.694997 116.623995,284.35 117.644,284.35 C118.724005,284.35 119.575997,284.763996 120.2,285.592 L120.2,285.592 Z M117.788,285.502 C117.103997,285.502 116.525002,285.744998 116.051,286.231 C115.576998,286.717002 115.34,287.391996 115.34,288.256 C115.34,289.084004 115.558998,289.758997 115.997,290.281 C116.435002,290.803003 117.031996,291.064 117.788,291.064 C118.544004,291.064 119.146998,290.794003 119.597,290.254 C120.047002,289.713997 120.272,289.054004 120.272,288.274 C120.272,287.385996 120.020003,286.702002 119.516,286.222 C119.011997,285.741998 118.436003,285.502 117.788,285.502 L117.788,285.502 Z M129.488,289.498 L130.568,290.092 C130.315999,290.572002 130.010002,290.973998 129.65,291.298 C128.965997,291.910003 128.138005,292.216 127.166,292.216 C126.157995,292.216 125.291004,291.889003 124.565,291.235 C123.838996,290.580997 123.476,289.606006 123.476,288.31 C123.476,287.169994 123.802997,286.225004 124.457,285.475 C125.111003,284.724996 125.989994,284.35 127.094,284.35 C128.342006,284.35 129.283997,284.805995 129.92,285.718 C130.424003,286.438004 130.658,287.373994 130.622,288.526 L124.808,288.526 C124.82,289.282004 125.053998,289.893998 125.51,290.362 C125.966002,290.830002 126.523997,291.064 127.184,291.064 C127.772003,291.064 128.281998,290.884002 128.714,290.524 C129.050002,290.235999 129.307999,289.894002 129.488,289.498 L129.488,289.498 Z M124.898,287.446 L129.29,287.446 C129.181999,286.857997 128.927002,286.387002 128.525,286.033 C128.122998,285.678998 127.646003,285.502 127.094,285.502 C126.553997,285.502 126.077002,285.684998 125.663,286.051 C125.248998,286.417002 124.994,286.881997 124.898,287.446 L124.898,287.446 Z" id="Security-Code" fill="#666666"></path>
                <path d="M200.502,292 L199.134,292 L201.132,279.328 L205.74,289.462 L210.438,279.31 L212.31,292 L210.942,292 L209.808,283.648 L205.722,292.504 L201.69,283.648 L200.502,292 Z M216.036,292 L214.668,292 L216.666,279.328 L221.274,289.462 L225.972,279.31 L227.844,292 L226.476,292 L225.342,283.648 L221.256,292.504 L217.224,283.648 L216.036,292 Z" id="MM" fill="#666666"></path>
                <path d="M287.086,292 L287.086,286.834 L283.144,279.994 L284.692,279.994 L287.752,285.358 L290.848,279.994 L292.396,279.994 L288.418,286.834 L288.418,292 L287.086,292 Z M296.626,292 L296.626,286.834 L292.684,279.994 L294.232,279.994 L297.292,285.358 L300.388,279.994 L301.936,279.994 L297.958,286.834 L297.958,292 L296.626,292 Z M306.166,292 L306.166,286.834 L302.224,279.994 L303.772,279.994 L306.832,285.358 L309.928,279.994 L311.476,279.994 L307.498,286.834 L307.498,292 L306.166,292 Z M315.706,292 L315.706,286.834 L311.764,279.994 L313.312,279.994 L316.372,285.358 L319.468,279.994 L321.016,279.994 L317.038,286.834 L317.038,292 L315.706,292 Z" id="YYYY" fill="#666666"></path>
                <rect id="Rectangle-7" fill="#EDEDED" x="32" y="95" width="316" height="50"></rect>
                <rect id="Rectangle-7-Copy" stroke="#CCCCCC" stroke-width="2" fill="#FFFFFF" x="32" y="208" width="316" height="50" rx="4"></rect>
                <rect id="Rectangle-7-Copy-4" stroke="#CCCCCC" stroke-width="2" fill="#FFFFFF" x="32" y="305" width="146" height="50" rx="4"></rect>
                <rect id="Rectangle-7-Copy-5" stroke="#CCCCCC" stroke-width="2" fill="#FFFFFF" x="198" y="305" width="65" height="50" rx="4"></rect>
                <rect id="Rectangle-7-Copy-6" stroke="#CCCCCC" stroke-width="2" fill="#FFFFFF" x="283" y="305" width="65" height="50" rx="4"></rect>
                <rect id="Rectangle-13" fill="#EDEDED" x="54" y="229" width="148" height="8"></rect>
                <rect id="Rectangle-13-Copy-7" fill="#888888" x="54" y="116" width="180" height="8"></rect>
                <rect id="Rectangle-13-Copy-4" fill="#EDEDED" x="54" y="326" width="48" height="8"></rect>
                <rect id="Rectangle-13-Copy-5" fill="#EDEDED" x="220" y="326" width="20" height="8"></rect>
                <rect id="Rectangle-13-Copy-6" fill="#EDEDED" x="305" y="326" width="20" height="8"></rect>
                <g id="Group" transform="translate(120.000000, 33.000000)" fill="#68C26B">
                    <rect id="Rectangle-11" x="10" y="8" width="120" height="4"></rect>
                    <ellipse id="Oval-2" cx="10" cy="10" rx="10" ry="10"></ellipse>
                    <ellipse id="Oval-2-Copy" cx="70" cy="10" rx="10" ry="10"></ellipse>
                    <ellipse id="Oval-2-Copy-2" cx="130" cy="10" rx="10" ry="10"></ellipse>
                </g>
                <path d="M303.88,111.7 L305.52,111.7 L305.52,113.7 C306.080003,113.74 306.626664,113.893332 307.16,114.16 C307.706669,114.453335 308.159998,114.799998 308.52,115.2 L307.2,116.88 C306.61333,116.159996 305.913337,115.8 305.1,115.8 C304.499997,115.8 304.046668,115.959998 303.74,116.28 C303.486665,116.533335 303.36,116.846665 303.36,117.22 C303.36,117.593335 303.533332,117.906665 303.88,118.16 C304.080001,118.306667 304.626662,118.579998 305.52,118.98 C305.586667,119.006667 305.743332,119.073333 305.99,119.18 C306.236668,119.286667 306.419999,119.37 306.54,119.43 C306.660001,119.49 306.816666,119.569999 307.01,119.67 C307.203334,119.77 307.373333,119.876666 307.52,119.99 C307.666667,120.103334 307.806666,120.219999 307.94,120.34 C308.620003,120.980003 308.96,121.806662 308.96,122.82 C308.96,124.033339 308.560004,125.026663 307.76,125.8 C307.159997,126.400003 306.413338,126.786666 305.52,126.96 L305.52,129.2 L303.88,129.2 L303.88,127 C302.946662,126.893333 302.100004,126.586669 301.34,126.08 C300.766664,125.693331 300.280002,125.20667 299.88,124.62 L301.38,123.08 C301.740002,123.613336 302.119998,124.013332 302.52,124.28 C303.026669,124.653335 303.63333,124.84 304.34,124.84 C304.993337,124.84 305.499998,124.666668 305.86,124.32 C306.193335,123.986665 306.36,123.573336 306.36,123.08 C306.36,122.679998 306.206668,122.313335 305.9,121.98 C305.739999,121.806666 305.260004,121.546668 304.46,121.2 C303.259994,120.719998 302.373336,120.206669 301.8,119.66 C301.17333,119.07333 300.86,118.306671 300.86,117.36 C300.86,116.413329 301.159997,115.600003 301.76,114.92 C302.333336,114.29333 303.039996,113.886668 303.88,113.7 L303.88,111.7 Z M319.68,113.66 L319.68,122.4 L321.24,122.4 L321.24,124.48 L319.68,124.48 L319.68,127 L317.24,127 L317.24,124.48 L310.72,124.48 L310.72,123.32 L317.34,113.66 L319.68,113.66 Z M313.8,122.4 L317.24,122.4 L317.24,117.32 L313.8,122.4 Z M329.58,120.04 C330.313337,120.280001 330.893331,120.699997 331.32,121.3 C331.746669,121.900003 331.96,122.586663 331.96,123.36 C331.96,124.493339 331.536671,125.43333 330.69,126.18 C329.843329,126.92667 328.720007,127.3 327.32,127.3 C325.919993,127.3 324.796671,126.92667 323.95,126.18 C323.103329,125.43333 322.68,124.493339 322.68,123.36 C322.68,122.586663 322.893331,121.900003 323.32,121.3 C323.746669,120.699997 324.326663,120.280001 325.06,120.04 C324.499997,119.759999 324.040002,119.370002 323.68,118.87 C323.319998,118.369997 323.14,117.773337 323.14,117.08 C323.14,116.039995 323.506663,115.160004 324.24,114.44 C324.973337,113.719996 325.999993,113.36 327.32,113.36 C328.640007,113.36 329.666663,113.719996 330.4,114.44 C331.133337,115.160004 331.5,116.039995 331.5,117.08 C331.5,117.773337 331.320002,118.369997 330.96,118.87 C330.599998,119.370002 330.140003,119.759999 329.58,120.04 L329.58,120.04 Z M327.32,118.96 C327.866669,118.96 328.313332,118.786668 328.66,118.44 C329.006668,118.093332 329.18,117.646669 329.18,117.1 C329.18,116.553331 329.006668,116.106668 328.66,115.76 C328.313332,115.413332 327.866669,115.24 327.32,115.24 C326.773331,115.24 326.326668,115.413332 325.98,115.76 C325.633332,116.106668 325.46,116.553331 325.46,117.1 C325.46,117.646669 325.633332,118.093332 325.98,118.44 C326.326668,118.786668 326.773331,118.96 327.32,118.96 L327.32,118.96 Z M327.32,125.26 C327.90667,125.26 328.393331,125.063335 328.78,124.67 C329.166669,124.276665 329.36,123.780003 329.36,123.18 C329.36,122.579997 329.166669,122.083335 328.78,121.69 C328.393331,121.296665 327.90667,121.1 327.32,121.1 C326.73333,121.1 326.246669,121.296665 325.86,121.69 C325.473331,122.083335 325.28,122.579997 325.28,123.18 C325.28,123.780003 325.473331,124.276665 325.86,124.67 C326.246669,125.063335 326.73333,125.26 327.32,125.26 L327.32,125.26 Z" id="$48" fill="#666666"></path>
            </g>
            <g id="Group-3" transform="translate(17.000000, 33.000000)">
                <rect id="Rectangle-5-Copy" fill-opacity="0.05" fill="#000000" x="14" y="14" width="380" height="540" rx="20"></rect>
                <rect id="Rectangle-5-Copy" stroke="#DDDDDD" stroke-width="2" fill="#FFFFFF" x="0" y="0" width="380" height="540" rx="8"></rect>
                <path d="M33.548,94.994 L34.88,94.994 L34.88,105.74 L38.192,105.74 L38.192,107 L33.548,107 L33.548,94.994 Z M45.212,104.498 L46.292,105.092 C46.0399987,105.572002 45.7340018,105.973998 45.374,106.298 C44.6899966,106.910003 43.8620049,107.216 42.89,107.216 C41.881995,107.216 41.0150036,106.889003 40.289,106.235 C39.5629964,105.580997 39.2,104.606006 39.2,103.31 C39.2,102.169994 39.5269967,101.225004 40.181,100.475 C40.8350033,99.7249963 41.7139945,99.35 42.818,99.35 C44.0660062,99.35 45.0079968,99.8059954 45.644,100.718 C46.1480025,101.438004 46.3820002,102.373994 46.346,103.526 L40.532,103.526 C40.5440001,104.282004 40.7779977,104.893998 41.234,105.362 C41.6900023,105.830002 42.2479967,106.064 42.908,106.064 C43.4960029,106.064 44.0059978,105.884002 44.438,105.524 C44.7740017,105.235999 45.0319991,104.894002 45.212,104.498 L45.212,104.498 Z M40.622,102.446 L45.014,102.446 C44.9059995,101.857997 44.651002,101.387002 44.249,101.033 C43.846998,100.678998 43.3700028,100.502 42.818,100.502 C42.2779973,100.502 41.8010021,100.684998 41.387,101.051 C40.9729979,101.417002 40.7180005,101.881997 40.622,102.446 L40.622,102.446 Z M54.05,100.592 L54.05,99.53 L55.346,99.53 L55.346,107 L54.05,107 L54.05,105.956 C53.4019968,106.796004 52.5500053,107.216 51.494,107.216 C50.485995,107.216 49.6280035,106.868003 48.92,106.172 C48.2119965,105.475997 47.858,104.504006 47.858,103.256 C47.858,102.031994 48.2089965,101.075003 48.911,100.385 C49.6130035,99.6949966 50.4739949,99.35 51.494,99.35 C52.5740054,99.35 53.4259969,99.7639959 54.05,100.592 L54.05,100.592 Z M51.638,100.502 C50.9539966,100.502 50.3750024,100.744998 49.901,101.231 C49.4269976,101.717002 49.19,102.391996 49.19,103.256 C49.19,104.084004 49.4089978,104.758997 49.847,105.281 C50.2850022,105.803003 50.8819962,106.064 51.638,106.064 C52.3940038,106.064 52.9969978,105.794003 53.447,105.254 C53.8970022,104.713997 54.122,104.054004 54.122,103.274 C54.122,102.385996 53.8700025,101.702002 53.366,101.222 C52.8619975,100.741998 52.2860032,100.502 51.638,100.502 L51.638,100.502 Z M63.518,100.592 L63.518,99.53 L64.814,99.53 L64.814,106.82 C64.814,108.128007 64.5740024,109.105997 64.094,109.754 C63.4099966,110.678005 62.4140065,111.14 61.106,111.14 C60.0019945,111.14 59.1140034,110.804003 58.442,110.132 C57.7939968,109.483997 57.47,108.680005 57.47,107.72 L58.748,107.72 C58.748,108.320003 58.9399981,108.835998 59.324,109.268 C59.7560022,109.748002 60.3559962,109.988 61.124,109.988 C62.0240045,109.988 62.6839979,109.640003 63.104,108.944 C63.3800014,108.499998 63.518,107.864004 63.518,107.036 L63.518,105.956 C62.8699968,106.796004 62.0180053,107.216 60.962,107.216 C59.9299948,107.216 59.0780034,106.880003 58.406,106.208 C57.6859964,105.487996 57.326,104.504006 57.326,103.256 C57.326,102.043994 57.6859964,101.078004 58.406,100.358 C59.1020035,99.6859966 59.953995,99.35 60.962,99.35 C62.0300053,99.35 62.8819968,99.7639959 63.518,100.592 L63.518,100.592 Z M61.106,100.502 C60.4459967,100.502 59.8820023,100.735998 59.414,101.204 C58.9099975,101.720003 58.658,102.403996 58.658,103.256 C58.658,104.204005 58.9399972,104.935997 59.504,105.452 C59.9480022,105.860002 60.4819969,106.064 61.106,106.064 C61.7780034,106.064 62.3239979,105.854002 62.744,105.434 C63.3080028,104.893997 63.59,104.174005 63.59,103.274 C63.59,102.373996 63.3260026,101.672003 62.798,101.168 C62.3539978,100.723998 61.7900034,100.502 61.106,100.502 L61.106,100.502 Z M68.558,99.53 L68.558,103.886 C68.558,104.642004 68.6779988,105.175998 68.918,105.488 C69.2180015,105.872002 69.6559971,106.064 70.232,106.064 C70.8080029,106.064 71.2459985,105.872002 71.546,105.488 C71.7860012,105.175998 71.906,104.642004 71.906,103.886 L71.906,99.53 L73.202,99.53 L73.202,104.03 C73.202,105.038005 72.9740023,105.787998 72.518,106.28 C71.9299971,106.904003 71.1680047,107.216 70.232,107.216 C69.2959953,107.216 68.5340029,106.904003 67.946,106.28 C67.4899977,105.787998 67.262,105.038005 67.262,104.03 L67.262,99.53 L68.558,99.53 Z M81.194,104.498 L82.274,105.092 C82.0219987,105.572002 81.7160018,105.973998 81.356,106.298 C80.6719966,106.910003 79.8440049,107.216 78.872,107.216 C77.863995,107.216 76.9970036,106.889003 76.271,106.235 C75.5449964,105.580997 75.182,104.606006 75.182,103.31 C75.182,102.169994 75.5089967,101.225004 76.163,100.475 C76.8170033,99.7249963 77.6959945,99.35 78.8,99.35 C80.0480062,99.35 80.9899968,99.8059954 81.626,100.718 C82.1300025,101.438004 82.3640002,102.373994 82.328,103.526 L76.514,103.526 C76.5260001,104.282004 76.7599977,104.893998 77.216,105.362 C77.6720023,105.830002 78.2299967,106.064 78.89,106.064 C79.4780029,106.064 79.9879978,105.884002 80.42,105.524 C80.7560017,105.235999 81.0139991,104.894002 81.194,104.498 L81.194,104.498 Z M76.604,102.446 L80.996,102.446 C80.8879995,101.857997 80.633002,101.387002 80.231,101.033 C79.828998,100.678998 79.3520028,100.502 78.8,100.502 C78.2599973,100.502 77.7830021,100.684998 77.369,101.051 C76.9549979,101.417002 76.7000005,101.881997 76.604,102.446 L76.604,102.446 Z M90.158,107 L88.826,107 L88.826,94.49 L98.186,104.3 L98.186,94.994 L99.518,94.994 L99.518,107.54 L90.158,97.73 L90.158,107 Z M108.014,100.592 L108.014,99.53 L109.31,99.53 L109.31,107 L108.014,107 L108.014,105.956 C107.365997,106.796004 106.514005,107.216 105.458,107.216 C104.449995,107.216 103.592004,106.868003 102.884,106.172 C102.175996,105.475997 101.822,104.504006 101.822,103.256 C101.822,102.031994 102.172996,101.075003 102.875,100.385 C103.577004,99.6949966 104.437995,99.35 105.458,99.35 C106.538005,99.35 107.389997,99.7639959 108.014,100.592 L108.014,100.592 Z M105.602,100.502 C104.917997,100.502 104.339002,100.744998 103.865,101.231 C103.390998,101.717002 103.154,102.391996 103.154,103.256 C103.154,104.084004 103.372998,104.758997 103.811,105.281 C104.249002,105.803003 104.845996,106.064 105.602,106.064 C106.358004,106.064 106.960998,105.794003 107.411,105.254 C107.861002,104.713997 108.086,104.054004 108.086,103.274 C108.086,102.385996 107.834003,101.702002 107.33,101.222 C106.825997,100.741998 106.250003,100.502 105.602,100.502 L105.602,100.502 Z M111.758,107 L111.758,99.53 L113.054,99.53 L113.054,100.322 C113.498002,99.6739968 114.115996,99.35 114.908,99.35 C115.808005,99.35 116.485998,99.751996 116.942,100.556 C117.458003,99.751996 118.207995,99.35 119.192,99.35 C120.812008,99.35 121.622,100.32199 121.622,102.266 L121.622,107 L120.326,107 L120.326,102.464 C120.326,102.103998 120.305,101.801001 120.263,101.555 C120.221,101.308999 120.095001,101.072001 119.885,100.844 C119.674999,100.615999 119.378002,100.502 118.994,100.502 C117.889994,100.502 117.338,101.281992 117.338,102.842 L117.338,107 L116.042,107 L116.042,102.572 C116.042,101.191993 115.592005,100.502 114.692,100.502 C113.599995,100.502 113.054,101.311992 113.054,102.932 L113.054,107 L111.758,107 Z M129.632,104.498 L130.712,105.092 C130.459999,105.572002 130.154002,105.973998 129.794,106.298 C129.109997,106.910003 128.282005,107.216 127.31,107.216 C126.301995,107.216 125.435004,106.889003 124.709,106.235 C123.982996,105.580997 123.62,104.606006 123.62,103.31 C123.62,102.169994 123.946997,101.225004 124.601,100.475 C125.255003,99.7249963 126.133994,99.35 127.238,99.35 C128.486006,99.35 129.427997,99.8059954 130.064,100.718 C130.568003,101.438004 130.802,102.373994 130.766,103.526 L124.952,103.526 C124.964,104.282004 125.197998,104.893998 125.654,105.362 C126.110002,105.830002 126.667997,106.064 127.328,106.064 C127.916003,106.064 128.425998,105.884002 128.858,105.524 C129.194002,105.235999 129.451999,104.894002 129.632,104.498 L129.632,104.498 Z M125.042,102.446 L129.434,102.446 C129.325999,101.857997 129.071002,101.387002 128.669,101.033 C128.266998,100.678998 127.790003,100.502 127.238,100.502 C126.697997,100.502 126.221002,100.684998 125.807,101.051 C125.392998,101.417002 125.138,101.881997 125.042,102.446 L125.042,102.446 Z" id="League-Name" fill="#666666"></path>
                <path d="M34.88,332 L33.548,332 L33.548,319.49 L42.908,329.3 L42.908,319.994 L44.24,319.994 L44.24,332.54 L34.88,322.73 L34.88,332 Z M48.308,324.53 L48.308,328.886 C48.308,329.642004 48.4279988,330.175998 48.668,330.488 C48.9680015,330.872002 49.4059971,331.064 49.982,331.064 C50.5580029,331.064 50.9959985,330.872002 51.296,330.488 C51.5360012,330.175998 51.656,329.642004 51.656,328.886 L51.656,324.53 L52.952,324.53 L52.952,329.03 C52.952,330.038005 52.7240023,330.787998 52.268,331.28 C51.6799971,331.904003 50.9180047,332.216 49.982,332.216 C49.0459953,332.216 48.2840029,331.904003 47.696,331.28 C47.2399977,330.787998 47.012,330.038005 47.012,329.03 L47.012,324.53 L48.308,324.53 Z M55.4,332 L55.4,324.53 L56.696,324.53 L56.696,325.322 C57.1400022,324.673997 57.757996,324.35 58.55,324.35 C59.4500045,324.35 60.1279977,324.751996 60.584,325.556 C61.1000026,324.751996 61.8499951,324.35 62.834,324.35 C64.4540081,324.35 65.264,325.32199 65.264,327.266 L65.264,332 L63.968,332 L63.968,327.464 C63.968,327.103998 63.9470002,326.801001 63.905,326.555 C63.8629998,326.308999 63.737001,326.072001 63.527,325.844 C63.3169989,325.615999 63.0200019,325.502 62.636,325.502 C61.5319945,325.502 60.98,326.281992 60.98,327.842 L60.98,332 L59.684,332 L59.684,327.572 C59.684,326.191993 59.2340045,325.502 58.334,325.502 C57.2419945,325.502 56.696,326.311992 56.696,327.932 L56.696,332 L55.4,332 Z M69.026,330.956 L69.026,332 L67.73,332 L67.73,318.878 L69.026,318.878 L69.026,325.574 C69.6860033,324.757996 70.5379948,324.35 71.582,324.35 C72.6980056,324.35 73.5829967,324.742996 74.237,325.529 C74.8910033,326.315004 75.218,327.241995 75.218,328.31 C75.218,329.390005 74.8940032,330.310996 74.246,331.073 C73.5979968,331.835004 72.7280055,332.216 71.636,332.216 C70.5439945,332.216 69.6740032,331.796004 69.026,330.956 L69.026,330.956 Z M71.456,331.064 C72.1880037,331.064 72.7759978,330.797003 73.22,330.263 C73.6640022,329.728997 73.886,329.078004 73.886,328.31 C73.886,327.445996 73.6400025,326.762003 73.148,326.258 C72.6559975,325.753997 72.0860032,325.502 71.438,325.502 C70.7899968,325.502 70.2140025,325.753997 69.71,326.258 C69.2059975,326.762003 68.954,327.439996 68.954,328.292 C68.954,329.072004 69.1849977,329.728997 69.647,330.263 C70.1090023,330.797003 70.7119963,331.064 71.456,331.064 L71.456,331.064 Z M82.742,329.498 L83.822,330.092 C83.5699987,330.572002 83.2640018,330.973998 82.904,331.298 C82.2199966,331.910003 81.3920049,332.216 80.42,332.216 C79.411995,332.216 78.5450036,331.889003 77.819,331.235 C77.0929964,330.580997 76.73,329.606006 76.73,328.31 C76.73,327.169994 77.0569967,326.225004 77.711,325.475 C78.3650033,324.724996 79.2439945,324.35 80.348,324.35 C81.5960062,324.35 82.5379968,324.805995 83.174,325.718 C83.6780025,326.438004 83.9120002,327.373994 83.876,328.526 L78.062,328.526 C78.0740001,329.282004 78.3079977,329.893998 78.764,330.362 C79.2200023,330.830002 79.7779967,331.064 80.438,331.064 C81.0260029,331.064 81.5359978,330.884002 81.968,330.524 C82.3040017,330.235999 82.5619991,329.894002 82.742,329.498 L82.742,329.498 Z M78.152,327.446 L82.544,327.446 C82.4359995,326.857997 82.181002,326.387002 81.779,326.033 C81.376998,325.678998 80.9000028,325.502 80.348,325.502 C79.8079973,325.502 79.3310021,325.684998 78.917,326.051 C78.5029979,326.417002 78.2480005,326.881997 78.152,327.446 L78.152,327.446 Z M85.856,332 L85.856,324.53 L87.152,324.53 L87.152,325.34 C87.5720021,324.679997 88.1359965,324.35 88.844,324.35 C89.2040018,324.35 89.587998,324.451999 89.996,324.656 L89.384,325.826 C89.1439988,325.657999 88.8920013,325.574 88.628,325.574 C88.1719977,325.574 87.8240012,325.729998 87.584,326.042 C87.2959986,326.426002 87.152,327.097995 87.152,328.058 L87.152,332 L85.856,332 Z M98.87,332.216 C97.7299943,332.216 96.7850038,331.844004 96.035,331.1 C95.2849963,330.355996 94.91,329.420006 94.91,328.292 C94.91,327.151994 95.2849963,326.210004 96.035,325.466 C96.7850038,324.721996 97.7299943,324.35 98.87,324.35 C100.010006,324.35 100.954996,324.721996 101.705,325.466 C102.455004,326.210004 102.83,327.151994 102.83,328.292 C102.83,329.420006 102.455004,330.355996 101.705,331.1 C100.954996,331.844004 100.010006,332.216 98.87,332.216 L98.87,332.216 Z M98.87,325.502 C98.1379963,325.502 97.5170026,325.750998 97.007,326.249 C96.4969975,326.747002 96.242,327.427996 96.242,328.292 C96.242,329.156004 96.4999974,329.833998 97.016,330.326 C97.5320026,330.818002 98.1499964,331.064 98.87,331.064 C99.5900036,331.064 100.207997,330.818002 100.724,330.326 C101.240003,329.833998 101.498,329.156004 101.498,328.292 C101.498,327.415996 101.243003,326.732002 100.733,326.24 C100.222997,325.747998 99.6020037,325.502 98.87,325.502 L98.87,325.502 Z M107.978,325.718 L106.142,325.718 L106.142,332 L104.846,332 L104.846,325.718 L104.126,325.718 L104.126,324.53 L104.846,324.53 L104.846,321.272 C104.846,320.275995 105.085998,319.574002 105.566,319.166 C105.950002,318.841998 106.447997,318.68 107.06,318.68 C107.384002,318.68 107.689999,318.733999 107.978,318.842 L107.978,320.102 C107.713999,319.993999 107.432002,319.94 107.132,319.94 C106.735998,319.94 106.460001,320.071999 106.304,320.336 C106.195999,320.516001 106.142,320.875997 106.142,321.416 L106.142,324.53 L107.978,324.53 L107.978,325.718 Z M119.516,321.254 L116.6,321.254 L116.6,332 L115.268,332 L115.268,321.254 L112.352,321.254 L112.352,319.994 L119.516,319.994 L119.516,321.254 Z M125.024,329.498 L126.104,330.092 C125.851999,330.572002 125.546002,330.973998 125.186,331.298 C124.501997,331.910003 123.674005,332.216 122.702,332.216 C121.693995,332.216 120.827004,331.889003 120.101,331.235 C119.374996,330.580997 119.012,329.606006 119.012,328.31 C119.012,327.169994 119.338997,326.225004 119.993,325.475 C120.647003,324.724996 121.525994,324.35 122.63,324.35 C123.878006,324.35 124.819997,324.805995 125.456,325.718 C125.960003,326.438004 126.194,327.373994 126.158,328.526 L120.344,328.526 C120.356,329.282004 120.589998,329.893998 121.046,330.362 C121.502002,330.830002 122.059997,331.064 122.72,331.064 C123.308003,331.064 123.817998,330.884002 124.25,330.524 C124.586002,330.235999 124.843999,329.894002 125.024,329.498 L125.024,329.498 Z M120.434,327.446 L124.826,327.446 C124.717999,326.857997 124.463002,326.387002 124.061,326.033 C123.658998,325.678998 123.182003,325.502 122.63,325.502 C122.089997,325.502 121.613002,325.684998 121.199,326.051 C120.784998,326.417002 120.53,326.881997 120.434,327.446 L120.434,327.446 Z M133.862,325.592 L133.862,324.53 L135.158,324.53 L135.158,332 L133.862,332 L133.862,330.956 C133.213997,331.796004 132.362005,332.216 131.306,332.216 C130.297995,332.216 129.440004,331.868003 128.732,331.172 C128.023996,330.475997 127.67,329.504006 127.67,328.256 C127.67,327.031994 128.020996,326.075003 128.723,325.385 C129.425004,324.694997 130.285995,324.35 131.306,324.35 C132.386005,324.35 133.237997,324.763996 133.862,325.592 L133.862,325.592 Z M131.45,325.502 C130.765997,325.502 130.187002,325.744998 129.713,326.231 C129.238998,326.717002 129.002,327.391996 129.002,328.256 C129.002,329.084004 129.220998,329.758997 129.659,330.281 C130.097002,330.803003 130.693996,331.064 131.45,331.064 C132.206004,331.064 132.808998,330.794003 133.259,330.254 C133.709002,329.713997 133.934,329.054004 133.934,328.274 C133.934,327.385996 133.682003,326.702002 133.178,326.222 C132.673997,325.741998 132.098003,325.502 131.45,325.502 L131.45,325.502 Z M137.606,332 L137.606,324.53 L138.902,324.53 L138.902,325.322 C139.346002,324.673997 139.963996,324.35 140.756,324.35 C141.656005,324.35 142.333998,324.751996 142.79,325.556 C143.306003,324.751996 144.055995,324.35 145.04,324.35 C146.660008,324.35 147.47,325.32199 147.47,327.266 L147.47,332 L146.174,332 L146.174,327.464 C146.174,327.103998 146.153,326.801001 146.111,326.555 C146.069,326.308999 145.943001,326.072001 145.733,325.844 C145.522999,325.615999 145.226002,325.502 144.842,325.502 C143.737994,325.502 143.186,326.281992 143.186,327.842 L143.186,332 L141.89,332 L141.89,327.572 C141.89,326.191993 141.440005,325.502 140.54,325.502 C139.447995,325.502 138.902,326.311992 138.902,327.932 L138.902,332 L137.606,332 Z M154.076,325.7 L153.014,326.258 C152.809999,325.753997 152.462002,325.502 151.97,325.502 C151.717999,325.502 151.505001,325.573999 151.331,325.718 C151.156999,325.862001 151.07,326.071999 151.07,326.348 C151.07,326.600001 151.150999,326.788999 151.313,326.915 C151.475001,327.041001 151.795998,327.205999 152.276,327.41 C153.224005,327.806002 153.847999,328.189998 154.148,328.562 C154.412001,328.886002 154.544,329.287998 154.544,329.768 C154.544,330.524004 154.301002,331.120998 153.815,331.559 C153.328998,331.997002 152.714004,332.216 151.97,332.216 C151.825999,332.216 151.670001,332.201 151.502,332.171 C151.333999,332.141 151.103001,332.075001 150.809,331.973 C150.514999,331.870999 150.236001,331.676001 149.972,331.388 C149.707999,331.099999 149.504001,330.740002 149.36,330.308 L150.476,329.84 C150.776002,330.656004 151.279996,331.064 151.988,331.064 C152.384002,331.064 152.686999,330.944001 152.897,330.704 C153.107001,330.463999 153.212,330.188002 153.212,329.876 C153.212,329.707999 153.185,329.561001 153.131,329.435 C153.077,329.308999 152.987001,329.198 152.861,329.102 C152.734999,329.006 152.615001,328.928 152.501,328.868 C152.386999,328.808 152.222001,328.73 152.006,328.634 C151.045995,328.213998 150.440001,327.848002 150.188,327.536 C149.959999,327.247999 149.846,326.882002 149.846,326.438 C149.846,325.789997 150.046998,325.280002 150.449,324.908 C150.851002,324.535998 151.375997,324.35 152.024,324.35 C152.972005,324.35 153.655998,324.799996 154.076,325.7 L154.076,325.7 Z" id="Number-of-Teams" fill="#666666"></path>
                <path d="M39.974,193.668 L38.912,194.37 C38.719999,193.997998 38.4860014,193.698001 38.21,193.47 C37.8499982,193.193999 37.4000027,193.056 36.86,193.056 C36.259997,193.056 35.7740019,193.226998 35.402,193.569 C35.0299981,193.911002 34.844,194.357997 34.844,194.91 C34.844,195.318002 34.9939985,195.665999 35.294,195.954 C35.5340012,196.194001 35.953997,196.445999 36.554,196.71 L37.706,197.214 C38.5580043,197.586002 39.1759981,197.963998 39.56,198.348 C40.1360029,198.924003 40.424,199.649996 40.424,200.526 C40.424,201.618005 40.0640036,202.505997 39.344,203.19 C38.6239964,203.874003 37.7180055,204.216 36.626,204.216 C35.5459946,204.216 34.6760033,203.892003 34.016,203.244 C33.4759973,202.715997 33.104001,202.008004 32.9,201.12 L34.196,200.76 C34.2800004,201.360003 34.519998,201.869998 34.916,202.29 C35.3600022,202.734002 35.9359965,202.956 36.644,202.956 C37.4120038,202.956 38.0059979,202.725002 38.426,202.263 C38.8460021,201.800998 39.056,201.240003 39.056,200.58 C39.056,200.003997 38.858002,199.536002 38.462,199.176 C38.2339989,198.959999 37.7540037,198.684002 37.022,198.348 L35.942,197.844 C35.2099963,197.507998 34.6760017,197.178002 34.34,196.854 C33.7879972,196.325997 33.512,195.672004 33.512,194.892 C33.512,193.967995 33.8269968,193.221003 34.457,192.651 C35.0870031,192.080997 35.8939951,191.796 36.878,191.796 C37.6220037,191.796 38.2639973,191.975998 38.804,192.336 C39.2960025,192.660002 39.6859986,193.103997 39.974,193.668 L39.974,193.668 Z M43.844,196.53 L43.844,200.886 C43.844,201.642004 43.9639988,202.175998 44.204,202.488 C44.5040015,202.872002 44.9419971,203.064 45.518,203.064 C46.0940029,203.064 46.5319985,202.872002 46.832,202.488 C47.0720012,202.175998 47.192,201.642004 47.192,200.886 L47.192,196.53 L48.488,196.53 L48.488,201.03 C48.488,202.038005 48.2600023,202.787998 47.804,203.28 C47.2159971,203.904003 46.4540047,204.216 45.518,204.216 C44.5819953,204.216 43.8200029,203.904003 43.232,203.28 C42.7759977,202.787998 42.548,202.038005 42.548,201.03 L42.548,196.53 L43.844,196.53 Z M52.232,202.956 L52.232,204 L50.936,204 L50.936,190.878 L52.232,190.878 L52.232,197.574 C52.8920033,196.757996 53.7439948,196.35 54.788,196.35 C55.9040056,196.35 56.7889967,196.742996 57.443,197.529 C58.0970033,198.315004 58.424,199.241995 58.424,200.31 C58.424,201.390005 58.1000032,202.310996 57.452,203.073 C56.8039968,203.835004 55.9340055,204.216 54.842,204.216 C53.7499945,204.216 52.8800032,203.796004 52.232,202.956 L52.232,202.956 Z M54.662,203.064 C55.3940037,203.064 55.9819978,202.797003 56.426,202.263 C56.8700022,201.728997 57.092,201.078004 57.092,200.31 C57.092,199.445996 56.8460025,198.762003 56.354,198.258 C55.8619975,197.753997 55.2920032,197.502 54.644,197.502 C53.9959968,197.502 53.4200025,197.753997 52.916,198.258 C52.4119975,198.762003 52.16,199.439996 52.16,200.292 C52.16,201.072004 52.3909977,201.728997 52.853,202.263 C53.3150023,202.797003 53.9179963,203.064 54.662,203.064 L54.662,203.064 Z M66.128,197.592 L66.128,190.878 L67.424,190.878 L67.424,204 L66.128,204 L66.128,202.956 C65.4799968,203.796004 64.6280053,204.216 63.572,204.216 C62.563995,204.216 61.7060035,203.868003 60.998,203.172 C60.2899965,202.475997 59.936,201.504006 59.936,200.256 C59.936,199.031994 60.2869965,198.075003 60.989,197.385 C61.6910035,196.694997 62.5519949,196.35 63.572,196.35 C64.6520054,196.35 65.5039969,196.763996 66.128,197.592 L66.128,197.592 Z M63.716,197.502 C63.0319966,197.502 62.4530024,197.744998 61.979,198.231 C61.5049976,198.717002 61.268,199.391996 61.268,200.256 C61.268,201.084004 61.4869978,201.758997 61.925,202.281 C62.3630022,202.803003 62.9599962,203.064 63.716,203.064 C64.4720038,203.064 65.0749977,202.794003 65.525,202.254 C65.9750022,201.713997 66.2,201.054004 66.2,200.274 C66.2,199.385996 65.9480025,198.702002 65.444,198.222 C64.9399975,197.741998 64.3640032,197.502 63.716,197.502 L63.716,197.502 Z M73.364,204.216 C72.2239943,204.216 71.2790037,203.844004 70.529,203.1 C69.7789962,202.355996 69.404,201.420006 69.404,200.292 C69.404,199.151994 69.7789962,198.210004 70.529,197.466 C71.2790037,196.721996 72.2239943,196.35 73.364,196.35 C74.5040057,196.35 75.4489962,196.721996 76.199,197.466 C76.9490037,198.210004 77.324,199.151994 77.324,200.292 C77.324,201.420006 76.9490037,202.355996 76.199,203.1 C75.4489962,203.844004 74.5040057,204.216 73.364,204.216 L73.364,204.216 Z M73.364,197.502 C72.6319963,197.502 72.0110025,197.750998 71.501,198.249 C70.9909974,198.747002 70.736,199.427996 70.736,200.292 C70.736,201.156004 70.9939974,201.833998 71.51,202.326 C72.0260026,202.818002 72.6439964,203.064 73.364,203.064 C74.0840036,203.064 74.7019974,202.818002 75.218,202.326 C75.7340026,201.833998 75.992,201.156004 75.992,200.292 C75.992,199.415996 75.7370025,198.732002 75.227,198.24 C74.7169974,197.747998 74.0960037,197.502 73.364,197.502 L73.364,197.502 Z M79.304,204 L79.304,196.53 L80.6,196.53 L80.6,197.322 C81.0440022,196.673997 81.661996,196.35 82.454,196.35 C83.3540045,196.35 84.0319977,196.751996 84.488,197.556 C85.0040026,196.751996 85.7539951,196.35 86.738,196.35 C88.3580081,196.35 89.168,197.32199 89.168,199.266 L89.168,204 L87.872,204 L87.872,199.464 C87.872,199.103998 87.8510002,198.801001 87.809,198.555 C87.7669998,198.308999 87.641001,198.072001 87.431,197.844 C87.2209989,197.615999 86.9240019,197.502 86.54,197.502 C85.4359945,197.502 84.884,198.281992 84.884,199.842 L84.884,204 L83.588,204 L83.588,199.572 C83.588,198.191993 83.1380045,197.502 82.238,197.502 C81.1459945,197.502 80.6,198.311992 80.6,199.932 L80.6,204 L79.304,204 Z M97.358,197.592 L97.358,196.53 L98.654,196.53 L98.654,204 L97.358,204 L97.358,202.956 C96.7099968,203.796004 95.8580053,204.216 94.802,204.216 C93.793995,204.216 92.9360035,203.868003 92.228,203.172 C91.5199965,202.475997 91.166,201.504006 91.166,200.256 C91.166,199.031994 91.5169965,198.075003 92.219,197.385 C92.9210035,196.694997 93.7819949,196.35 94.802,196.35 C95.8820054,196.35 96.7339969,196.763996 97.358,197.592 L97.358,197.592 Z M94.946,197.502 C94.2619966,197.502 93.6830024,197.744998 93.209,198.231 C92.7349976,198.717002 92.498,199.391996 92.498,200.256 C92.498,201.084004 92.7169978,201.758997 93.155,202.281 C93.5930022,202.803003 94.1899962,203.064 94.946,203.064 C95.7020038,203.064 96.3049977,202.794003 96.755,202.254 C97.2050022,201.713997 97.43,201.054004 97.43,200.274 C97.43,199.385996 97.1780025,198.702002 96.674,198.222 C96.1699975,197.741998 95.5940032,197.502 94.946,197.502 L94.946,197.502 Z M101.102,196.53 L102.398,196.53 L102.398,204 L101.102,204 L101.102,196.53 Z M100.832,193.704 C100.832,193.451999 100.921999,193.236001 101.102,193.056 C101.282001,192.875999 101.497999,192.786 101.75,192.786 C102.002001,192.786 102.217999,192.875999 102.398,193.056 C102.578001,193.236001 102.668,193.451999 102.668,193.704 C102.668,193.956001 102.578001,194.171999 102.398,194.352 C102.217999,194.532001 102.002001,194.622 101.75,194.622 C101.497999,194.622 101.282001,194.532001 101.102,194.352 C100.921999,194.171999 100.832,193.956001 100.832,193.704 L100.832,193.704 Z M104.846,204 L104.846,196.53 L106.142,196.53 L106.142,197.394 C106.670003,196.697997 107.383995,196.35 108.284,196.35 C109.244005,196.35 109.957998,196.691997 110.426,197.376 C110.714001,197.796002 110.858,198.461995 110.858,199.374 L110.858,204 L109.562,204 L109.562,199.41 C109.562,198.797997 109.448001,198.342002 109.22,198.042 C108.943999,197.681998 108.536003,197.502 107.996,197.502 C107.443997,197.502 107.006002,197.693998 106.682,198.078 C106.321998,198.498002 106.142,199.169995 106.142,200.094 L106.142,204 L104.846,204 Z" id="Subdomain" fill="#666666"></path>
                <path d="M34.502,429 L33.134,429 L35.132,416.328 L39.74,426.462 L44.438,416.31 L46.31,429 L44.942,429 L43.808,420.648 L39.722,429.504 L35.69,420.648 L34.502,429 Z M54.482,422.592 L54.482,421.53 L55.778,421.53 L55.778,429 L54.482,429 L54.482,427.956 C53.8339968,428.796004 52.9820053,429.216 51.926,429.216 C50.917995,429.216 50.0600035,428.868003 49.352,428.172 C48.6439965,427.475997 48.29,426.504006 48.29,425.256 C48.29,424.031994 48.6409965,423.075003 49.343,422.385 C50.0450035,421.694997 50.9059949,421.35 51.926,421.35 C53.0060054,421.35 53.8579969,421.763996 54.482,422.592 L54.482,422.592 Z M52.07,422.502 C51.3859966,422.502 50.8070024,422.744998 50.333,423.231 C49.8589976,423.717002 49.622,424.391996 49.622,425.256 C49.622,426.084004 49.8409978,426.758997 50.279,427.281 C50.7170022,427.803003 51.3139962,428.064 52.07,428.064 C52.8260038,428.064 53.4289978,427.794003 53.879,427.254 C54.3290023,426.713997 54.554,426.054004 54.554,425.274 C54.554,424.385996 54.3020025,423.702002 53.798,423.222 C53.2939975,422.741998 52.7180032,422.502 52.07,422.502 L52.07,422.502 Z M57.146,429 L60.332,425.004 L57.614,421.53 L59.198,421.53 L61.124,424.068 L63.086,421.53 L64.67,421.53 L61.934,425.022 L65.03,429 L63.446,429 L61.088,425.958 L58.73,429 L57.146,429 Z M70.916,416.994 L73.094,416.994 C74.4620068,416.994 75.4699968,417.275997 76.118,417.84 C76.8500037,418.464003 77.216,419.321995 77.216,420.414 C77.216,421.350005 76.9010032,422.144997 76.271,422.799 C75.6409969,423.453003 74.6900064,423.78 73.418,423.78 L72.248,423.78 L72.248,429 L70.916,429 L70.916,416.994 Z M72.248,418.254 L72.248,422.52 L73.346,422.52 C74.138004,422.52 74.7589978,422.328002 75.209,421.944 C75.6590023,421.559998 75.884,421.026003 75.884,420.342 C75.884,418.949993 75.0020088,418.254 73.238,418.254 L72.248,418.254 Z M78.8,415.878 L80.096,415.878 L80.096,429 L78.8,429 L78.8,415.878 Z M88.268,422.592 L88.268,421.53 L89.564,421.53 L89.564,429 L88.268,429 L88.268,427.956 C87.6199968,428.796004 86.7680053,429.216 85.712,429.216 C84.703995,429.216 83.8460035,428.868003 83.138,428.172 C82.4299965,427.475997 82.076,426.504006 82.076,425.256 C82.076,424.031994 82.4269965,423.075003 83.129,422.385 C83.8310035,421.694997 84.6919949,421.35 85.712,421.35 C86.7920054,421.35 87.6439969,421.763996 88.268,422.592 L88.268,422.592 Z M85.856,422.502 C85.1719966,422.502 84.5930024,422.744998 84.119,423.231 C83.6449976,423.717002 83.408,424.391996 83.408,425.256 C83.408,426.084004 83.6269978,426.758997 84.065,427.281 C84.5030022,427.803003 85.0999962,428.064 85.856,428.064 C86.6120038,428.064 87.2149978,427.794003 87.665,427.254 C88.1150023,426.713997 88.34,426.054004 88.34,425.274 C88.34,424.385996 88.0880025,423.702002 87.584,423.222 C87.0799975,422.741998 86.5040032,422.502 85.856,422.502 L85.856,422.502 Z M91.994,433.14 L94.37,428.298 L90.932,421.53 L92.408,421.53 L95.054,426.876 L97.484,421.53 L98.924,421.53 L93.434,433.14 L91.994,433.14 Z M105.836,426.498 L106.916,427.092 C106.663999,427.572002 106.358002,427.973998 105.998,428.298 C105.313997,428.910003 104.486005,429.216 103.514,429.216 C102.505995,429.216 101.639004,428.889003 100.913,428.235 C100.186996,427.580997 99.824,426.606006 99.824,425.31 C99.824,424.169994 100.150997,423.225004 100.805,422.475 C101.459003,421.724996 102.337994,421.35 103.442,421.35 C104.690006,421.35 105.631997,421.805995 106.268,422.718 C106.772003,423.438004 107.006,424.373994 106.97,425.526 L101.156,425.526 C101.168,426.282004 101.401998,426.893998 101.858,427.362 C102.314002,427.830002 102.871997,428.064 103.532,428.064 C104.120003,428.064 104.629998,427.884002 105.062,427.524 C105.398002,427.235999 105.655999,426.894002 105.836,426.498 L105.836,426.498 Z M101.246,424.446 L105.638,424.446 C105.529999,423.857997 105.275002,423.387002 104.873,423.033 C104.470998,422.678998 103.994003,422.502 103.442,422.502 C102.901997,422.502 102.425002,422.684998 102.011,423.051 C101.596998,423.417002 101.342,423.881997 101.246,424.446 L101.246,424.446 Z M108.95,429 L108.95,421.53 L110.246,421.53 L110.246,422.34 C110.666002,421.679997 111.229996,421.35 111.938,421.35 C112.298002,421.35 112.681998,421.451999 113.09,421.656 L112.478,422.826 C112.237999,422.657999 111.986001,422.574 111.722,422.574 C111.265998,422.574 110.918001,422.729998 110.678,423.042 C110.389999,423.426002 110.246,424.097995 110.246,425.058 L110.246,429 L108.95,429 Z M118.22,422.7 L117.158,423.258 C116.953999,422.753997 116.606002,422.502 116.114,422.502 C115.861999,422.502 115.649001,422.573999 115.475,422.718 C115.300999,422.862001 115.214,423.071999 115.214,423.348 C115.214,423.600001 115.294999,423.788999 115.457,423.915 C115.619001,424.041001 115.939998,424.205999 116.42,424.41 C117.368005,424.806002 117.991999,425.189998 118.292,425.562 C118.556001,425.886002 118.688,426.287998 118.688,426.768 C118.688,427.524004 118.445002,428.120998 117.959,428.559 C117.472998,428.997002 116.858004,429.216 116.114,429.216 C115.969999,429.216 115.814001,429.201 115.646,429.171 C115.477999,429.141 115.247001,429.075001 114.953,428.973 C114.658999,428.870999 114.380001,428.676001 114.116,428.388 C113.851999,428.099999 113.648001,427.740002 113.504,427.308 L114.62,426.84 C114.920001,427.656004 115.423996,428.064 116.132,428.064 C116.528002,428.064 116.830999,427.944001 117.041,427.704 C117.251001,427.463999 117.356,427.188002 117.356,426.876 C117.356,426.707999 117.329,426.561001 117.275,426.435 C117.221,426.308999 117.131001,426.198 117.005,426.102 C116.878999,426.006 116.759001,425.928 116.645,425.868 C116.530999,425.808 116.366001,425.73 116.15,425.634 C115.189995,425.213998 114.584001,424.848002 114.332,424.536 C114.103999,424.247999 113.99,423.882002 113.99,423.438 C113.99,422.789997 114.190998,422.280002 114.593,421.908 C114.995002,421.535998 115.519997,421.35 116.168,421.35 C117.116005,421.35 117.799998,421.799996 118.22,422.7 L118.22,422.7 Z M125.906,427.956 L125.906,433.14 L124.61,433.14 L124.61,421.53 L125.906,421.53 L125.906,422.574 C126.566003,421.757996 127.417995,421.35 128.462,421.35 C129.578006,421.35 130.462997,421.742996 131.117,422.529 C131.771003,423.315004 132.098,424.241995 132.098,425.31 C132.098,426.390005 131.774003,427.310996 131.126,428.073 C130.477997,428.835004 129.608005,429.216 128.516,429.216 C127.423995,429.216 126.554003,428.796004 125.906,427.956 L125.906,427.956 Z M128.336,428.064 C129.068004,428.064 129.655998,427.797003 130.1,427.263 C130.544002,426.728997 130.766,426.078004 130.766,425.31 C130.766,424.445996 130.520002,423.762003 130.028,423.258 C129.535998,422.753997 128.966003,422.502 128.318,422.502 C127.669997,422.502 127.094003,422.753997 126.59,423.258 C126.085997,423.762003 125.834,424.439996 125.834,425.292 C125.834,426.072004 126.064998,426.728997 126.527,427.263 C126.989002,427.797003 127.591996,428.064 128.336,428.064 L128.336,428.064 Z M139.622,426.498 L140.702,427.092 C140.449999,427.572002 140.144002,427.973998 139.784,428.298 C139.099997,428.910003 138.272005,429.216 137.3,429.216 C136.291995,429.216 135.425004,428.889003 134.699,428.235 C133.972996,427.580997 133.61,426.606006 133.61,425.31 C133.61,424.169994 133.936997,423.225004 134.591,422.475 C135.245003,421.724996 136.123994,421.35 137.228,421.35 C138.476006,421.35 139.417997,421.805995 140.054,422.718 C140.558003,423.438004 140.792,424.373994 140.756,425.526 L134.942,425.526 C134.954,426.282004 135.187998,426.893998 135.644,427.362 C136.100002,427.830002 136.657997,428.064 137.318,428.064 C137.906003,428.064 138.415998,427.884002 138.848,427.524 C139.184002,427.235999 139.441999,426.894002 139.622,426.498 L139.622,426.498 Z M135.032,424.446 L139.424,424.446 C139.315999,423.857997 139.061002,423.387002 138.659,423.033 C138.256998,422.678998 137.780003,422.502 137.228,422.502 C136.687997,422.502 136.211002,422.684998 135.797,423.051 C135.382998,423.417002 135.128,423.881997 135.032,424.446 L135.032,424.446 Z M142.736,429 L142.736,421.53 L144.032,421.53 L144.032,422.34 C144.452002,421.679997 145.015996,421.35 145.724,421.35 C146.084002,421.35 146.467998,421.451999 146.876,421.656 L146.264,422.826 C146.023999,422.657999 145.772001,422.574 145.508,422.574 C145.051998,422.574 144.704001,422.729998 144.464,423.042 C144.175999,423.426002 144.032,424.097995 144.032,425.058 L144.032,429 L142.736,429 Z M158.45,418.254 L155.534,418.254 L155.534,429 L154.202,429 L154.202,418.254 L151.286,418.254 L151.286,416.994 L158.45,416.994 L158.45,418.254 Z M163.958,426.498 L165.038,427.092 C164.785999,427.572002 164.480002,427.973998 164.12,428.298 C163.435997,428.910003 162.608005,429.216 161.636,429.216 C160.627995,429.216 159.761004,428.889003 159.035,428.235 C158.308996,427.580997 157.946,426.606006 157.946,425.31 C157.946,424.169994 158.272997,423.225004 158.927,422.475 C159.581003,421.724996 160.459994,421.35 161.564,421.35 C162.812006,421.35 163.753997,421.805995 164.39,422.718 C164.894003,423.438004 165.128,424.373994 165.092,425.526 L159.278,425.526 C159.29,426.282004 159.523998,426.893998 159.98,427.362 C160.436002,427.830002 160.993997,428.064 161.654,428.064 C162.242003,428.064 162.751998,427.884002 163.184,427.524 C163.520002,427.235999 163.777999,426.894002 163.958,426.498 L163.958,426.498 Z M159.368,424.446 L163.76,424.446 C163.651999,423.857997 163.397002,423.387002 162.995,423.033 C162.592998,422.678998 162.116003,422.502 161.564,422.502 C161.023997,422.502 160.547002,422.684998 160.133,423.051 C159.718998,423.417002 159.464,423.881997 159.368,424.446 L159.368,424.446 Z M172.796,422.592 L172.796,421.53 L174.092,421.53 L174.092,429 L172.796,429 L172.796,427.956 C172.147997,428.796004 171.296005,429.216 170.24,429.216 C169.231995,429.216 168.374004,428.868003 167.666,428.172 C166.957996,427.475997 166.604,426.504006 166.604,425.256 C166.604,424.031994 166.954996,423.075003 167.657,422.385 C168.359004,421.694997 169.219995,421.35 170.24,421.35 C171.320005,421.35 172.171997,421.763996 172.796,422.592 L172.796,422.592 Z M170.384,422.502 C169.699997,422.502 169.121002,422.744998 168.647,423.231 C168.172998,423.717002 167.936,424.391996 167.936,425.256 C167.936,426.084004 168.154998,426.758997 168.593,427.281 C169.031002,427.803003 169.627996,428.064 170.384,428.064 C171.140004,428.064 171.742998,427.794003 172.193,427.254 C172.643002,426.713997 172.868,426.054004 172.868,425.274 C172.868,424.385996 172.616003,423.702002 172.112,423.222 C171.607997,422.741998 171.032003,422.502 170.384,422.502 L170.384,422.502 Z M176.54,429 L176.54,421.53 L177.836,421.53 L177.836,422.322 C178.280002,421.673997 178.897996,421.35 179.69,421.35 C180.590005,421.35 181.267998,421.751996 181.724,422.556 C182.240003,421.751996 182.989995,421.35 183.974,421.35 C185.594008,421.35 186.404,422.32199 186.404,424.266 L186.404,429 L185.108,429 L185.108,424.464 C185.108,424.103998 185.087,423.801001 185.045,423.555 C185.003,423.308999 184.877001,423.072001 184.667,422.844 C184.456999,422.615999 184.160002,422.502 183.776,422.502 C182.671994,422.502 182.12,423.281992 182.12,424.842 L182.12,429 L180.824,429 L180.824,424.572 C180.824,423.191993 180.374005,422.502 179.474,422.502 C178.381995,422.502 177.836,423.311992 177.836,424.932 L177.836,429 L176.54,429 Z" id="Max-Players-per-Team" fill="#666666"></path>
                <path d="M32.864,291.83 C32.864,291.433998 32.9989987,291.101001 33.269,290.831 C33.5390014,290.560999 33.871998,290.426 34.268,290.426 C34.664002,290.426 34.9969987,290.560999 35.267,290.831 C35.5370014,291.101001 35.672,291.433998 35.672,291.83 C35.672,292.226002 35.5370014,292.558999 35.267,292.829 C34.9969987,293.099001 34.664002,293.234 34.268,293.234 C33.871998,293.234 33.5390014,293.099001 33.269,292.829 C32.9989987,292.558999 32.864,292.226002 32.864,291.83 L32.864,291.83 Z M37.58,279.878 L39.776,279.878 L39.776,293 L37.58,293 L37.58,279.878 Z M47.498,290.498 L49.514,290.822 C49.4299996,291.038001 49.3190007,291.250999 49.181,291.461 C49.0429993,291.671001 48.8300014,291.928998 48.542,292.235 C48.2539986,292.541002 47.8640025,292.786999 47.372,292.973 C46.8799975,293.159001 46.3160032,293.252 45.68,293.252 C44.4559939,293.252 43.4600038,292.886004 42.692,292.154 C41.8759959,291.385996 41.468,290.372006 41.468,289.112 C41.468,287.863994 41.863996,286.844004 42.656,286.052 C43.4000037,285.319996 44.3779939,284.954 45.59,284.954 C46.9100066,284.954 47.9239965,285.379996 48.632,286.232 C49.2560031,286.976004 49.568,287.995994 49.568,289.292 L49.568,289.472 L43.736,289.472 C43.736,290.000003 43.8619987,290.437998 44.114,290.786 C44.4740018,291.278002 44.9959966,291.524 45.68,291.524 C46.4960041,291.524 47.101998,291.182003 47.498,290.498 L47.498,290.498 Z M43.808,288.068 L47.498,288.068 C47.4139996,287.563997 47.1950018,287.177001 46.841,286.907 C46.4869982,286.636999 46.0880022,286.502 45.644,286.502 C45.2119978,286.502 44.8190018,286.639999 44.465,286.916 C44.1109982,287.192001 43.8920004,287.575998 43.808,288.068 L43.808,288.068 Z M57.416,286.214 L57.416,285.206 L59.612,285.206 L59.612,293 L57.416,293 L57.416,291.992 C56.8279971,292.832004 56.030005,293.252 55.022,293.252 C53.8459941,293.252 52.8890037,292.850004 52.151,292.046 C51.4129963,291.241996 51.044,290.258006 51.044,289.094 C51.044,287.917994 51.4039964,286.934004 52.124,286.142 C52.8440036,285.349996 53.7739943,284.954 54.914,284.954 C56.0420056,284.954 56.8759973,285.373996 57.416,286.214 L57.416,286.214 Z M55.472,286.898 C54.8479969,286.898 54.332002,287.107998 53.924,287.528 C53.515998,287.948002 53.312,288.469997 53.312,289.094 C53.312,289.718003 53.515998,290.242998 53.924,290.669 C54.332002,291.095002 54.8479969,291.308 55.472,291.308 C56.0960031,291.308 56.611998,291.095002 57.02,290.669 C57.428002,290.242998 57.632,289.718003 57.632,289.094 C57.632,288.469997 57.428002,287.948002 57.02,287.528 C56.611998,287.107998 56.0960031,286.898 55.472,286.898 L55.472,286.898 Z M67.64,286.214 L67.64,285.206 L69.836,285.206 L69.836,292.64 C69.836,293.372004 69.7670007,294.010997 69.629,294.557 C69.4909993,295.103003 69.2000022,295.597998 68.756,296.042 C68.0239963,296.774004 66.9980066,297.14 65.678,297.14 C64.4059936,297.14 63.4340034,296.840003 62.762,296.24 C62.1259968,295.699997 61.706001,294.926005 61.502,293.918 L63.878,293.918 C63.9740005,294.314002 64.1539987,294.625999 64.418,294.854 C64.7180015,295.130001 65.1619971,295.268 65.75,295.268 C66.2900027,295.268 66.7339983,295.106002 67.082,294.782 C67.4540019,294.421998 67.64,293.846004 67.64,293.054 L67.64,291.956 C67.0759972,292.820004 66.2780052,293.252 65.246,293.252 C64.1659946,293.252 63.2660036,292.898004 62.546,292.19 C61.7179959,291.361996 61.304,290.330006 61.304,289.094 C61.304,287.809994 61.705996,286.778004 62.51,285.998 C63.2300036,285.301997 64.1239947,284.954 65.192,284.954 C66.2720054,284.954 67.0879972,285.373996 67.64,286.214 L67.64,286.214 Z M65.732,286.898 C65.1439971,286.898 64.6580019,287.077998 64.274,287.438 C63.8059977,287.858002 63.572,288.409997 63.572,289.094 C63.572,289.706003 63.7639981,290.215998 64.148,290.624 C64.5680021,291.080002 65.0959968,291.308 65.732,291.308 C66.3080029,291.308 66.793998,291.128002 67.19,290.768 C67.6580023,290.335998 67.892,289.778003 67.892,289.094 C67.892,288.493997 67.6820021,287.972002 67.262,287.528 C66.853998,287.107998 66.3440031,286.898 65.732,286.898 L65.732,286.898 Z M71.924,285.206 L74.12,285.206 L74.12,289.616 C74.12,290.240003 74.2759984,290.695999 74.588,290.984 C74.8880015,291.248001 75.2599978,291.38 75.704,291.38 C76.1480022,291.38 76.5199985,291.248001 76.82,290.984 C77.1320016,290.695999 77.288,290.240003 77.288,289.616 L77.288,285.206 L79.484,285.206 L79.484,289.976 C79.484,291.020005 79.1660032,291.817997 78.53,292.37 C77.8579966,292.958003 76.9160061,293.252 75.704,293.252 C74.4919939,293.252 73.5500034,292.958003 72.878,292.37 C72.2419968,291.817997 71.924,291.020005 71.924,289.976 L71.924,285.206 Z M87.206,290.498 L89.222,290.822 C89.1379996,291.038001 89.0270007,291.250999 88.889,291.461 C88.7509993,291.671001 88.5380014,291.928998 88.25,292.235 C87.9619986,292.541002 87.5720025,292.786999 87.08,292.973 C86.5879975,293.159001 86.0240032,293.252 85.388,293.252 C84.1639939,293.252 83.1680038,292.886004 82.4,292.154 C81.5839959,291.385996 81.176,290.372006 81.176,289.112 C81.176,287.863994 81.571996,286.844004 82.364,286.052 C83.1080037,285.319996 84.0859939,284.954 85.298,284.954 C86.6180066,284.954 87.6319965,285.379996 88.34,286.232 C88.9640031,286.976004 89.276,287.995994 89.276,289.292 L89.276,289.472 L83.444,289.472 C83.444,290.000003 83.5699987,290.437998 83.822,290.786 C84.1820018,291.278002 84.7039966,291.524 85.388,291.524 C86.2040041,291.524 86.809998,291.182003 87.206,290.498 L87.206,290.498 Z M83.516,288.068 L87.206,288.068 C87.1219996,287.563997 86.9030018,287.177001 86.549,286.907 C86.1949982,286.636999 85.7960022,286.502 85.352,286.502 C84.9199978,286.502 84.5270018,286.639999 84.173,286.916 C83.8189982,287.192001 83.6000004,287.575998 83.516,288.068 L83.516,288.068 Z M90.968,293 L90.968,279.878 L93.164,279.878 L93.164,286.214 C93.764003,285.373996 94.567995,284.954 95.576,284.954 C96.5960051,284.954 97.3639974,285.271997 97.88,285.908 C98.288002,286.412003 98.492,287.143995 98.492,288.104 L98.492,293 L96.296,293 L96.296,288.752 C96.296,288.019996 96.1580014,287.510001 95.882,287.222 C95.6299987,286.957999 95.2880022,286.826 94.856,286.826 C94.255997,286.826 93.8060015,287.053998 93.506,287.51 C93.2779989,287.870002 93.164,288.373997 93.164,289.022 L93.164,293 L90.968,293 Z M106.016,290.498 L108.032,290.822 C107.948,291.038001 107.837001,291.250999 107.699,291.461 C107.560999,291.671001 107.348001,291.928998 107.06,292.235 C106.771999,292.541002 106.382002,292.786999 105.89,292.973 C105.397998,293.159001 104.834003,293.252 104.198,293.252 C102.973994,293.252 101.978004,292.886004 101.21,292.154 C100.393996,291.385996 99.986,290.372006 99.986,289.112 C99.986,287.863994 100.381996,286.844004 101.174,286.052 C101.918004,285.319996 102.895994,284.954 104.108,284.954 C105.428007,284.954 106.441996,285.379996 107.15,286.232 C107.774003,286.976004 108.086,287.995994 108.086,289.292 L108.086,289.472 L102.254,289.472 C102.254,290.000003 102.379999,290.437998 102.632,290.786 C102.992002,291.278002 103.513997,291.524 104.198,291.524 C105.014004,291.524 105.619998,291.182003 106.016,290.498 L106.016,290.498 Z M102.326,288.068 L106.016,288.068 C105.932,287.563997 105.713002,287.177001 105.359,286.907 C105.004998,286.636999 104.606002,286.502 104.162,286.502 C103.729998,286.502 103.337002,286.639999 102.983,286.916 C102.628998,287.192001 102.41,287.575998 102.326,288.068 L102.326,288.068 Z M109.778,293 L109.778,285.206 L111.974,285.206 L111.974,286.376 C112.238001,285.871997 112.561998,285.512001 112.946,285.296 C113.306002,285.067999 113.737997,284.954 114.242,284.954 C114.530001,284.954 114.841998,285.013999 115.178,285.134 L114.89,287.186 C114.613999,286.993999 114.272002,286.898 113.864,286.898 C113.227997,286.898 112.742002,287.107998 112.406,287.528 C112.117999,287.888002 111.974,288.463996 111.974,289.256 L111.974,293 L109.778,293 Z M120.146,284.954 C121.454007,284.954 122.503996,285.319996 123.296,286.052 C124.172004,286.844004 124.61,287.863994 124.61,289.112 C124.61,290.348006 124.172004,291.361996 123.296,292.154 C122.503996,292.886004 121.454007,293.252 120.146,293.252 C118.837993,293.252 117.788004,292.886004 116.996,292.154 C116.119996,291.361996 115.682,290.348006 115.682,289.112 C115.682,287.863994 116.119996,286.844004 116.996,286.052 C117.788004,285.319996 118.837993,284.954 120.146,284.954 L120.146,284.954 Z M120.146,291.308 C120.770003,291.308 121.291998,291.092002 121.712,290.66 C122.132002,290.227998 122.342,289.712003 122.342,289.112 C122.342,288.499997 122.132002,287.978002 121.712,287.546 C121.291998,287.113998 120.770003,286.898 120.146,286.898 C119.521997,286.898 119.000002,287.113998 118.58,287.546 C118.159998,287.978002 117.95,288.499997 117.95,289.112 C117.95,289.712003 118.159998,290.227998 118.58,290.66 C119.000002,291.092002 119.521997,291.308 120.146,291.308 L120.146,291.308 Z M126.122,291.83 C126.122,291.433998 126.256999,291.101001 126.527,290.831 C126.797001,290.560999 127.129998,290.426 127.526,290.426 C127.922002,290.426 128.254999,290.560999 128.525,290.831 C128.795001,291.101001 128.93,291.433998 128.93,291.83 C128.93,292.226002 128.795001,292.558999 128.525,292.829 C128.254999,293.099001 127.922002,293.234 127.526,293.234 C127.129998,293.234 126.797001,293.099001 126.527,292.829 C126.256999,292.558999 126.122,292.226002 126.122,291.83 L126.122,291.83 Z M130.838,285.206 L133.034,285.206 L133.034,293 L130.838,293 L130.838,285.206 Z M130.622,281.912 C130.622,281.551998 130.750999,281.243001 131.009,280.985 C131.267001,280.726999 131.575998,280.598 131.936,280.598 C132.296002,280.598 132.604999,280.726999 132.863,280.985 C133.121001,281.243001 133.25,281.551998 133.25,281.912 C133.25,282.272002 133.121001,282.580999 132.863,282.839 C132.604999,283.097001 132.296002,283.226 131.936,283.226 C131.575998,283.226 131.267001,283.097001 131.009,282.839 C130.750999,282.580999 130.622,282.272002 130.622,281.912 L130.622,281.912 Z M139.19,284.954 C140.498007,284.954 141.547996,285.319996 142.34,286.052 C143.216004,286.844004 143.654,287.863994 143.654,289.112 C143.654,290.348006 143.216004,291.361996 142.34,292.154 C141.547996,292.886004 140.498007,293.252 139.19,293.252 C137.881993,293.252 136.832004,292.886004 136.04,292.154 C135.163996,291.361996 134.726,290.348006 134.726,289.112 C134.726,287.863994 135.163996,286.844004 136.04,286.052 C136.832004,285.319996 137.881993,284.954 139.19,284.954 L139.19,284.954 Z M139.19,291.308 C139.814003,291.308 140.335998,291.092002 140.756,290.66 C141.176002,290.227998 141.386,289.712003 141.386,289.112 C141.386,288.499997 141.176002,287.978002 140.756,287.546 C140.335998,287.113998 139.814003,286.898 139.19,286.898 C138.565997,286.898 138.044002,287.113998 137.624,287.546 C137.203998,287.978002 136.994,288.499997 136.994,289.112 C136.994,289.712003 137.203998,290.227998 137.624,290.66 C138.044002,291.092002 138.565997,291.308 139.19,291.308 L139.19,291.308 Z" id=".leaguehero.io" fill="#666666"></path>
                <rect id="Rectangle-7" stroke="#CCCCCC" stroke-width="2" fill="#FFFFFF" x="32" y="120" width="316" height="50" rx="4"></rect>
                <rect id="Rectangle-7-Copy-2" stroke="#CCCCCC" stroke-width="2" fill="#FFFFFF" x="32" y="345" width="316" height="50" rx="4"></rect>
                <rect id="Rectangle-7-Copy" stroke="#CCCCCC" stroke-width="2" fill="#FFFFFF" x="32" y="217" width="316" height="50" rx="4"></rect>
                <rect id="Rectangle-7-Copy-3" stroke="#CCCCCC" stroke-width="2" fill="#FFFFFF" x="32" y="442" width="316" height="50" rx="4"></rect>
                <g id="Group" transform="translate(120.000000, 32.000000)">
                    <rect id="Rectangle-11" fill="#EDEDED" x="10" y="8" width="120" height="4"></rect>
                    <circle id="Oval-2" fill="#68C26B" cx="10" cy="10" r="10"></circle>
                    <circle id="Oval-2-Copy" fill="#EDEDED" cx="70" cy="10" r="10"></circle>
                    <circle id="Oval-2-Copy-2" fill="#EDEDED" cx="130" cy="10" r="10"></circle>
                </g>
                <rect id="Rectangle-13" fill="#EDEDED" x="54" y="141" width="148" height="8"></rect>
                <rect id="Rectangle-13-Copy" fill="#EDEDED" x="54" y="238" width="120" height="8"></rect>
                <rect id="Rectangle-13-Copy-2" fill="#EDEDED" x="54" y="366" width="64" height="8"></rect>
                <rect id="Rectangle-13-Copy-3" fill="#EDEDED" x="54" y="463" width="64" height="8"></rect>
            </g>
        </g>
    </g>
</svg>