<?xml version="1.0" encoding="UTF-8" standalone="no"?>
<svg width="620px" height="620px" viewBox="0 0 620 620" version="1.1" xmlns="http://www.w3.org/2000/svg" xmlns:xlink="http://www.w3.org/1999/xlink">
    <!-- Generator: Sketch 3.6.1 (26313) - http://www.bohemiancoding.com/sketch -->
    <title>Messaging</title>
    <desc>Created with Sketch.</desc>
    <defs></defs>
    <g id="Page-1" stroke="none" stroke-width="1" fill="none" fill-rule="evenodd">
        <g id="Messaging">
            <path d="M501.86605,526.961901 L518.099223,526.961901 C529.131812,526.961901 538.092086,518.010755 538.092086,506.968957 L538.092086,95.6433344 C538.092086,84.6020401 529.140976,75.6503906 518.099223,75.6503906 L127.900777,75.6503906 C116.868188,75.6503906 107.907914,84.6015365 107.907914,95.6433344 L107.907914,506.968957 C107.907914,518.010251 116.859024,526.961901 127.900777,526.961901 L453.945527,526.961901 L501.86605,574.349609 L501.86605,526.961901 Z" id="Combined-Shape" fill-opacity="0.05" fill="#000000"></path>
            <path d="M488.86605,510.961901 L517.094947,510.961901 C521.502329,510.961901 525.092086,507.379804 525.092086,502.961064 L525.092086,67.6512277 C525.092086,63.2338231 521.511645,59.6503906 517.094947,59.6503906 L102.905053,59.6503906 C98.4976708,59.6503906 94.9079143,63.2324874 94.9079143,67.6512277 L94.9079143,502.961064 C94.9079143,507.378468 98.4883551,510.961901 102.905053,510.961901 L440.945527,510.961901 L488.86605,558.349609 L488.86605,510.961901 Z" id="Combined-Shape" stroke="#DDDDDD" stroke-width="3" fill="#FFFFFF"></path>
            <path d="M149.926206,121.19383 L149.926206,123.721174 L144.854561,123.721174 L144.854561,127.083445 L149.609228,127.083445 L149.609228,129.610789 L144.854561,129.610789 L144.854561,136.245069 L141.911195,136.245069 L141.911195,121.19383 L149.926206,121.19383 Z M158.394041,133.108454 L160.929864,133.514634 C160.824204,133.785422 160.684584,134.052446 160.511,134.315712 C160.337416,134.578978 160.069497,134.902415 159.707235,135.286032 C159.344973,135.669648 158.854417,135.978041 158.235553,136.21122 C157.616688,136.444399 156.907269,136.560987 156.107273,136.560987 C154.567659,136.560987 153.314854,136.102158 152.348822,135.184487 C151.322412,134.221684 150.809215,132.950502 150.809215,131.370904 C150.809215,129.80635 151.307318,128.527647 152.303539,127.534756 C153.239383,126.617085 154.469547,126.158256 155.994067,126.158256 C157.654435,126.158256 158.92988,126.692303 159.820442,127.760412 C160.605343,128.693127 160.997788,129.97183 160.997788,131.59656 L160.997788,131.822216 L153.662016,131.822216 C153.662016,132.484143 153.820503,133.033233 154.137482,133.469503 C154.59031,134.086298 155.2469,134.394691 156.107273,134.394691 C157.133682,134.394691 157.895931,133.96595 158.394041,133.108454 L158.394041,133.108454 Z M153.752581,130.062101 L158.394041,130.062101 C158.288382,129.430262 158.012916,128.945107 157.567635,128.606621 C157.122354,128.268136 156.620478,128.098896 156.06199,128.098896 C155.518597,128.098896 155.024268,128.271897 154.578987,128.617904 C154.133707,128.963911 153.85824,129.445305 153.752581,130.062101 L153.752581,130.062101 Z M165.888303,119.794764 L165.888303,127.737847 C166.643015,126.684781 167.707145,126.158256 169.080722,126.158256 C170.514676,126.158256 171.676917,126.647172 172.567478,127.625019 C173.458039,128.602865 173.903313,129.843959 173.903313,131.348339 C173.903313,132.852718 173.446719,134.097573 172.533516,135.082941 C171.620313,136.06831 170.446753,136.560987 169.012798,136.560987 C167.699598,136.560987 166.65811,136.034462 165.888303,134.981396 L165.888303,136.245069 L163.126067,136.245069 L163.126067,119.794764 L165.888303,119.794764 Z M168.33356,128.595338 C167.548659,128.595338 166.899615,128.858601 166.386411,129.385134 C165.873206,129.911666 165.616607,130.566061 165.616607,131.348339 C165.616607,132.130616 165.873206,132.788772 166.386411,133.322827 C166.899615,133.856881 167.548659,134.123904 168.33356,134.123904 C169.118461,134.123904 169.767505,133.856881 170.280709,133.322827 C170.793914,132.788772 171.050513,132.130616 171.050513,131.348339 C171.050513,130.566061 170.793914,129.911666 170.280709,129.385134 C169.767505,128.858601 169.118461,128.595338 168.33356,128.595338 L168.33356,128.595338 Z M180.401358,136.245069 L184.839047,131.212945 C186.288096,129.528041 187.148456,128.482513 187.420152,128.07633 C188.008828,127.20379 188.303162,126.398959 188.303162,125.661814 C188.303162,124.984843 188.088072,124.435753 187.657886,124.014527 C187.227699,123.5933 186.695635,123.382691 186.061676,123.382691 C185.337152,123.382691 184.763579,123.627148 184.340939,124.116072 C183.9183,124.604995 183.69189,125.195455 183.661701,125.887469 L180.627771,125.887469 C180.688148,124.368046 181.208892,123.149518 182.190019,122.231846 C183.171145,121.314175 184.416403,120.855346 185.925828,120.855346 C187.586197,120.855346 188.888057,121.329218 189.831448,122.276977 C190.774839,123.224736 191.246527,124.345482 191.246527,125.639248 C191.246527,126.36135 191.080493,127.083441 190.748419,127.805543 C190.416346,128.527645 190.099371,129.072975 189.797486,129.441548 C189.495601,129.81012 189.065421,130.295275 188.506933,130.897027 L185.903187,133.717724 L191.359734,133.717724 L191.359734,136.245069 L180.401358,136.245069 Z M198.174757,136.651249 L195.797423,135.500405 L199.397385,130.806765 C198.808709,131.002334 198.272871,131.100117 197.789855,131.100117 C197.231368,131.100117 196.646474,130.987291 196.035156,130.761634 C195.423839,130.535977 194.906869,130.220062 194.484229,129.81388 C193.533291,128.926296 193.057829,127.72281 193.057829,126.203387 C193.057829,124.774227 193.518197,123.56322 194.438947,122.57033 C195.495545,121.427002 196.929478,120.855346 198.740789,120.855346 C200.582288,120.855346 202.016221,121.366827 203.04263,122.389805 C204.023757,123.367652 204.514313,124.586181 204.514313,126.045428 C204.514313,127.504676 203.880364,129.069207 202.612446,130.739068 L198.174757,136.651249 Z M198.786071,123.202166 C197.986075,123.202166 197.329485,123.457907 196.81628,123.969396 C196.272887,124.510972 196.001195,125.172889 196.001195,125.955166 C196.001195,126.812662 196.280434,127.504666 196.838922,128.031199 C197.337032,128.5126 197.986075,128.753298 198.786071,128.753298 C199.570972,128.753298 200.227563,128.482513 200.755862,127.940937 C201.299255,127.369273 201.570948,126.714878 201.570948,125.977732 C201.570948,125.150323 201.291708,124.473363 200.73322,123.94683 C200.204921,123.450385 199.555878,123.202166 198.786071,123.202166 L198.786071,123.202166 Z M219.299064,127.737847 L219.299064,126.474174 L222.061299,126.474174 L222.061299,136.245069 L219.299064,136.245069 L219.299064,134.981396 C218.559445,136.034462 217.555692,136.560987 216.287774,136.560987 C214.808537,136.560987 213.604788,136.057027 212.676492,135.049093 C211.748195,134.041159 211.284053,132.807587 211.284053,131.348339 C211.284053,129.874047 211.736874,128.640475 212.64253,127.647584 C213.548185,126.654694 214.717972,126.158256 216.151927,126.158256 C217.570787,126.158256 218.619822,126.684781 219.299064,127.737847 L219.299064,127.737847 Z M216.853806,128.595338 C216.068905,128.595338 215.419862,128.858601 214.906657,129.385134 C214.393452,129.911666 214.136854,130.566061 214.136854,131.348339 C214.136854,132.130616 214.393452,132.788772 214.906657,133.322827 C215.419862,133.856881 216.068905,134.123904 216.853806,134.123904 C217.638708,134.123904 218.287751,133.856881 218.800956,133.322827 C219.31416,132.788772 219.570759,132.130616 219.570759,131.348339 C219.570759,130.566061 219.31416,129.911666 218.800956,129.385134 C218.287751,128.858601 217.638708,128.595338 216.853806,128.595338 L216.853806,128.595338 Z M229.351789,128.820994 L227.449922,128.820994 L227.449922,136.245069 L224.687686,136.245069 L224.687686,128.820994 L223.600905,128.820994 L223.600905,126.474174 L224.687686,126.474174 L224.687686,123.134469 L227.449922,123.134469 L227.449922,126.474174 L229.351789,126.474174 L229.351789,128.820994 Z M238.679993,125.12024 L235.917757,125.12024 C236.053606,123.781342 236.57435,122.735814 237.480005,121.983625 C238.385661,121.231435 239.502619,120.855346 240.830913,120.855346 C242.279962,120.855346 243.430882,121.231435 244.283708,121.983625 C245.136533,122.735814 245.562939,123.743733 245.562939,125.007412 C245.562939,126.46666 244.981819,127.519709 243.819561,128.166593 C245.359176,128.798432 246.128971,129.994395 246.128971,131.754519 C246.128971,133.258898 245.619548,134.439818 244.600685,135.297314 C243.581823,136.154811 242.295057,136.583552 240.740348,136.583552 C239.261111,136.583552 238.015854,136.158571 237.004538,135.308597 C235.993223,134.458623 235.427197,133.326595 235.306443,131.912478 L238.249808,131.912478 C238.340374,132.559361 238.60452,133.078364 239.042253,133.469503 C239.479986,133.860641 240.05356,134.056208 240.76299,134.056208 C241.547891,134.056208 242.147879,133.819272 242.562971,133.345392 C242.978063,132.871513 243.185606,132.31114 243.185606,131.664257 C243.185606,131.032417 242.978063,130.483327 242.562971,130.01697 C242.147879,129.550612 241.517703,129.317437 240.672425,129.317437 L240.287523,129.317437 L240.287523,127.196273 L240.695066,127.196273 C241.374307,127.196273 241.887504,126.996946 242.234672,126.598285 C242.58184,126.199625 242.755422,125.71447 242.755422,125.142805 C242.755422,124.541054 242.574293,124.05966 242.212031,123.698609 C241.849769,123.337558 241.36676,123.157035 240.76299,123.157035 C240.204502,123.157035 239.725267,123.330036 239.325269,123.676043 C238.925271,124.02205 238.710181,124.503444 238.679993,125.12024 L238.679993,125.12024 Z M248.710076,127.918371 C248.710076,127.421926 248.879884,127.004467 249.219505,126.665982 C249.559126,126.327496 249.977985,126.158256 250.476095,126.158256 C250.974206,126.158256 251.393065,126.327496 251.732686,126.665982 C252.072307,127.004467 252.242115,127.421926 252.242115,127.918371 C252.242115,128.414816 252.072307,128.832275 251.732686,129.170761 C251.393065,129.509246 250.974206,129.678486 250.476095,129.678486 C249.977985,129.678486 249.559126,129.509246 249.219505,129.170761 C248.879884,128.832275 248.710076,128.414816 248.710076,127.918371 L248.710076,127.918371 Z M248.710076,134.800872 C248.710076,134.304427 248.879884,133.886968 249.219505,133.548482 C249.559126,133.209997 249.977985,133.040757 250.476095,133.040757 C250.974206,133.040757 251.393065,133.209997 251.732686,133.548482 C252.072307,133.886968 252.242115,134.304427 252.242115,134.800872 C252.242115,135.297317 252.072307,135.714776 251.732686,136.053261 C251.393065,136.391747 250.974206,136.560987 250.476095,136.560987 C249.977985,136.560987 249.559126,136.391747 249.219505,136.053261 C248.879884,135.714776 248.710076,135.297317 248.710076,134.800872 L248.710076,134.800872 Z M264.015576,121.19383 L264.015576,123.721174 L258.989214,123.721174 L258.445823,126.09056 C258.838274,126.030384 259.17789,126.000297 259.46468,126.000297 C261.079766,126.000297 262.377853,126.504257 263.358979,127.512191 C264.24954,128.414818 264.694814,129.618304 264.694814,131.122683 C264.694814,132.717325 264.181617,134.026115 263.155208,135.049093 C262.128798,136.072071 260.747695,136.583552 259.011855,136.583552 C257.698655,136.583552 256.611885,136.372942 255.751512,135.951716 C255.102459,135.635796 254.491151,135.207055 253.917569,134.665478 L254.891144,132.138134 C255.328877,132.724842 255.849621,133.176149 256.453391,133.492068 C257.147727,133.868163 257.879788,134.056208 258.649595,134.056208 C259.615627,134.056208 260.385423,133.755336 260.959004,133.153585 C261.487303,132.596964 261.751449,131.867351 261.751449,130.964724 C261.751449,130.107228 261.457115,129.415224 260.868439,128.888691 C260.279763,128.377202 259.494874,128.121461 258.513747,128.121461 C257.426961,128.121461 256.34019,128.444898 255.253404,129.091781 L257.042064,121.19383 L264.015576,121.19383 Z M273.207933,120.787649 L275.585266,121.938494 L271.91738,126.69983 C272.460773,126.459129 273.011706,126.338781 273.570193,126.338781 C274.898488,126.338781 276.007899,126.767523 276.89846,127.625019 C277.849398,128.512602 278.32486,129.716088 278.32486,131.235511 C278.32486,132.664671 277.864492,133.875678 276.943743,134.868568 C275.887145,136.011897 274.453212,136.583552 272.641901,136.583552 C270.800402,136.583552 269.366469,136.072071 268.340059,135.049093 C267.358932,134.071247 266.868377,132.852718 266.868377,131.39347 C266.868377,129.934222 267.502326,128.369691 268.770243,126.69983 L273.207933,120.787649 Z M272.596618,134.236732 C273.396614,134.236732 274.053204,133.980992 274.566409,133.469503 C275.109802,132.927926 275.381495,132.266009 275.381495,131.483732 C275.381495,130.626236 275.102255,129.934232 274.543768,129.407699 C274.045657,128.926298 273.396614,128.685601 272.596618,128.685601 C271.796623,128.685601 271.140032,128.956385 270.626828,129.497962 C270.083434,130.054582 269.811742,130.708977 269.811742,131.461167 C269.811742,132.303619 270.090981,132.980579 270.649469,133.492068 C271.177768,133.988514 271.826811,134.236732 272.596618,134.236732 L272.596618,134.236732 Z M280.770118,121.19383 L285.162524,121.19383 C286.098368,121.19383 286.86439,121.272808 287.460614,121.430768 C288.056837,121.588728 288.619089,121.89336 289.147388,122.344674 C290.173798,123.247302 290.686995,124.458309 290.686995,125.977732 C290.686995,127.391848 290.271909,128.512594 289.441725,129.340002 C288.551164,130.227586 287.275718,130.671371 285.61535,130.671371 L283.713483,130.671371 L283.713483,136.245069 L280.770118,136.245069 L280.770118,121.19383 Z M283.713483,123.721174 L283.713483,128.144027 L284.91347,128.144027 C285.773843,128.144027 286.415339,127.98607 286.837979,127.67015 C287.381372,127.248924 287.653064,126.662225 287.653064,125.910035 C287.653064,125.172889 287.373825,124.601234 286.815337,124.195051 C286.36251,123.879132 285.668184,123.721174 284.73234,123.721174 L283.713483,123.721174 Z M291.637928,136.245069 L294.445446,121.19383 L296.573726,121.19383 L300.581231,130.761634 L304.769866,121.19383 L306.898146,121.19383 L309.433968,136.245069 L306.44532,136.245069 L305.086844,126.970617 L301.034056,136.245069 L300.03784,136.245069 L296.166183,126.970617 L294.626576,136.245069 L291.637928,136.245069 Z" id="Feb-29-at-3:56PM" fill="#999999"></path>
            <path d="M152.036372,161.834431 L147.960943,161.834431 L147.960943,176.863104 L144.428905,176.863104 L144.428905,161.834431 L140.353476,161.834431 L140.353476,158.801618 L152.036372,158.801618 L152.036372,161.834431 Z M159.04611,164.75893 C161.020439,164.75893 162.605312,165.309524 163.800777,166.41073 C165.123034,167.602198 165.784153,169.136642 165.784153,171.014107 C165.784153,172.87352 165.123034,174.398938 163.800777,175.590406 C162.605312,176.691612 161.020439,177.242206 159.04611,177.242206 C157.071781,177.242206 155.486908,176.691612 154.291443,175.590406 C152.969186,174.398938 152.308068,172.87352 152.308068,171.014107 C152.308068,169.136642 152.969186,167.602198 154.291443,166.41073 C155.486908,165.309524 157.071781,164.75893 159.04611,164.75893 L159.04611,164.75893 Z M159.04611,174.317708 C159.987992,174.317708 160.7759,173.992767 161.409859,173.342875 C162.043818,172.692983 162.360792,171.916735 162.360792,171.014107 C162.360792,170.093427 162.043818,169.308153 161.409859,168.658261 C160.7759,168.008369 159.987992,167.683428 159.04611,167.683428 C158.104229,167.683428 157.31632,168.008369 156.682361,168.658261 C156.048403,169.308153 155.731428,170.093427 155.731428,171.014107 C155.731428,171.916735 156.048403,172.692983 156.682361,173.342875 C157.31632,173.992767 158.104229,174.317708 159.04611,174.317708 L159.04611,174.317708 Z M168.338088,176.863104 L168.338088,165.138031 L171.65277,165.138031 L171.65277,166.654438 C172.558426,165.39076 173.771986,164.75893 175.293487,164.75893 C176.833101,164.75893 177.992323,165.237315 178.771186,166.1941 C179.387032,166.952308 179.69495,168.053497 179.69495,169.497701 L179.69495,176.863104 L176.380268,176.863104 L176.380268,170.472534 C176.380268,169.371328 176.17197,168.604106 175.755369,168.170845 C175.374994,167.773689 174.858778,167.575114 174.206706,167.575114 C173.301051,167.575114 172.621819,167.918107 172.168991,168.604104 C171.824842,169.14568 171.65277,169.903876 171.65277,170.878714 L171.65277,176.863104 L168.338088,176.863104 Z M182.846615,165.138031 L186.161298,165.138031 L186.161298,176.863104 L182.846615,176.863104 L182.846615,165.138031 Z M182.520581,160.182631 C182.520581,159.641055 182.715294,159.176208 183.104726,158.788079 C183.494158,158.399949 183.960563,158.205887 184.503957,158.205887 C185.04735,158.205887 185.513755,158.399949 185.903187,158.788079 C186.292619,159.176208 186.487332,159.641055 186.487332,160.182631 C186.487332,160.724208 186.292619,161.189054 185.903187,161.577184 C185.513755,161.965313 185.04735,162.159375 184.503957,162.159375 C183.960563,162.159375 183.494158,161.965313 183.104726,161.577184 C182.715294,161.189054 182.520581,160.724208 182.520581,160.182631 L182.520581,160.182631 Z M198.278907,166.654438 L198.278907,165.138031 L201.593589,165.138031 L201.593589,176.321531 C201.593589,177.422736 201.48944,178.38402 201.281139,179.205411 C201.072839,180.026802 200.633602,180.771459 199.963417,181.439403 C198.858518,182.540609 197.30987,183.091203 195.317428,183.091203 C193.397439,183.091203 191.930299,182.639896 190.915965,181.737269 C189.95597,180.924904 189.322021,179.760532 189.014098,178.244118 L192.600476,178.244118 C192.74538,178.839852 193.017073,179.309211 193.415561,179.65221 C193.868389,180.067418 194.538564,180.27502 195.426106,180.27502 C196.241196,180.27502 196.911371,180.031314 197.436651,179.543895 C197.998158,179.002318 198.278907,178.135809 198.278907,176.944341 L198.278907,175.29254 C197.42759,176.592324 196.223087,177.242206 194.66536,177.242206 C193.03518,177.242206 191.676717,176.709664 190.589931,175.644563 C189.340126,174.398937 188.715233,172.846441 188.715233,170.987029 C188.715233,169.055406 189.322013,167.50291 190.535591,166.329494 C191.622378,165.282446 192.971784,164.75893 194.583851,164.75893 C196.214031,164.75893 197.445704,165.39076 198.278907,166.654438 L198.278907,166.654438 Z M195.398937,167.683428 C194.511394,167.683428 193.777825,167.954213 193.198205,168.495789 C192.491794,169.127628 192.138594,169.958033 192.138594,170.987029 C192.138594,171.907709 192.428399,172.674931 193.008018,173.288717 C193.641977,173.974714 194.438942,174.317708 195.398937,174.317708 C196.268366,174.317708 197.001936,174.046923 197.599668,173.505347 C198.30608,172.855455 198.65928,172.016024 198.65928,170.987029 C198.65928,170.084401 198.342305,169.299127 197.708347,168.631183 C197.092501,167.999343 196.322705,167.683428 195.398937,167.683428 L195.398937,167.683428 Z M204.745254,176.863104 L204.745254,157.122739 L208.059936,157.122739 L208.059936,166.654438 C208.965592,165.39076 210.179152,164.75893 211.700653,164.75893 C213.240267,164.75893 214.399488,165.237315 215.178352,166.1941 C215.794198,166.952308 216.102116,168.053497 216.102116,169.497701 L216.102116,176.863104 L212.787434,176.863104 L212.787434,170.472534 C212.787434,169.371328 212.579136,168.604106 212.162535,168.170845 C211.782159,167.773689 211.265944,167.575114 210.613872,167.575114 C209.708216,167.575114 209.028985,167.918107 208.576157,168.604104 C208.232008,169.14568 208.059936,169.903876 208.059936,170.878714 L208.059936,176.863104 L204.745254,176.863104 Z M224.850704,167.954215 L222.568463,167.954215 L222.568463,176.863104 L219.253781,176.863104 L219.253781,167.954215 L217.949644,167.954215 L217.949644,165.138031 L219.253781,165.138031 L219.253781,161.130385 L222.568463,161.130385 L222.568463,165.138031 L224.850704,165.138031 L224.850704,167.954215 Z M229.686879,158.801618 L229.06198,166.058707 L226.77974,166.058707 L226.154841,158.801618 L229.686879,158.801618 Z M240.446012,166.00455 L238.81584,167.927137 C238.254334,167.403613 237.611328,167.141855 236.886804,167.141855 C236.488315,167.141855 236.175869,167.227603 235.949455,167.399102 C235.723041,167.570601 235.609836,167.800768 235.609836,168.089609 C235.609836,168.558975 235.963036,168.910995 236.669448,169.145678 L237.457364,169.389386 C238.996978,169.876805 239.993184,170.436425 240.446012,171.068265 C240.8445,171.609841 241.043741,172.259723 241.043741,173.01793 C241.043741,174.209399 240.609033,175.202274 239.739604,175.996586 C238.833949,176.827004 237.656614,177.242206 236.207566,177.242206 C234.378142,177.242206 232.856664,176.592324 231.643085,175.29254 L233.381935,173.288717 C234.160799,174.191345 235.030215,174.642652 235.99021,174.642652 C236.46115,174.642652 236.850576,174.529825 237.158499,174.304168 C237.466422,174.078511 237.620381,173.76711 237.620381,173.369953 C237.620381,172.828377 237.276237,172.431227 236.587939,172.178491 L235.827192,171.907704 C234.64984,171.492495 233.807593,171.023136 233.300426,170.499612 C232.702694,169.867773 232.403832,169.118603 232.403832,168.252081 C232.403832,167.168928 232.811371,166.284366 233.626461,165.598369 C234.332872,165.03874 235.356247,164.75893 236.696617,164.75893 C238.10944,164.75893 239.359225,165.174132 240.446012,166.00455 L240.446012,166.00455 Z M259.383172,170.228825 L259.383172,167.196012 L267.697047,167.196012 L267.697047,167.412641 C267.697047,170.644048 266.809518,173.135263 265.034433,174.88636 C263.44048,176.474985 261.294109,177.269285 258.595256,177.269285 C255.842063,177.269285 253.65041,176.456932 252.02023,174.832203 C250.227032,173.045 249.330447,170.725282 249.330447,167.872979 C249.330447,165.165097 250.217976,162.926614 251.993061,161.157464 C253.804372,159.316104 256.18621,158.395438 259.138646,158.395438 C260.7326,158.395438 262.127288,158.711352 263.322753,159.343192 C264.717463,160.047241 265.849515,161.14843 266.718944,162.646792 L263.648788,164.298592 C263.159734,163.359859 262.453333,162.646794 261.529565,162.159375 C260.768814,161.780272 259.917511,161.590723 258.975629,161.590723 C257.272997,161.590723 255.878308,162.123265 254.791522,163.188366 C253.577944,164.361782 252.971164,165.950382 252.971164,167.954215 C252.971164,169.849733 253.568887,171.375151 254.764352,172.530514 C255.833026,173.559509 257.173376,174.073999 258.785442,174.073999 C260.198265,174.073999 261.384656,173.712954 262.34465,172.990852 C263.21408,172.322907 263.784634,171.402241 264.05633,170.228825 L259.383172,170.228825 Z M279.488622,166.654438 L279.488622,165.138031 L282.803304,165.138031 L282.803304,176.863104 L279.488622,176.863104 L279.488622,175.346698 C278.601079,176.610376 277.396576,177.242206 275.875075,177.242206 C274.09999,177.242206 272.655491,176.637455 271.541535,175.427934 C270.427579,174.218413 269.870609,172.738126 269.870609,170.987029 C269.870609,169.217879 270.413994,167.737592 271.500781,166.546123 C272.587567,165.354655 273.991312,164.75893 275.712057,164.75893 C277.41469,164.75893 278.673532,165.39076 279.488622,166.654438 L279.488622,166.654438 Z M276.554313,167.683428 C275.612431,167.683428 274.833579,167.999343 274.217733,168.631183 C273.601888,169.263022 273.29397,170.048296 273.29397,170.987029 C273.29397,171.925761 273.601888,172.715549 274.217733,173.356414 C274.833579,173.99728 275.612431,174.317708 276.554313,174.317708 C277.496194,174.317708 278.275046,173.99728 278.890892,173.356414 C279.506738,172.715549 279.814656,171.925761 279.814656,170.987029 C279.814656,170.048296 279.506738,169.263022 278.890892,168.631183 C278.275046,167.999343 277.496194,167.683428 276.554313,167.683428 L276.554313,167.683428 Z M285.954969,176.863104 L285.954969,165.138031 L289.269651,165.138031 L289.269651,166.464887 C290.175307,165.327577 291.343585,164.75893 292.77452,164.75893 C294.531492,164.75893 295.772221,165.471995 296.496745,166.898146 C297.384288,165.471995 298.64313,164.75893 300.273309,164.75893 C301.649906,164.75893 302.709507,165.237315 303.452144,166.1941 C303.796293,166.645414 304.018175,167.114773 304.117797,167.602192 C304.21742,168.089611 304.26723,168.721441 304.26723,169.497701 L304.26723,176.863104 L300.952548,176.863104 L300.952548,170.472534 C300.952548,169.371328 300.771419,168.604106 300.409157,168.170845 C300.083121,167.773689 299.6303,167.575114 299.050681,167.575114 C298.217478,167.575114 297.610698,167.918107 297.230322,168.604104 C296.9224,169.109575 296.768441,169.867771 296.768441,170.878714 L296.768441,176.863104 L293.453758,176.863104 L293.453758,170.472534 C293.453758,169.371328 293.27263,168.604106 292.910368,168.170845 C292.584332,167.773689 292.131511,167.575114 291.551891,167.575114 C290.718688,167.575114 290.111908,167.918107 289.731533,168.604104 C289.42361,169.109575 289.269651,169.867771 289.269651,170.878714 L289.269651,176.863104 L285.954969,176.863104 Z M315.922957,173.099167 L318.965944,173.586583 C318.839152,173.911529 318.671608,174.231957 318.463308,174.547876 C318.255007,174.863796 317.933504,175.25192 317.498789,175.71226 C317.064075,176.1726 316.475408,176.542672 315.73277,176.822486 C314.990133,177.102301 314.138829,177.242206 313.178835,177.242206 C311.331298,177.242206 309.827932,176.691612 308.668693,175.590406 C307.437002,174.435043 306.821165,172.909625 306.821165,171.014107 C306.821165,169.136642 307.418889,167.602198 308.614354,166.41073 C309.737367,165.309524 311.213563,164.75893 313.042987,164.75893 C315.035429,164.75893 316.565964,165.399786 317.634637,166.681517 C318.576519,167.800775 319.047452,169.335219 319.047452,171.284894 L319.047452,171.555681 L310.244526,171.555681 C310.244526,172.349993 310.434711,173.008902 310.815086,173.532426 C311.358479,174.27258 312.146387,174.642652 313.178835,174.642652 C314.410526,174.642652 315.325224,174.128162 315.922957,173.099167 L315.922957,173.099167 Z M310.353204,169.443543 L315.922957,169.443543 C315.796165,168.685336 315.465606,168.10315 314.931269,167.696968 C314.396932,167.290785 313.794681,167.087697 313.124496,167.087697 C312.472424,167.087697 311.879228,167.295298 311.344892,167.710507 C310.810555,168.125716 310.479996,168.703389 310.353204,169.443543 L310.353204,169.443543 Z M329.643568,166.00455 L328.013396,167.927137 C327.45189,167.403613 326.808884,167.141855 326.08436,167.141855 C325.685871,167.141855 325.373425,167.227603 325.147011,167.399102 C324.920597,167.570601 324.807392,167.800768 324.807392,168.089609 C324.807392,168.558975 325.160592,168.910995 325.867004,169.145678 L326.65492,169.389386 C328.194534,169.876805 329.19074,170.436425 329.643568,171.068265 C330.042056,171.609841 330.241297,172.259723 330.241297,173.01793 C330.241297,174.209399 329.806589,175.202274 328.93716,175.996586 C328.031505,176.827004 326.85417,177.242206 325.405122,177.242206 C323.575698,177.242206 322.054219,176.592324 320.840641,175.29254 L322.579491,173.288717 C323.358354,174.191345 324.227771,174.642652 325.187765,174.642652 C325.658706,174.642652 326.048132,174.529825 326.356055,174.304168 C326.663978,174.078511 326.817937,173.76711 326.817937,173.369953 C326.817937,172.828377 326.473793,172.431227 325.785495,172.178491 L325.024748,171.907704 C323.847396,171.492495 323.005149,171.023136 322.497982,170.499612 C321.90025,169.867773 321.601388,169.118603 321.601388,168.252081 C321.601388,167.168928 322.008927,166.284366 322.824017,165.598369 C323.530428,165.03874 324.553803,164.75893 325.894173,164.75893 C327.306996,164.75893 328.556781,165.174132 329.643568,166.00455 L329.643568,166.00455 Z M352.547479,172.097255 L352.547479,176.213216 C351.207109,176.917265 349.7128,177.269285 348.064507,177.269285 C345.419993,177.269285 343.210227,176.429854 341.435142,174.750967 C339.49704,172.891554 338.528003,170.589888 338.528003,167.845901 C338.528003,164.921387 339.49704,162.565565 341.435142,160.778362 C343.137774,159.189738 345.356597,158.395438 348.091676,158.395438 C349.68563,158.395438 351.170882,158.765509 352.547479,159.505664 L352.547479,163.621625 C351.370127,162.267683 349.912043,161.590723 348.173185,161.590723 C346.3981,161.590723 344.953602,162.209014 343.839645,163.445613 C342.725689,164.682213 342.16872,166.167013 342.16872,167.900058 C342.16872,169.795576 342.784556,171.298428 344.016247,172.40866 C345.247939,173.518892 346.678853,174.073999 348.309033,174.073999 C350.011665,174.073999 351.424466,173.415091 352.547479,172.097255 L352.547479,172.097255 Z M364.339053,166.654438 L364.339053,165.138031 L367.653735,165.138031 L367.653735,176.863104 L364.339053,176.863104 L364.339053,175.346698 C363.451511,176.610376 362.247007,177.242206 360.725506,177.242206 C358.950422,177.242206 357.505923,176.637455 356.391967,175.427934 C355.278011,174.218413 354.721041,172.738126 354.721041,170.987029 C354.721041,169.217879 355.264426,167.737592 356.351212,166.546123 C357.437999,165.354655 358.841744,164.75893 360.562489,164.75893 C362.265121,164.75893 363.523963,165.39076 364.339053,166.654438 L364.339053,166.654438 Z M361.404744,167.683428 C360.462863,167.683428 359.684011,167.999343 359.068165,168.631183 C358.452319,169.263022 358.144401,170.048296 358.144401,170.987029 C358.144401,171.925761 358.452319,172.715549 359.068165,173.356414 C359.684011,173.99728 360.462863,174.317708 361.404744,174.317708 C362.346626,174.317708 363.125478,173.99728 363.741324,173.356414 C364.357169,172.715549 364.665088,171.925761 364.665088,170.987029 C364.665088,170.048296 364.357169,169.263022 363.741324,168.631183 C363.125478,167.999343 362.346626,167.683428 361.404744,167.683428 L361.404744,167.683428 Z M370.805401,176.863104 L370.805401,165.138031 L374.120083,165.138031 L374.120083,166.654438 C375.025738,165.39076 376.239298,164.75893 377.760799,164.75893 C379.300414,164.75893 380.459635,165.237315 381.238499,166.1941 C381.854344,166.952308 382.162263,168.053497 382.162263,169.497701 L382.162263,176.863104 L378.84758,176.863104 L378.84758,170.472534 C378.84758,169.371328 378.639283,168.604106 378.222681,168.170845 C377.842306,167.773689 377.32609,167.575114 376.674018,167.575114 C375.768363,167.575114 375.089132,167.918107 374.636304,168.604104 C374.292155,169.14568 374.120083,169.903876 374.120083,170.878714 L374.120083,176.863104 L370.805401,176.863104 Z M394.171193,165.462976 L394.171193,168.712419 C393.428556,168.026422 392.522914,167.683428 391.454241,167.683428 C390.403681,167.683428 389.588603,168.003856 389.008983,168.644722 C388.429364,169.285587 388.139559,170.066349 388.139559,170.987029 C388.139559,171.943814 388.461061,172.738114 389.104077,173.369953 C389.747092,174.001793 390.566698,174.317708 391.562919,174.317708 C392.541027,174.317708 393.410443,173.974714 394.171193,173.288717 L394.171193,176.511082 C393.193086,176.9985 392.178767,177.242206 391.128206,177.242206 C389.298783,177.242206 387.786361,176.673559 386.590896,175.536249 C385.341091,174.362833 384.716198,172.864494 384.716198,171.041186 C384.716198,169.055405 385.39543,167.466805 386.753913,166.275336 C387.895039,165.264394 389.30784,164.75893 390.992359,164.75893 C392.133485,164.75893 393.193086,164.993609 394.171193,165.462976 L394.171193,165.462976 Z M405.174852,173.099167 L408.217839,173.586583 C408.091047,173.911529 407.923503,174.231957 407.715202,174.547876 C407.506902,174.863796 407.185399,175.25192 406.750684,175.71226 C406.31597,176.1726 405.727302,176.542672 404.984665,176.822486 C404.242028,177.102301 403.390724,177.242206 402.43073,177.242206 C400.583192,177.242206 399.079827,176.691612 397.920588,175.590406 C396.688897,174.435043 396.07306,172.909625 396.07306,171.014107 C396.07306,169.136642 396.670784,167.602198 397.866249,166.41073 C398.989262,165.309524 400.465458,164.75893 402.294882,164.75893 C404.287324,164.75893 405.817859,165.399786 406.886532,166.681517 C407.828414,167.800775 408.299347,169.335219 408.299347,171.284894 L408.299347,171.555681 L399.496421,171.555681 C399.496421,172.349993 399.686605,173.008902 400.066981,173.532426 C400.610374,174.27258 401.398282,174.642652 402.43073,174.642652 C403.662421,174.642652 404.577119,174.128162 405.174852,173.099167 L405.174852,173.099167 Z M399.605099,169.443543 L405.174852,169.443543 C405.04806,168.685336 404.717501,168.10315 404.183164,167.696968 C403.648827,167.290785 403.046575,167.087697 402.37639,167.087697 C401.724319,167.087697 401.131123,167.295298 400.596786,167.710507 C400.06245,168.125716 399.731891,168.703389 399.605099,169.443543 L399.605099,169.443543 Z M410.853283,157.122739 L414.167965,157.122739 L414.167965,176.863104 L410.853283,176.863104 L410.853283,157.122739 Z M417.31963,157.122739 L420.634312,157.122739 L420.634312,176.863104 L417.31963,176.863104 L417.31963,157.122739 Z M432.290039,173.099167 L435.333026,173.586583 C435.206235,173.911529 435.038691,174.231957 434.83039,174.547876 C434.622089,174.863796 434.300586,175.25192 433.865872,175.71226 C433.431157,176.1726 432.84249,176.542672 432.099853,176.822486 C431.357215,177.102301 430.505912,177.242206 429.545917,177.242206 C427.69838,177.242206 426.195015,176.691612 425.035776,175.590406 C423.804084,174.435043 423.188248,172.909625 423.188248,171.014107 C423.188248,169.136642 423.785971,167.602198 424.981437,166.41073 C426.104449,165.309524 427.580646,164.75893 429.410069,164.75893 C431.402511,164.75893 432.933046,165.399786 434.001719,166.681517 C434.943601,167.800775 435.414535,169.335219 435.414535,171.284894 L435.414535,171.555681 L426.611608,171.555681 C426.611608,172.349993 426.801793,173.008902 427.182168,173.532426 C427.725562,174.27258 428.51347,174.642652 429.545917,174.642652 C430.777608,174.642652 431.692307,174.128162 432.290039,173.099167 L432.290039,173.099167 Z M426.720286,169.443543 L432.290039,169.443543 C432.163248,168.685336 431.832688,168.10315 431.298352,167.696968 C430.764015,167.290785 430.161763,167.087697 429.491578,167.087697 C428.839506,167.087697 428.246311,167.295298 427.711974,167.710507 C427.177637,168.125716 426.847078,168.703389 426.720286,169.443543 L426.720286,169.443543 Z M446.988753,166.654438 L446.988753,157.122739 L450.303435,157.122739 L450.303435,176.863104 L446.988753,176.863104 L446.988753,175.346698 C446.101211,176.610376 444.896707,177.242206 443.375206,177.242206 C441.600122,177.242206 440.155623,176.637455 439.041667,175.427934 C437.92771,174.218413 437.370741,172.738126 437.370741,170.987029 C437.370741,169.217879 437.914126,167.737592 439.000912,166.546123 C440.087699,165.354655 441.491444,164.75893 443.212189,164.75893 C444.914821,164.75893 446.173663,165.39076 446.988753,166.654438 L446.988753,166.654438 Z M444.054444,167.683428 C443.112563,167.683428 442.333711,167.999343 441.717865,168.631183 C441.102019,169.263022 440.794101,170.048296 440.794101,170.987029 C440.794101,171.925761 441.102019,172.715549 441.717865,173.356414 C442.333711,173.99728 443.112563,174.317708 444.054444,174.317708 C444.996326,174.317708 445.775178,173.99728 446.391024,173.356414 C447.006869,172.715549 447.314788,171.925761 447.314788,170.987029 C447.314788,170.048296 447.006869,169.263022 446.391024,168.631183 C445.775178,167.999343 444.996326,167.683428 444.054444,167.683428 L444.054444,167.683428 Z M456.987139,171.36613 L453.618118,171.36613 L453.618118,158.801618 L456.987139,158.801618 L456.987139,171.36613 Z M453.183405,175.10299 C453.183405,174.507255 453.387175,174.006305 453.79472,173.600122 C454.202265,173.19394 454.704896,172.990852 455.302628,172.990852 C455.900361,172.990852 456.402992,173.19394 456.810537,173.600122 C457.218082,174.006305 457.421851,174.507255 457.421851,175.10299 C457.421851,175.698724 457.218082,176.199675 456.810537,176.605857 C456.402992,177.012039 455.900361,177.215127 455.302628,177.215127 C454.704896,177.215127 454.202265,177.012039 453.79472,176.605857 C453.387175,176.199675 453.183405,175.698724 453.183405,175.10299 L453.183405,175.10299 Z" id="Tonight's-Games-Canc" fill="#44536A"></path>
            <rect id="Rectangle-30" fill="#999999" x="140.190459" y="224.250813" width="339.619083" height="9.0262302"></rect>
            <rect id="Rectangle-30-Copy-2" fill="#999999" x="140.190459" y="278.408194" width="339.619083" height="9.0262302"></rect>
            <rect id="Rectangle-30-Copy-4" fill="#999999" x="140.190459" y="377.696727" width="249.053994" height="9.0262302"></rect>
            <rect id="Rectangle-30-Copy" fill="#999999" x="140.190459" y="251.329504" width="339.619083" height="9.0262302"></rect>
            <rect id="Rectangle-30-Copy-5" fill="#999999" x="140.190459" y="350.618036" width="339.619083" height="9.0262302"></rect>
            <rect id="Rectangle-30-Copy-3" fill="#999999" x="140.190459" y="305.486885" width="203.77145" height="9.0262302"></rect>
            <rect id="Rectangle-30-Copy-7" fill="#68C26B" x="389.244453" y="436.367223" width="90.5650887" height="9.0262302"></rect>
            <ellipse id="Oval-17" fill="#68C26B" cx="362.074926" cy="440.880338" rx="9.05650887" ry="9.0262302"></ellipse>
        </g>
    </g>
</svg>